<?xml version="1.0" encoding="utf-8"?>
<!-- Generator: Adobe Illustrator 25.0.1, SVG Export Plug-In . SVG Version: 6.00 Build 0)  -->
<svg version="1.1" id="Layer_1" xmlns="http://www.w3.org/2000/svg" xmlns:xlink="http://www.w3.org/1999/xlink" x="0px" y="0px"
	 viewBox="0 0 162.7 162.7" style="enable-background:new 0 0 162.7 162.7;" xml:space="preserve">
<style type="text/css">
	.st0{fill:#FFFFFF;stroke:#93C13E;stroke-miterlimit:10;}
</style>
<g>
	<g>
		<g>
			<g>
				<path class="st0" d="M134.6,139.3l-1.6,2.2l-11.8,16.7L120,157l-0.6-0.6c0,0,0,0-0.1-0.1c-1.2-1.3-1.7-3-1.3-4.8l4.2-17.1
					l0.7-2.9L134.6,139.3z"/>
				<path class="st0" d="M158.1,121.4L141.6,133l-2.4,1.7l-7.8-11.7l3.2-0.8l16.9-4.1c1.6-0.4,3.3,0,4.5,1c0.1,0.1,0.2,0.2,0.4,0.3
					l0.3,0.3L158.1,121.4z"/>
			</g>
			<path class="st0" d="M156.6,119.8l-16.7,10.6l-0.4-0.7l-0.1-0.1l16.5-10.5c0.1,0.1,0.2,0.2,0.4,0.3L156.6,119.8z"/>
			<path class="st0" d="M130.4,139.8L130.4,139.8L120,157l-0.6-0.6c0,0,0,0-0.1-0.1l10.3-17l0.3,0.2L130.4,139.8z"/>
		</g>
		<g>
			<g>
				<path class="st0" d="M84.2,32.9l0.3,0.3L73.6,44.1l-0.3-0.3c-1.1-1.1-1.1-2.9,0-4l6.8-6.8C81.3,31.8,83.1,31.8,84.2,32.9z"/>
				<g>
					<path class="st0" d="M99.1,55.9l-2.9,2.9c0,0-4.7-2.9-4.8-2.9l4.8-4.8C96.3,51.2,99.1,55.9,99.1,55.9z"/>
					<path class="st0" d="M94,42.7c2.2,2.2,2.8,4,3.7,7l-7.5,7.5c-3-0.8-4.9-1.5-7.1-3.7l-9.4-9.4l10.9-10.9L94,42.7z"/>
				</g>
			</g>
			<polygon class="st0" points="67.3,48.5 89.4,75 97.6,60.2 155,22.3 144.9,17.2 			"/>
			<path class="st0" d="M161.3,22l-6.6-3.3l-3.2-1.7c-1.7-0.9-3.7-1-5.5-0.3l-1.1,0.4l10,5l4.3,2.1l0.7,0.4c0.8,0.4,1.8,0,2.1-0.9
				C162.3,23.1,161.9,22.4,161.3,22z"/>
		</g>
		<g>
			<g>
				<path class="st0" d="M32.9,84.2l0.3,0.3l10.9-10.9l-0.3-0.3c-1.1-1.1-2.9-1.1-4,0l-6.8,6.8C31.8,81.3,31.8,83.1,32.9,84.2z"/>
				<g>
					<path class="st0" d="M55.8,99.1l2.9-2.9c0,0-2.9-4.7-2.9-4.8L51,96.3C51.2,96.4,55.8,99.1,55.8,99.1z"/>
					<path class="st0" d="M42.7,94c2.2,2.2,4,2.8,7,3.7l7.5-7.5c-0.8-3-1.5-4.9-3.7-7.1l-9.4-9.4L33.2,84.5L42.7,94z"/>
				</g>
			</g>
			<polygon class="st0" points="48.5,67.4 75,89.5 60.2,97.6 22.2,155 17.2,144.9 			"/>
			<path class="st0" d="M22,161.3l-3.3-6.6l-1.7-3.2c-0.9-1.7-1-3.7-0.3-5.5l0.4-1.1l5,10l2.1,4.3l0.4,0.7c0.4,0.8,0,1.8-0.9,2.1
				C23.1,162.4,22.4,162,22,161.3z"/>
		</g>
		<path class="st0" d="M109.4,90.6c1.7,1.7,14.3,15.9,17.5,20.2l14.4,21.9l2,3c1.1,1.6,1.2,3.6,0.4,5.2c-0.3,0.6-0.6,1.2-1.1,1.6
			c-0.5,0.5-1.1,0.9-1.7,1.1c-1.7,0.7-3.6,0.6-5.2-0.4l-3-2L110.8,127c-4.4-3.2-18.1-15.3-19.5-16.8c0,0-84.2-84.3-84.5-84.6
			C2.5,20.4,0.4,14.5,0.5,8.3c0-2.1,0.9-4.1,2.3-5.5c1.4-1.4,3.3-2.3,5.5-2.3c3.4-0.1,6.8,0.6,10,1.8c2.6,1.1,5.1,2.6,7.3,4.5
			C25.9,7.1,109.4,90.6,109.4,90.6z"/>
		<path class="st0" d="M124.5,116.4c-4.4-6.1-10.6-13.1-15.9-18.4c0,0-88.9-88.9-89.1-89.1c-1.6-1.6-4.2-2.8-6.3-2.7
			c-0.4,0-0.8,0.1-1.1,0.2c-1.1,0.3-2.2,0.8-3.2,1.6C8.7,8.2,8.6,8.3,8.5,8.5C8.4,8.5,8.3,8.6,8.2,8.7c-0.8,0.9-1.4,2-1.7,3.1
			c-0.1,0.4-0.2,0.7-0.2,1.1c-0.2,2.2,0.5,4.4,2.1,6.1C8.6,19.1,9,19.5,9,19.5l89.1,89.1c5.3,5.3,12.3,11.5,18.4,15.9l15.6,10.4
			l2.8-2.8L124.5,116.4z"/>
		<path class="st0" d="M140.5,140.6c-0.8,0.8-2,0.8-2.8,0l-21.1-21.1c-0.8-0.8-0.8-2,0-2.8c0.8-0.8,2-0.8,2.8,0l21.1,21.1
			C141.3,138.6,141.3,139.9,140.5,140.6z"/>
		<g>
			<g>
				<g>
					<g>
						<path class="st0" d="M43.3,32.1l0.2-0.2c0.2-0.2,0.2-0.5,0-0.7l-1.4-1.4c-0.2-0.2-0.5-0.2-0.7,0L41.2,30
							c-0.2,0.2-0.2,0.5,0,0.7l1.4,1.4C42.8,32.3,43.1,32.3,43.3,32.1z"/>
						<path class="st0" d="M46.6,35.4l0.2-0.2c0.2-0.2,0.2-0.5,0-0.7l-1.4-1.4c-0.2-0.2-0.5-0.2-0.7,0l-0.2,0.2
							c-0.2,0.2-0.2,0.5,0,0.7l1.4,1.4C46.1,35.6,46.4,35.6,46.6,35.4z"/>
						<path class="st0" d="M50,38.8l0.2-0.2c0.2-0.2,0.2-0.5,0-0.7l-1.4-1.4c-0.2-0.2-0.5-0.2-0.7,0l-0.2,0.2
							c-0.2,0.2-0.2,0.5,0,0.7l1.4,1.4C49.5,39,49.8,39,50,38.8z"/>
						<path class="st0" d="M53.3,42.1l0.2-0.2c0.2-0.2,0.2-0.5,0-0.7l-1.4-1.4c-0.2-0.2-0.5-0.2-0.7,0l-0.2,0.2
							c-0.2,0.2-0.2,0.5,0,0.7l1.4,1.4C52.8,42.3,53.1,42.3,53.3,42.1z"/>
						<path class="st0" d="M56.7,45.5l0.2-0.2c0.2-0.2,0.2-0.5,0-0.7l-1.4-1.4c-0.2-0.2-0.5-0.2-0.7,0l-0.2,0.2
							c-0.2,0.2-0.2,0.5,0,0.7l1.4,1.4C56.2,45.7,56.5,45.7,56.7,45.5z"/>
					</g>
					<path class="st0" d="M63,51.7l0.2-0.2c0.2-0.2,0.2-0.5,0-0.7l-1.4-1.4c-0.2-0.2-0.5-0.2-0.7,0l-0.2,0.2c-0.2,0.2-0.2,0.5,0,0.7
						l1.4,1.4C62.4,51.9,62.8,51.9,63,51.7z"/>
				</g>
				<g>
					<path class="st0" d="M69.2,58l0.2-0.2c0.2-0.2,0.2-0.5,0-0.7L68,55.7c-0.2-0.2-0.5-0.2-0.7,0l-0.2,0.2c-0.2,0.2-0.2,0.5,0,0.7
						l1.4,1.4C68.7,58.2,69,58.2,69.2,58z"/>
					<path class="st0" d="M72.6,61.3l0.2-0.2c0.2-0.2,0.2-0.5,0-0.7l-1.4-1.4c-0.2-0.2-0.5-0.2-0.7,0l-0.2,0.2
						c-0.2,0.2-0.2,0.5,0,0.7l1.4,1.4C72.1,61.5,72.4,61.5,72.6,61.3z"/>
					<path class="st0" d="M75.9,64.7l0.2-0.2c0.2-0.2,0.2-0.5,0-0.7l-1.4-1.4c-0.2-0.2-0.5-0.2-0.7,0l-0.2,0.2
						c-0.2,0.2-0.2,0.5,0,0.7l1.4,1.4C75.4,64.9,75.7,64.9,75.9,64.7z"/>
					<path class="st0" d="M79.3,68l0.2-0.2c0.2-0.2,0.2-0.5,0-0.7l-1.4-1.4c-0.2-0.2-0.5-0.2-0.7,0L77.2,66c-0.2,0.2-0.2,0.5,0,0.7
						l1.4,1.4C78.8,68.2,79.1,68.2,79.3,68z"/>
					<path class="st0" d="M82.6,71.4l0.2-0.2c0.2-0.2,0.2-0.5,0-0.7l-1.4-1.4c-0.2-0.2-0.5-0.2-0.7,0l-0.2,0.2
						c-0.2,0.2-0.2,0.5,0,0.7l1.4,1.4C82.1,71.6,82.4,71.6,82.6,71.4z"/>
				</g>
				<g>
					<path class="st0" d="M86.1,74.9l0.2-0.2c0.2-0.2,0.2-0.5,0-0.7l-1.4-1.4c-0.2-0.2-0.5-0.2-0.7,0L84,72.8
						c-0.2,0.2-0.2,0.5,0,0.7l1.4,1.4C85.6,75.1,85.9,75.1,86.1,74.9z"/>
					<path class="st0" d="M89.4,78.2l0.2-0.2c0.2-0.2,0.2-0.5,0-0.7L88.3,76c-0.2-0.2-0.5-0.2-0.7,0l-0.2,0.2
						c-0.2,0.2-0.2,0.5,0,0.7l1.4,1.4C88.9,78.4,89.2,78.4,89.4,78.2z"/>
					<path class="st0" d="M92.8,81.6l0.2-0.2c0.2-0.2,0.2-0.5,0-0.7l-1.4-1.4c-0.2-0.2-0.5-0.2-0.7,0l-0.2,0.2
						c-0.2,0.2-0.2,0.5,0,0.7l1.4,1.4C92.3,81.8,92.6,81.8,92.8,81.6z"/>
					<path class="st0" d="M96.1,84.9l0.2-0.2c0.2-0.2,0.2-0.5,0-0.7L95,82.7c-0.2-0.2-0.5-0.2-0.7,0l-0.2,0.2
						c-0.2,0.2-0.2,0.5,0,0.7l1.4,1.4C95.6,85.1,95.9,85.1,96.1,84.9z"/>
					<path class="st0" d="M99.5,88.3l0.2-0.2c0.2-0.2,0.2-0.5,0-0.7L98.3,86c-0.2-0.2-0.5-0.2-0.7,0l-0.2,0.2
						c-0.2,0.2-0.2,0.5,0,0.7l1.4,1.4C99,88.5,99.3,88.5,99.5,88.3z"/>
				</g>
			</g>
			<g>
				<g>
					<g>
						<path class="st0" d="M31.9,43.5l0.2-0.2c0.2-0.2,0.2-0.5,0-0.7l-1.4-1.4c-0.2-0.2-0.5-0.2-0.7,0l-0.2,0.2
							c-0.2,0.2-0.2,0.5,0,0.7l1.4,1.4C31.4,43.7,31.7,43.7,31.9,43.5z"/>
						<path class="st0" d="M35.2,46.8l0.2-0.2c0.2-0.2,0.2-0.5,0-0.7l-1.4-1.4c-0.2-0.2-0.5-0.2-0.7,0l-0.2,0.2
							c-0.2,0.2-0.2,0.5,0,0.7l1.4,1.4C34.7,47,35,47,35.2,46.8z"/>
						<path class="st0" d="M38.6,50.2l0.2-0.2c0.2-0.2,0.2-0.5,0-0.7l-1.4-1.4c-0.2-0.2-0.5-0.2-0.7,0l-0.2,0.2
							c-0.2,0.2-0.2,0.5,0,0.7l1.4,1.4C38.1,50.4,38.4,50.4,38.6,50.2z"/>
						<path class="st0" d="M41.9,53.5l0.2-0.2c0.2-0.2,0.2-0.5,0-0.7l-1.4-1.4c-0.2-0.2-0.5-0.2-0.7,0l-0.2,0.2
							c-0.2,0.2-0.2,0.5,0,0.7l1.4,1.4C41.4,53.7,41.7,53.7,41.9,53.5z"/>
						<path class="st0" d="M45.3,56.9l0.2-0.2c0.2-0.2,0.2-0.5,0-0.7l-1.4-1.4c-0.2-0.2-0.5-0.2-0.7,0l-0.2,0.2
							c-0.2,0.2-0.2,0.5,0,0.7l1.4,1.4C44.8,57.1,45.1,57.1,45.3,56.9z"/>
					</g>
					<path class="st0" d="M51.5,63.1l0.2-0.2c0.2-0.2,0.2-0.5,0-0.7l-1.4-1.4c-0.2-0.2-0.5-0.2-0.7,0l-0.2,0.2
						c-0.2,0.2-0.2,0.5,0,0.7l1.4,1.4C51,63.3,51.4,63.3,51.5,63.1z"/>
				</g>
				<g>
					<path class="st0" d="M57.8,69.4l0.2-0.2c0.2-0.2,0.2-0.5,0-0.7l-1.4-1.4c-0.2-0.2-0.5-0.2-0.7,0l-0.2,0.2
						c-0.2,0.2-0.2,0.5,0,0.7l1.4,1.4C57.3,69.6,57.6,69.6,57.8,69.4z"/>
					<path class="st0" d="M61.2,72.8l0.2-0.2c0.2-0.2,0.2-0.5,0-0.7L60,70.5c-0.2-0.2-0.5-0.2-0.7,0l-0.2,0.2
						c-0.2,0.2-0.2,0.5,0,0.7l1.4,1.4C60.6,72.9,61,72.9,61.2,72.8z"/>
					<path class="st0" d="M64.5,76.1l0.2-0.2c0.2-0.2,0.2-0.5,0-0.7l-1.4-1.4c-0.2-0.2-0.5-0.2-0.7,0L62.5,74
						c-0.2,0.2-0.2,0.5,0,0.7l1.4,1.4C64,76.3,64.3,76.3,64.5,76.1z"/>
					<path class="st0" d="M67.9,79.5l0.2-0.2c0.2-0.2,0.2-0.5,0-0.7l-1.4-1.4c-0.2-0.2-0.5-0.2-0.7,0l-0.2,0.2
						c-0.2,0.2-0.2,0.5,0,0.7l1.4,1.4C67.4,79.6,67.7,79.6,67.9,79.5z"/>
					<path class="st0" d="M71.2,82.8l0.2-0.2c0.2-0.2,0.2-0.5,0-0.7L70,80.6c-0.2-0.2-0.5-0.2-0.7,0l-0.2,0.2
						c-0.2,0.2-0.2,0.5,0,0.7l1.4,1.4C70.7,83,71,83,71.2,82.8z"/>
				</g>
				<g>
					<path class="st0" d="M74.7,86.3l0.2-0.2c0.2-0.2,0.2-0.5,0-0.7L73.5,84c-0.2-0.2-0.5-0.2-0.7,0l-0.2,0.2
						c-0.2,0.2-0.2,0.5,0,0.7l1.4,1.4C74.2,86.5,74.5,86.5,74.7,86.3z"/>
					<path class="st0" d="M78,89.6l0.2-0.2c0.2-0.2,0.2-0.5,0-0.7l-1.4-1.4c-0.2-0.2-0.5-0.2-0.7,0L76,87.6c-0.2,0.2-0.2,0.5,0,0.7
						l1.4,1.4C77.5,89.8,77.8,89.8,78,89.6z"/>
					<path class="st0" d="M81.4,93l0.2-0.2c0.2-0.2,0.2-0.5,0-0.7l-1.4-1.4c-0.2-0.2-0.5-0.2-0.7,0l-0.2,0.2c-0.2,0.2-0.2,0.5,0,0.7
						l1.4,1.4C80.9,93.2,81.2,93.2,81.4,93z"/>
					<path class="st0" d="M84.7,96.3l0.2-0.2c0.2-0.2,0.2-0.5,0-0.7l-1.4-1.4c-0.2-0.2-0.5-0.2-0.7,0l-0.2,0.2
						c-0.2,0.2-0.2,0.5,0,0.7l1.4,1.4C84.2,96.5,84.5,96.5,84.7,96.3z"/>
					<path class="st0" d="M88.1,99.7l0.2-0.2c0.2-0.2,0.2-0.5,0-0.7l-1.4-1.4c-0.2-0.2-0.5-0.2-0.7,0L86,97.6
						c-0.2,0.2-0.2,0.5,0,0.7l1.4,1.4C87.6,99.9,87.9,99.9,88.1,99.7z"/>
				</g>
			</g>
		</g>
	</g>
	<g>
		<path class="st0" d="M9.7,15.2C9.8,15.1,9.8,15.1,9.7,15.2c0.5-1.1,1.1-2.1,1.9-3L8.2,8.7c-0.8,0.9-1.4,2-1.7,3.1c0,0,0,0.1,0,0.1
			L9.7,15.2z"/>
		<path class="st0" d="M12.3,11.5L12.3,11.5c0.9-0.8,1.8-1.4,2.9-1.8L12,6.5c-1.1,0.3-2.2,0.8-3.1,1.6l0,0L12.3,11.5z"/>
		<path class="st0" d="M19,8.5c-1.6-1.6-3.7-2.3-5.8-2.2c0,0-0.1,0-0.1,0l3.1,3.1c0,0,0.1,0,0.1,0C17.3,9,18.4,8.9,19.5,9
			C19.3,8.8,19.2,8.6,19,8.5z"/>
		<path class="st0" d="M9.4,16.1L6.3,13c-0.2,2.1,0.5,4.3,2.1,6c0.2,0.2,0.3,0.3,0.5,0.5C8.9,18.3,9.1,17.2,9.4,16.1z"/>
	</g>
</g>
</svg>
