<?xml version="1.0" encoding="utf-8"?>
<!-- Generator: Adobe Illustrator 25.0.1, SVG Export Plug-In . SVG Version: 6.00 Build 0)  -->
<svg version="1.1" id="Layer_1" xmlns="http://www.w3.org/2000/svg" xmlns:xlink="http://www.w3.org/1999/xlink" x="0px" y="0px"
	 viewBox="0 0 136 98.6" style="enable-background:new 0 0 136 98.6;" xml:space="preserve">
<style type="text/css">
	.st0{fill:#92C03E;stroke:#FFFFFF;stroke-miterlimit:10;}
	.st1{fill:#FFFFFF;stroke:#92C03E;stroke-miterlimit:10;}
	.st2{fill:#92C03E;stroke:#92C03E;stroke-miterlimit:10;}
</style>
<path class="st0" d="M132.3,94l-0.8,2.9c0,0-44.2-0.6-56.2-0.6c-4,2.4-11.9,2.7-15.4-0.6c-3.4,0-55.1,0.2-55.1,0.2l-1-2.6l64.3-0.7
	L132.3,94z"/>
<path class="st0" d="M126.3,16.6c0,0,7.2,3.7,9.2,3.7c-0.9,21.3-3.1,73.6-3.1,73.6L3.8,93.3c0,0-3.2-55.8-3.1-73
	C16.1,20.4,126.3,16.6,126.3,16.6z"/>
<path class="st0" d="M6.6,92.5C6.8,88.3,2.6,33,2.6,22.8c1.9-0.1,5.8-3.8,6.8-4.8c1.7,0,3.7-1.8,5.8-1.8c-0.9,9.7,8.5,53.5,3.5,59.9
	c9-4.2,57.5-18.1,100.3,1.9c0.2,0.2-0.2,0.4,0,0.6c-1.4-1.9,6.7-43.2,3.4-62l3.8,0l0.2,0c1,0.8,5.3,5.5,7.4,5.7
	c0,18.5-3.9,70.5-3.9,70.5s-22.9-2.6-36.7-2.6c-0.7,0,0.7,2.6,0.1,2.6c-0.5,0-3-2.5-3.5-2.5c-1.4,0-1.2,1.4-2.2,2.1
	c-0.5,0.3-1.9,0.2-2.5,0.2c-0.2,0-1.5-1.9-1.7-1.9c-2.5,0.2-5,0.8-7.4,1.7l-7.4,0c-1-0.1-1.9-0.2-2.9,0l-5.7,0
	c-6.9-3-29.4-3.6-50.1,0.1L6.6,92.5z"/>
<path class="st0" d="M127,11.5c0,0,0.6,8.4,5.7,9.8c0,19.7-3.9,70.6-3.9,70.6l-9.6-6.3C119.2,85.5,123.5,24.1,127,11.5z"/>
<path class="st0" d="M128.8,91.8c0,0-47.8-6.5-55.5,1.2c0,0-6.2-3.9-11.1-0.3c-4.5-4.2-29.9-5.7-54.5-0.9c1.7-1.6,5.5-9.9,11-15.7
	c0,0,54.6-16.7,104.2,6.4C124.1,85.6,126.9,91,128.8,91.8z"/>
<path class="st0" d="M72.1,86.9C88,81,96,80.3,120,83.4C108,79.7,86.2,77.5,72.1,86.9z"/>
<path class="st0" d="M63.6,86.9c-15.9-5.8-23.9-6.6-47.9-3.5C27.7,79.7,49.5,77.5,63.6,86.9z"/>
<path class="st0" d="M9.4,11.5c0,0-0.5,8.4-5.6,10.4c0,12.9,3.9,70,3.9,70s4-5.1,5.6-8.9C19.6,78.2,13.5,18.1,9.4,11.5z"/>
<path class="st0" d="M73.8,93.5c0.2,0,0.3-0.1,0.4-0.3c0.1-0.3,0.1-0.6-0.1-0.9c-0.2-0.2-6.1-5.4-12.8-0.3c-0.2,0.2-0.3,0.6-0.2,0.9
	c0.1,0.3,0.4,0.4,0.6,0.3c6.2-4.8,11.9,0.2,11.9,0.3C73.7,93.5,73.7,93.5,73.8,93.5z"/>
<path class="st0" d="M127,11.5c0,27.9-3.9,71.2-3.9,71.2S88,72,68.2,87.4c-14.6-12.6-41.5-9.2-54.9-4.5c0-13.1-3.9-57.6-3.9-71.4
	C19.2,7.8,53.3-0.6,68.2,11C79.6-1.2,120,8.8,127,11.5z"/>
<path class="st0" d="M120.3,79.5c0,0,3.7-40.6,3.9-68.9C112.8,7.2,78.5-0.1,68.2,11c-14-10.9-45-4.1-56.8-0.2
	c0.4,17.1,3.9,56.3,3.9,68.6c13-4.7,37.2-4.6,51.9,7.2c0.3,0.3,0.7,0.5,1,0.8C88,72,120.3,79.5,120.3,79.5z"/>
<path class="st1" d="M122.3,2.1c0,27.9-3.9,71.2-3.9,71.2S88,72,68.2,87.4C53.5,74.7,30.3,69.6,17,74.3C17,61.2,13,16.7,13,2.9
	c9.8-3.6,40.3-3.5,55.1,8.1C79.6-1.2,115.3-0.6,122.3,2.1z"/>
<path class="st0" d="M68.2,87.2c-0.3-14-0.5-60.3,0-76.3C68.9,20.1,68.7,74.4,68.2,87.2z"/>
<path class="st0" d="M13.3,83c0-12.6-4.8-67-3.9-71.6C10,17.9,13.9,71.1,13.3,83z"/>
<path class="st0" d="M11.6,83.5c0-10.4-4.2-49.2-3.7-67C8.3,21.8,12,73.6,11.6,83.5z"/>
<path class="st0" d="M10,85.6C10,75.1,5.9,47,6.3,29.2C6.8,34.5,10.4,75.7,10,85.6z"/>
<path class="st0" d="M9,75.3c0-10.4-3.7-35.6-3.2-53.4C6.1,27.1,9.3,65.4,9,75.3z"/>
<path class="st0" d="M127.5,85.3c0-10.4,3.3-45.8,3.7-63.6C131.7,27,127.9,75.4,127.5,85.3z"/>
<path class="st0" d="M125.9,85.7c0-10.4,3.7-38.6,4.2-56.4C130.5,34.6,126.3,75.8,125.9,85.7z"/>
<path class="st0" d="M124.8,75.4c0-10.4,3.7-38.6,4.2-56.4C129.3,24.3,125.1,65.5,124.8,75.4z"/>
<path class="st0" d="M123,82.6c0-12.6,3-66.6,3.8-71.2C127.5,17.9,123.6,70.7,123,82.6z"/>
<path class="st0" d="M132.3,94c0,0-55.8-0.2-58-0.5C78.2,93,128.4,93.2,132.3,94z"/>
<path class="st0" d="M61.5,93.4c0,0-55.4,0.2-57.6-0.1C7.7,92.8,57.6,92.7,61.5,93.4z"/>
<path class="st0" d="M7.7,91.8c0,0,3.7-5.4,5.6-8.8C12.5,87.5,7.7,91.8,7.7,91.8z"/>
<path class="st0" d="M128.8,91.8c-2.1-2.9-4-6-5.7-9.1C123.9,87.1,128.8,91.8,128.8,91.8z"/>
<path class="st2" d="M62.7,31.2c-0.1,0-0.3,0-0.4-0.1c-12.8-6-27.1-8-41-5.8c-0.5,0.1-1.1-0.2-1.2-0.7s0.2-1.1,0.7-1.2
	c0,0,0,0,0.1,0c14.4-2.3,29.1-0.2,42.3,6c0.5,0.2,0.7,0.8,0.5,1.3C63.4,30.9,63.1,31.2,62.7,31.2z"/>
<path class="st2" d="M62.6,38.9c-0.1,0-0.3,0-0.4-0.1c-12.5-6-26.6-8-40.3-5.8c-0.5,0.1-1.1-0.2-1.2-0.7c-0.1-0.5,0.2-1.1,0.7-1.2
	l0,0c14.1-2.3,28.6-0.2,41.5,6c0.5,0.2,0.7,0.8,0.5,1.3C63.3,38.7,62.9,38.9,62.6,38.9L62.6,38.9z"/>
<path class="st2" d="M62.7,46.7c-0.1,0-0.3,0-0.4-0.1c-20.7-9.9-39.3-5.8-39.5-5.8c-0.5,0.1-1-0.2-1.2-0.8c-0.1-0.5,0.2-1,0.7-1.2
	c0.8-0.2,19.4-4.3,40.7,5.9c0.5,0.2,0.7,0.8,0.5,1.3C63.4,46.5,63.1,46.7,62.7,46.7L62.7,46.7z"/>
<path class="st2" d="M62.8,54.5c-0.1,0-0.3,0-0.4-0.1c-20.7-9.9-38.9-5.9-39.1-5.8c-0.5,0.1-1.1-0.2-1.2-0.7
	c-0.1-0.5,0.2-1.1,0.7-1.2c0.8-0.2,19-4.3,40.4,5.9c0.5,0.2,0.7,0.8,0.5,1.3C63.5,54.3,63.2,54.5,62.8,54.5L62.8,54.5z"/>
<path class="st2" d="M62.9,62.3c-0.1,0-0.3,0-0.4-0.1c-20.7-9.9-38.5-5.9-38.7-5.8c-0.5,0.1-1.1-0.2-1.2-0.7
	c-0.1-0.5,0.2-1.1,0.7-1.2c0,0,0,0,0,0c0.7-0.2,18.6-4.3,40,5.9c0.5,0.2,0.7,0.8,0.5,1.3C63.7,62.1,63.3,62.3,62.9,62.3z"/>
<path class="st2" d="M63.1,70.1c-0.1,0-0.3,0-0.4-0.1c-20.7-9.9-38.1-5.9-38.3-5.8c-0.5,0.1-1-0.3-1.1-0.8c-0.1-0.5,0.2-1,0.7-1.1
	c0.7-0.2,18.2-4.3,39.6,5.9c0.5,0.2,0.7,0.8,0.5,1.3C63.8,69.9,63.5,70.1,63.1,70.1L63.1,70.1z"/>
<path class="st2" d="M73.1,31.2c-0.5,0-1-0.4-1-1c0-0.4,0.2-0.7,0.6-0.9c13.2-6.1,27.9-8.2,42.3-6c0.5,0.1,0.9,0.7,0.7,1.2
	c-0.1,0.5-0.6,0.8-1.1,0.7c-14-2.2-28.2-0.2-41,5.8C73.4,31.1,73.3,31.2,73.1,31.2z"/>
<path class="st2" d="M73.3,38.9c-0.5,0-1-0.4-1-1c0-0.4,0.2-0.7,0.6-0.9c12.9-6.1,27.4-8.2,41.5-6c0.5,0.1,0.9,0.6,0.7,1.2
	c-0.1,0.5-0.6,0.9-1.2,0.7l0,0c-13.7-2.2-27.7-0.2-40.3,5.8C73.6,38.9,73.4,38.9,73.3,38.9z"/>
<path class="st2" d="M73.1,46.7c-0.5,0-1-0.4-1-1c0-0.4,0.2-0.7,0.6-0.9c21.4-10.2,40-6.1,40.7-5.9c0.5,0.1,0.9,0.6,0.8,1.2
	c-0.1,0.5-0.6,0.9-1.2,0.8c0,0,0,0,0,0c-0.2,0-18.8-4.1-39.5,5.8C73.4,46.7,73.3,46.7,73.1,46.7z"/>
<path class="st2" d="M73,54.5c-0.5,0-1-0.4-1-1c0-0.4,0.2-0.7,0.6-0.9c21.4-10.2,39.6-6.1,40.4-5.9c0.5,0.1,0.9,0.6,0.7,1.2
	s-0.6,0.9-1.2,0.7c-0.2,0-18.4-4.1-39.1,5.8C73.3,54.5,73.1,54.5,73,54.5z"/>
<path class="st2" d="M72.9,62.3c-0.5,0-1-0.4-1-1c0-0.4,0.2-0.7,0.6-0.9c21.4-10.2,39.2-6.1,40-5.9c0.5,0.1,0.8,0.7,0.7,1.2
	c-0.1,0.5-0.6,0.8-1.2,0.7c-0.2,0-18-4.1-38.7,5.8C73.2,62.3,73,62.3,72.9,62.3z"/>
<path class="st2" d="M72.7,70.1c-0.5,0-1-0.4-1-1c0-0.4,0.2-0.7,0.6-0.9c21.4-10.2,38.8-6.1,39.6-5.9c0.5,0.2,0.8,0.7,0.6,1.2
	c-0.1,0.5-0.6,0.8-1.1,0.7c-0.2,0-17.6-4.1-38.3,5.8C73,70.1,72.9,70.1,72.7,70.1z"/>
</svg>
