<?xml version="1.0" encoding="utf-8"?>
<!-- Generator: Adobe Illustrator 25.0.1, SVG Export Plug-In . SVG Version: 6.00 Build 0)  -->
<svg version="1.1" id="Layer_1" xmlns="http://www.w3.org/2000/svg" xmlns:xlink="http://www.w3.org/1999/xlink" x="0px" y="0px"
	 viewBox="0 0 85.9 123.9" style="enable-background:new 0 0 85.9 123.9;" xml:space="preserve">
<style type="text/css">
	.st0{fill:#FFFFFF;stroke:#92C03E;stroke-width:2;stroke-miterlimit:10;}
	.st1{fill:#92C03E;stroke:#92C03E;stroke-width:0.9916;stroke-miterlimit:10;}
	.st2{fill:#92C03E;stroke:#FFFFFF;stroke-miterlimit:10;}
	.st3{fill:#92C03E;stroke:#92C03E;stroke-miterlimit:10;}
</style>
<path class="st0" d="M6.1,39.2l9,72.6c0.3,2.1,0.6,4.4,1.7,5.9c0.7,0.8,1.5,1.5,2.5,1.8c2.2,0.9,4.4,1.5,6.7,1.8
	c12.7,2.1,25.6,2.2,38.3,0.3c1.3-0.1,2.6-0.5,3.6-1.3c2.1-1.8,2.7-5.5,3.1-8.8c3.2-25.8,6.3-51.6,10.4-77.2L6.1,39.2z"/>
<path class="st0" d="M39.6,40.2c14.7,0.7,29.4-1.3,44,0.1c0.3,0.1,0.7,0,1-0.2c0.4-0.5,0.3-1.4,0.2-2.1c-1.1-4.4-2.5-8.6-4.2-12.8
	c-0.3-0.9-0.8-1.8-1.5-2.5c-0.7-0.6-1.5-0.9-2.4-1c-2.3-0.4-4.6-0.5-6.9-0.5c-4.9,0-9.8,0.3-14.7,0.5l-42.7,2.1
	c-1.2,0-2.3,0.2-3.4,0.5c-2.6,0.9-4.6,3.7-6,6.8c-1.6,3.8-4,10.3,0.9,10.4C8.6,41.7,32.3,39.8,39.6,40.2z"/>
<path class="st1" d="M41.3,22.4c0.1,12.4,0.2,26.1,0.3,38.4c0.2,20.6-0.2,40.7,0,61.2c3.4,0,6.9,0.1,10.5,0
	c-1.2-32.3-1.4-67.8-0.9-100.1L41.3,22.4z"/>
<polygon class="st1" points="10.7,71.3 12.2,84 74.3,85.1 75.9,73.3 "/>
<path class="st0" d="M32.7,2.8c-2.2-1.3-4.6-2.2-6.9-1.6c-2.9,0.6-5.3,3.5-6.6,7c-1.2,3.7-1.3,7.7-0.5,11.4c0.3,1.5,0.8,2.9,1.6,4.2
	c0.9,1.5,2.3,2.6,3.9,3.1c1.5,0.5,3,0.6,4.6,0.5c4.2-0.2,8.2-1.5,11.8-3.6c1.6-0.8,2.9-2.1,3.8-3.6c0.8-1.4,1-3.1,0.7-4.7
	c-0.4-1.1-1.4-1.7-2-2.5c-1.8-2.7-3.9-5.1-6.3-7.2C35.6,4.6,34.2,3.6,32.7,2.8z"/>
<path class="st0" d="M58,3.2c2.2-1.2,4.6-2,7-1.4c2.8,0.8,5.3,3.6,6.4,7.2c1.1,3.7,1.2,7.7,0.2,11.5c-0.3,1.5-0.9,2.8-1.7,4.1
	c-0.9,1.4-2.4,2.5-4,3c-1.5,0.4-3.1,0.5-4.6,0.3c-4.2-0.4-8.2-1.8-11.7-4c-1.6-0.9-2.9-2.2-3.7-3.8c-0.8-1.5-1-3.1-0.6-4.7
	c0.4-1.1,1.4-1.6,2-2.5c1.8-2.6,4-4.9,6.4-7C55.1,4.9,56.6,4,58,3.2z"/>
<path class="st2" d="M41.3,19.9c-0.6-1.9-0.4-4,0.5-5.8c0.8-1.6,2.3-2.8,4.1-3.1c0.7-0.2,1.4-0.1,2.1,0.2c1,0.5,1.8,1.4,2.2,2.5
	c0.7,1.8,0.9,3.8,0.4,5.7c-0.6,2.2-2.6,5.1-4.7,4.8C44.1,23.9,42,21.8,41.3,19.9z"/>
<path class="st2" d="M42.3,19.9C41.8,18,42,16,42.7,14.1c0.6-1.5,1.9-2.7,3.4-3.1c0.6-0.2,1.2-0.1,1.7,0.2c0.9,0.6,1.5,1.5,1.8,2.5
	c0.6,1.8,0.7,3.8,0.3,5.6c-0.5,2.2-2.2,5-3.9,4.8C44.6,23.9,42.8,21.8,42.3,19.9z"/>
<path class="st3" d="M60.1,10.2c0.5-0.2,1-0.2,1.5-0.1c0.4,0.1,0.7,0.4,0.7,0.8c0,0.4-0.2,0.8-0.5,1c-1.2,1.1-2.7,1.8-4.3,2
	c-0.5,0.1-2.1,0.9-2.6,0.5c-0.7-0.6,0-1.3,0.5-1.7C56.8,11.6,58.4,10.7,60.1,10.2z"/>
<path class="st3" d="M62.1,19c0.5,0.2,0.9,0.5,1.1,1c0.1,0.2,0.1,0.4,0.1,0.6c-0.1,0.2-0.2,0.4-0.3,0.5c-0.7,0.5-1.7,0.8-2.6,0.7
	c-0.9,0-6.3-0.5-5.2-2.8c0.5-1.1,2.3-0.7,3.1-0.7C59.6,18.3,60.9,18.5,62.1,19z"/>
<path class="st3" d="M31.2,9.7c-0.4-0.2-0.9-0.2-1.4-0.2c-0.4,0.1-0.7,0.4-0.8,0.8c0,0.4,0.2,0.8,0.5,1.1c1.2,1.1,2.7,1.8,4.3,2.2
	c0.5,0.2,2.1,1,2.6,0.6c0.7-0.6,0-1.3-0.5-1.7C34.5,11.2,32.9,10.3,31.2,9.7z"/>
<path class="st3" d="M29.1,18.4c-0.5,0.2-0.9,0.5-1.1,0.9c-0.1,0.2-0.1,0.4-0.1,0.6c0.1,0.2,0.2,0.4,0.3,0.5
	c0.7,0.6,1.6,0.8,2.5,0.8s6.3-0.3,5.2-2.6c-0.5-1.1-2.3-0.8-3.1-0.8C31.6,17.8,30.3,18,29.1,18.4z"/>
</svg>
