<?xml version="1.0" encoding="utf-8"?>
<!-- Generator: Adobe Illustrator 25.0.1, SVG Export Plug-In . SVG Version: 6.00 Build 0)  -->
<svg version="1.1" xmlns="http://www.w3.org/2000/svg" xmlns:xlink="http://www.w3.org/1999/xlink" x="0px" y="0px"
	 viewBox="0 0 191.8 231.1" style="enable-background:new 0 0 191.8 231.1;" xml:space="preserve">
<style type="text/css">
	.st0{fill:#FFFFFF;stroke:#93C13E;stroke-miterlimit:10;}
	.st1{fill:#93C13E;stroke:#93C13E;stroke-miterlimit:10;}
	.st2{fill:#FFFFFF;stroke:#FFFFFF;stroke-miterlimit:10;}
</style>
<g id="Layer_1">
	<path class="st0" d="M92,152.2c-4.8-3.9-9.9-5.6-16.9-5.6c-3.3,0-6.9,0.4-10.7,0.7c-5.2,0.6-10.5,0.9-15.8,1
		c-7.3,0-14.7-0.9-21.8-2.5c-13.7-3.1-22-12.2-24.5-27c-1.1-7.2-1-14.5,0.3-21.7v-0.3C2.2,89.8,3.9,84.2,7.7,80
		c6.2-6.7,16.7-8.3,24.5-8.4c3.2-0.1,6.1-1.5,8.2-3.8c2.1-2.3,3.1-5.4,2.7-8.5c-1.3-12.5-0.6-30.1,10.2-42.7
		c7.9-9.2,20.2-14.3,36.3-15c0.8-0.1,1.7-0.1,2.5-0.1c34.8,0,48.3,33.2,53.3,53c1.8,7.6,8.1,13.2,15.9,14.2l0.6,0.1
		c10.9,1.7,20,9.1,23.9,19.4c10.3,27.2,0.4,39.5-6.4,44.5c-4.5,3.3-8.4,7.3-11.5,12c-10.1,15.4-26.5,18.7-38.5,18.7
		C113.9,163.4,98.8,157.7,92,152.2z"/>
	<path class="st1" d="M92.2,0.5v2c34.1,0,47.4,32.7,52.3,52.2c1.9,8,8.6,13.9,16.7,15l0.5,0.1c10.5,1.6,19.4,8.8,23.1,18.7
		c4.4,11.7,5.5,21.7,3.3,29.8c-1.5,5.5-4.8,10.3-9.4,13.6c-4.6,3.3-8.6,7.5-11.8,12.3c-9.9,15.1-25.9,18.2-37.7,18.2
		c-15.3,0-30.1-5.5-36.8-10.9c-5-4.1-10.2-5.8-17.5-5.8c-3.4,0-7,0.4-10.8,0.8c-5.2,0.6-10.4,0.9-15.7,1c-7.3,0-14.5-0.8-21.6-2.5
		c-13.3-3-21.3-11.9-23.9-26.2c-1.1-7.1-1-14.3,0.3-21.3l0.1-0.3v-0.3C3.1,90,4.7,84.6,8.3,80.7c5.9-6.4,16.2-8,23.8-8.1
		c3.5-0.1,6.7-1.6,9-4.2c2.3-2.5,3.3-5.9,3-9.3c-1.3-12.3-0.6-29.6,10-41.9c7.7-9,19.7-13.9,35.6-14.6c0.8,0,1.6-0.1,2.5-0.1l0,0
		L92.2,0.5 M92.2,0.5c-0.8,0-1.7,0.1-2.6,0.1c-44.1,2-50,35-47.4,58.8c0,0.3,0,0.6,0.1,0.9c0.1,5.6-4.4,10.3-10.1,10.4
		C19.1,70.9,0.3,75,1.6,97c0,0-9.2,42,24.9,49.9c7.2,1.7,14.7,2.5,22.1,2.6c10.8,0,19.2-1.7,26.5-1.7c5.9,0,11.1,1.2,16.3,5.4
		c7.2,5.9,22.4,11.4,38,11.4c14.8,0,30-4.9,39.3-19.1c3-4.6,6.8-8.5,11.3-11.8c7.5-5.5,17.1-18.3,6.8-45.7
		c-4-10.7-13.5-18.3-24.7-20.1l-0.6-0.1c-7.3-1-13.2-6.3-15-13.5C141.5,34.5,127.8,0.5,92.2,0.5L92.2,0.5z"/>
	<path class="st0" d="M92,152.2c-4.8-3.9-9.9-5.6-16.9-5.6c-3.3,0-6.9,0.4-10.7,0.7c-5.2,0.6-10.5,0.9-15.8,1l0,0
		c-7.3,0-14.6-0.9-21.8-2.6c-13.7-3.1-22-12.2-24.5-27c-1.1-7.2-1-14.5,0.3-21.7v-0.3c-0.5-7.5,1.5-13.5,5.9-17.7
		c-0.1,1.4-0.2,2.8-0.2,4.2C8,93.4,8.6,104.8,15,113.2c5.9,7.7,16.5,12.2,29,12.3h0.4c7.5,0,15.1-1.4,22.3-2.8
		c2.9-0.6,5.9-1.1,8.8-1.6c4.3-0.7,8.7-1.1,13.1-1.2c6-0.2,12,1,17.5,3.4c2.4,1.2,4.7,2.5,6.9,3.9c2.6,1.7,5.2,3.1,8,4.4
		c2.6,1.1,5.4,1.7,8.3,1.8c3.2,0.1,6.4-1,8.9-3.1c1.3-1.3,2.4-2.7,3.3-4.2c1.6-3.3,4.7-5.6,8.4-6.2c1-0.2,2-0.5,2.9-0.9
		c5-1.9,9-6.6,10.8-12.5c1.4-4.6,1.5-10,0.3-16.5c-1.3-7.1-3.8-11.8-7.7-14.3c-2.2-1.2-4.5-2.1-7-2.6c-1.3-0.3-2.6-0.7-3.8-1.1
		c-6-2.2-10.6-7.2-14.7-11.7c-3.1-3.4-7-7.7-7.8-12.8c-0.6-3.8,0.7-7.5,2-11.5c0.6-1.8,1.2-3.5,1.6-5.3c1.1-4.9,1-10.1-0.4-14.9
		c10.8,11.3,16.5,26.9,19.4,38.5c1.8,7.6,8.1,13.2,15.9,14.2l0.6,0.1c10.9,1.7,20,9.1,23.9,19.4c10.3,27.2,0.4,39.5-6.4,44.5
		c-4.5,3.3-8.4,7.3-11.5,12c-10.1,15.4-26.5,18.7-38.5,18.7C113.9,163.4,98.8,157.7,92,152.2z"/>
	<path class="st1" d="M127.9,19.5c9,10.8,14,24.7,16.6,35.2c1.9,8,8.6,13.9,16.7,15l0.5,0.1c10.5,1.6,19.4,8.8,23.1,18.7
		c4.4,11.7,5.5,21.7,3.3,29.8c-1.5,5.5-4.8,10.3-9.4,13.6c-4.6,3.3-8.6,7.5-11.8,12.3c-9.9,15.1-25.9,18.2-37.7,18.2
		c-15.3,0-30.1-5.5-36.8-10.9c-5-4.1-10.2-5.8-17.5-5.8c-3.4,0-7,0.4-10.8,0.8c-5.2,0.6-10.4,0.9-15.7,1c-7.3,0-14.5-0.8-21.6-2.5
		c-13.3-3-21.3-11.9-23.8-26.2c-1.1-7.1-1-14.3,0.3-21.3l0.1-0.3v-0.3c-0.4-6.1,0.9-11.1,3.8-14.9v1.3c-0.3,10.2,0.2,21.9,6.8,30.5
		c6.1,8,16.9,12.6,29.8,12.7h0.4c7.6,0,15.2-1.4,22.5-2.8c2.9-0.6,5.9-1.1,8.8-1.6c4.3-0.7,8.6-1.1,13-1.1c5.8-0.2,11.6,1,17,3.3
		c2.3,1.1,4.6,2.4,6.8,3.8c2.6,1.7,5.3,3.2,8.2,4.5c2.7,1.2,5.7,1.8,8.7,1.8c3.5,0.1,6.9-1.1,9.5-3.4c1.3-1.3,2.5-2.8,3.5-4.4
		c1.5-3.1,4.4-5.3,7.8-5.8c1-0.3,2-0.6,3-0.9c5.3-2,9.5-6.9,11.4-13.1c1.4-4.8,1.5-10.3,0.4-16.9c-1.3-7.4-4-12.3-8.2-14.9
		c-2.3-1.3-4.7-2.2-7.3-2.7c-1.3-0.3-2.5-0.6-3.7-1.1c-5.8-2.1-10.3-7-14.3-11.4c-3.7-4.1-6.9-7.8-7.5-12.3c-0.5-3.6,0.7-7.2,2-11
		c0.6-1.8,1.2-3.6,1.6-5.4C128.4,27.4,128.6,23.4,127.9,19.5 M123.8,12.3c2.6,5.8,3.2,12.2,1.8,18.4c-1.4,5.8-4.5,11.3-3.6,17.2
		c0.7,5.2,4.4,9.5,8,13.3c4.4,4.8,9,9.7,15.1,11.9c3.5,1.3,7.5,1.6,10.6,3.6c4.5,2.8,6.3,8.3,7.3,13.6s1.2,10.8-0.3,16
		s-5.2,9.9-10.2,11.8c-2.5,1-5.3,1.2-7.6,2.7c-3.2,2.1-4.5,6.2-7.4,8.7c-2.3,1.9-5.2,3-8.2,2.8c-2.7,0-5.4-0.6-7.9-1.7
		c-5.2-2.2-9.7-5.9-14.9-8.3c-5.6-2.5-11.7-3.7-17.9-3.5c-4.5,0.1-8.9,0.5-13.3,1.2c-10.3,1.6-20.6,4.3-31,4.3H44
		c-10.6-0.1-21.8-3.5-28.2-11.9C9.6,104.6,9,93.6,9.3,83.4c0.1-2.2,0.2-4.3,0.3-6.5c-5.2,3.9-8.6,10.2-8,20c0,0-9.2,42,24.9,49.9
		c7.2,1.7,14.7,2.5,22.1,2.6c10.8,0,19.2-1.7,26.5-1.7c5.9,0,11.1,1.2,16.3,5.4c7.2,5.9,22.4,11.4,38,11.4c14.8,0,30-4.9,39.3-19.1
		c3-4.6,6.8-8.5,11.3-11.8c7.5-5.5,17.1-18.3,6.8-45.7c-4-10.7-13.4-18.4-24.7-20.1l-0.6-0.1c-7.3-1-13.2-6.3-15-13.5
		C143.4,41.9,136.9,24,123.8,12.3L123.8,12.3z"/>
	<path class="st0" d="M81.1,224.3c1.5-5,8.8-29.7,10.9-52.1c1.9-20.8,2.6-36.4,2-47.8v-0.2l-0.1-0.2l-0.5-0.8
		c-0.5-0.8-1-1.6-1.7-2.5c-1.2-1.6-2.5-3.2-3.8-4.7c-2.8-3-5.8-5.7-9.1-8.2c-1.5-1.1-3.1-2.2-4.7-3.2c1.7,0.8,3.4,1.7,5.1,2.7
		c3.6,2.1,7,4.6,10.1,7.3c0.8,0.7,1.6,1.4,2.3,2.2l2.1,2.1l-0.3-2.9c-0.3-3-1-6-2.2-8.8c-1.3-2.2-2.7-4.3-4.2-6.3
		c-1-1.4-2.2-2.9-3.4-4.7l-0.1-0.1L83.4,96c-3-2.9-6.1-5.5-9.5-7.9c-1.3-0.9-2.6-1.8-3.9-2.7c-1.3-0.8-2.5-1.6-3.8-2.3
		c1.3,0.5,2.6,1.1,4.1,1.8s2.9,1.4,4.3,2.2c0.4,0.2,0.8,0.4,1.1,0.6l3.2,1.8l-1.9-3.2c-8.9-14.9-14.2-31.8-15.4-49.2
		c1.4,7.6,3.3,15.1,5.7,22.5l1.2,3.5l0.8-3.6c0.7-3.4,1.8-6.7,3.2-9.8c-3.5,11.5-2,18-1.9,18.3v0.2c1.1,2.4,2.3,4.7,3.6,7
		c4,6.4,8.4,12.5,13.1,18.3c3.7,4.7,6.9,8.8,8.9,12.5l1,1.8l0.8-1.8c1.2-2.7,2.5-5.4,3.8-8.1c3-6.2,5.9-11.8,8.7-17.1
		c0.5-0.9,1-1.8,1.5-2.7l0.1-0.1l0.1-0.3c0.5-1.8,0.9-3.6,1.1-5.4l-0.1,3.8l1.7-3c-1.2,2.4-2.4,5.1-3.7,8l-1.5,3.2l2.2-0.7l2.2-0.7
		c-1.1,0.4-2.2,0.9-3.3,1.4l-0.2,0.1l-0.4,0.2l-0.6,0.3l-0.1,0.3c-1.8,4.2-3.7,8.6-5.6,13.4c-1.3,3.2-2.4,6.1-3.5,9
		c-0.6,1.4-1.1,2.9-1.6,4.4l-0.1,0.2v1.4c-0.1,2.6-0.2,8.8-0.3,16.6v1.7l1.5-0.8c11.3-6,20.8-6.8,29.1-7.6l1.9-0.2
		c1.7-0.1,3.4-0.3,5.1-0.4h0.2l0.3-0.2l-0.2,0.2l1-0.1c-2.2,0.3-4.4,0.7-6.5,1l-3,0.5c-5.6,0.9-17.3,2.7-28.5,10.4l-1,0.7v0.5
		c-0.2,20,3.2,83.2,7.2,90.9c0.5,1,0.7,1.7,0.4,2.2s-1.4,0.8-3,0.8C96.5,229.6,84.5,225.4,81.1,224.3z"/>
	<path class="st1" d="M69.3,64.6c0,1.2,0.2,2.4,0.4,3.6v0.2l0.1,0.2c1.1,2.4,2.3,4.8,3.7,7.1c4,6.4,8.4,12.6,13.2,18.4
		c3.2,3.9,6.2,8,8.8,12.3l1.9,3.5l1.7-3.6c1-2.2,2.1-4.5,3.2-6.8c-1,2.6-2,5.1-2.9,7.5c-0.5,1.4-1.1,3-1.7,4.5l-0.1,0.4v1.5
		c-0.1,2.6-0.2,8.8-0.3,16.6l-0.1,3.4l3-1.6c3.1-1.6,6.2-3,9.5-4.1c-3.9,1.6-7.6,3.6-11.1,5.9c-0.2,0.1-0.3,0.2-0.5,0.3l-0.1,0.1
		l-0.8,0.6v1c-0.2,20.6,3.2,83.4,7.3,91.4c0.2,0.4,0.4,0.8,0.4,1.2c-0.7,0.3-1.4,0.4-2.1,0.3c-5.7,0-16.2-3.6-20.3-5.1
		c2-6.6,8.7-30.1,10.7-51.4c1.9-20.8,2.6-36.4,2-47.9v-0.5l-0.3-0.4c-0.2-0.3-0.3-0.5-0.5-0.8c-0.5-0.8-1-1.6-1.7-2.6
		c-1-1.4-2.1-2.8-3.3-4.1l1.6,1.5l4.2,4.2l-0.8-5.8c-0.3-3.1-1.1-6.2-2.3-9.1c-1.3-2.2-2.7-4.4-4.3-6.4c-1-1.4-2.1-2.9-3.3-4.6
		l-0.1-0.2l-0.1-0.1c-1.8-1.7-3.6-3.4-5.6-5l3.3,1.8L78,85.7c-3.6-6.1-6.7-12.5-9.1-19.2L69.3,64.6 M60.5,23
		c-1.2,22.3,4.3,44.5,15.7,63.7c-0.4-0.2-0.8-0.4-1.2-0.6c-1.4-0.8-2.9-1.5-4.3-2.2c-5.8-2.8-12.1-4.6-18.5-5.2
		c6.2,1.4,12,4,17.2,7.5c1.3,0.9,2.6,1.7,3.9,2.7c3.3,2.4,6.4,5,9.3,7.8c3.6,5.1,6.5,8.7,7.5,10.8c1.1,2.7,1.8,5.6,2.1,8.5
		c-0.8-0.8-1.6-1.5-2.3-2.2c-3.2-2.8-6.6-5.3-10.3-7.4c-7.2-4.1-15.1-7-23.3-8.5c7.9,2.3,15.3,5.9,22,10.7c3.3,2.4,6.3,5,9,8
		c1.3,1.5,2.6,3,3.7,4.6c0.6,0.8,1.1,1.6,1.6,2.4l0.4,0.8c0.7,14.2-0.6,33-2,47.6C88.8,197.1,80,224.8,80,224.8s15.3,5.8,22.8,5.8
		c3.4,0,5.2-1.1,3.5-4.5c-3.7-7.2-7.3-68.9-7.1-90.5c0.2-0.1,0.4-0.3,0.6-0.4c11.9-8.2,24.2-9.6,29.3-10.4c3.5-0.6,7-1.1,10.5-1.7
		l0,0c1.9-0.1,7.1-0.2,9.5-0.2h0.5c2.1,0,4.1,0.1,6.2,0.3s4.2,0.4,6.2,0.7c2,0.3,4,0.8,6,1.4c-2-0.8-4-1.4-6-1.8
		c-2-0.5-4.1-0.9-6.1-1.2s-4.1-0.5-6.2-0.7l-1.7-0.1c2.8-0.7,5.5-1.6,8.1-2.6c2.9-1.1,5.5-2.8,7.9-4.8c-2.4,1.9-5.2,3.3-8.1,4.2
		c-2.9,0.9-5.9,1.7-8.9,2.2c-2.8,0.5-5.5,0.8-8.3,1.1c2.5-2.9,4.3-6.4,5-10.1c0.3-1.5,0.5-3,0.5-4.6c-0.2,1.5-0.5,3-0.9,4.4
		c-0.5,1.4-1.1,2.8-1.8,4.1c-1.1,1.9-2.5,3.7-4.1,5.2c-0.5,0.4-1,0.8-1.5,1.2l-0.1,0.1c-2.3,0.2-4.7,0.4-7,0.6
		c-8.3,0.7-18.1,1.6-29.5,7.7c0.1-7.9,0.3-14.2,0.3-16.8c0-0.4,0-0.7,0-1.1l0,0c0.5-1.5,1.1-3,1.6-4.5c1.1-3,2.3-5.9,3.5-8.9
		c1.8-4.5,3.7-9,5.7-13.4l0.3-0.2l0.7-0.3c3.5-1.6,7-3,10.6-4.1c4.2-1.3,8.5-2.4,12.8-3.3c-5.3,0.7-7.4,0.9-13,2.1
		c-3.4,0.7-6.7,1.6-10,2.7l0.5-1.1c1.3-2.9,2.6-5.8,4-8.7c1.4-2.9,2.8-5.7,4.3-8.5s3.1-5.6,4.7-8.3c1.6-2.7,3.4-5.4,5.4-7.9
		c-2.1,2.4-4.1,4.9-5.9,7.6c-1.8,2.6-3.6,5.3-5.3,8s-3.3,5.5-4.9,8.3l-0.1,0.1v-1c0-2.1,0-4.1-0.1-6.1c-0.2-4-0.7-8-1.5-11.9
		c0.4,4,0.5,7.9,0.3,11.9c-0.1,2-0.3,3.9-0.5,5.9c-0.2,2.3-0.7,4.5-1.3,6.7l-1.5,2.8c-3,5.7-5.9,11.4-8.7,17.1
		c-1.3,2.7-2.6,5.4-3.8,8.2C93,97.5,83.5,88,75.2,74.6c-1.3-2.2-2.5-4.5-3.6-6.8c0,0-2.6-10.2,5.9-28c0.7-1.3,1.4-2.5,2.1-3.8
		c-0.8,1.2-1.7,2.3-2.5,3.5C73,45.9,70,51.7,68.4,59.3C62.6,42.1,60.6,23,60.5,23L60.5,23z"/>
</g>
<g id="Layer_2">
	<path class="st2" d="M99.2,158.1c-0.2,20,2.4,60.9,6.3,68.6c0.5,1,0.7,1.7,0.4,2.2s-1.4,0.8-3,0.8c-6.3,0-18.2-4.2-21.7-5.4
		c1.5-5,8.8-29.7,10.9-52.1c1.9-20.8,1.6-6.5,1-17.9"/>
	<path class="st2" d="M98.2,158c-0.2,20.6,2.4,61.1,6.5,69.1c0.2,0.4,0.4,0.8,0.4,1.2c-0.7,0.3-1.4,0.4-2.1,0.3
		c-5.7,0-16.2-3.6-20.3-5.1c2-6.6,8.7-30.1,10.7-51.4c1.9-20.8,1.6-6.6,1-18.1"/>
	<path class="st2" d="M92.4,154.2c0.7,14.2,0.3,3.1-1,17.8c-2.3,25.1-11.1,52.8-11.1,52.8s15.3,5.8,22.8,5.8c3.4,0,5.2-1.1,3.5-4.5
		c-3.7-7.2-6.4-46.6-6.2-68.1"/>
</g>
</svg>
