<svg id="Layer_1" data-name="Layer 1" xmlns="http://www.w3.org/2000/svg" width="290.466" height="169.471" viewBox="0 0 290.466 169.471"><defs><style>.cls-1{fill:#fff;fill-rule:evenodd;}.cls-2{fill:#235d2f;}</style></defs><path class="cls-1" d="M33.88,109.611c.391.013.349.265.332.589C33.932,110.214,33.935,109.877,33.88,109.611Z" transform="translate(-19.854 -44.902)"/><path class="cls-1" d="M42.31,129.753c.316.023.558-.079.587.472-.16.006-.174.129-.344.127A1.473,1.473,0,0,1,42.31,129.753Z" transform="translate(-19.854 -44.902)"/><path class="cls-1" d="M87.406,145.742c.187-.158.147-.2.041-.451.18-.056.24.035.363.05-.006.21-.1.346-.022.627C87.514,146.076,87.58,145.759,87.406,145.742Z" transform="translate(-19.854 -44.902)"/><path class="cls-1" d="M40.3,180.294a.489.489,0,0,0-.05.362l-.265.029c-.026-.1,0-.159.069-.186-.067-.083-.212-.068-.2-.245C40.03,180.015,40.023,180.368,40.3,180.294Z" transform="translate(-19.854 -44.902)"/><path class="cls-1" d="M40.911,181.031l-.353.038c-.1-.072-.063-.323-.293-.237.023-.142.269-.1.138-.371.086-.007.08.1.107.167C40.618,180.794,40.915,180.724,40.911,181.031Z" transform="translate(-19.854 -44.902)"/><path class="cls-1" d="M39.41,182c-.025-.072.025-.086.078-.1l.177-.02c-.166.311.225.369.067.617C39.287,182.643,39.547,181.985,39.41,182Z" transform="translate(-19.854 -44.902)"/><path class="cls-1" d="M33.7,108.738c.119-.691-1.7-1.149-.563-1.9-1.086-2.646-3.127-10.592.511-11.743a4.862,4.862,0,0,1,4.5,1.207c1.317,2.016,2.733,5.135,2.143,8.244.331,1.285-.452,2.3-1,3.141.307.616.868.6.858,1.335,0,.291-.362.473-.453.763-.26.834.038,1.739-.113,2.243-.181.345-.2-.346-.391-.315-.179.167.068.474-.324.3.4.608.043,1.323.554,1.813-.325.374-.267.563-.229,1.186-.184.061-.181-.108-.2-.246-.257.559.313,1.183.377,1.833-.309.42-.747.812-1.168.751-.133.433-1.051.848-1.365,1.4-.267.033-.363-.149-.558-.207-.074-.567.286-1.13-.32-1.3.219-.625-.241-1.418-.386-1.921a.244.244,0,0,1,.245-.2c-1.259-1.288-1.561-2.956-1.682-4.814" transform="translate(-19.854 -44.902)"/><path class="cls-1" d="M70.1,111.215c.4.092.147.994-.091.813-.23.106.253.139.136.431-.178-.047-.219.54-.178.823a.417.417,0,0,0-.274-.06c.588.4-.586.872-.112,1.44-.274.02-.221.3-.6.243.293.144.3.835.2,1.049a1.107,1.107,0,0,1,.153,1.411,4.482,4.482,0,0,1-.1,4.829c.206.86-.442,1.667-.82,2.319.174.307.11-.219.343-.126.255.309-.2.733-.121,1.351-.216-.013-.174.182-.431.136.044.438-.237.615-.15,1.088-.377-.3-.465.095-.608.155-.21-.14-.6-.059-.586-.472-.193-.021-.154.143-.148.283a7.789,7.789,0,0,1-1.251-.846c-.276-.06-.136.214-.139.373a.729.729,0,0,1-.646-.2c-.235,0-.207.209-.226.381-.2-.3-.124-.173-.45-.04.063-.534-.339.065-.3-.324-.146.1-.128.326-.217.469a3.982,3.982,0,0,1,.214-2.967c-.246.005-.063-.076-.146-.52a.417.417,0,0,0,.274.06c-.459-.447.161-.334.071-.99-.191.034-.165.243-.128.461a1.73,1.73,0,0,1-.339-1.481c.067-.746.486-.887-.015-1.782.022.039.122-.067.078-.1-.062-.265.3-.185.315-.391a4.735,4.735,0,0,1-.473-2.715c.718-.227.833-.939.887-1.7.254-.143.48-.31.755-.439-.224-.155-.479-.272-.6-.56-.007-.273.148-.416.2-.646a23.732,23.732,0,0,1-.253-8.091,1.636,1.636,0,0,0-.322-.5,15.61,15.61,0,0,1,.622-9.079c.87-1.937,1.486-3.691,4.311-3.858,1.619-.1,3.37,1.936,3.908,3.948.728,2.723.8,6.662-.239,8.5-.108.192-.474.35-.648.605a6.5,6.5,0,0,1-1.355,1.485,4.624,4.624,0,0,1-.19,4.839.243.243,0,0,1,.039.353C70.294,111.343,70.341,111.181,70.1,111.215Z" transform="translate(-19.854 -44.902)"/><path class="cls-1" d="M36.753,171.488m-1.521-2.511c.3-.322-.461-.913-.144-1.323-.4-.112-.132-1.19-.574-1.187.155-.252.257-1.01-.194-.961a2.622,2.622,0,0,0-1.071-2.471c-.069-.191.155-.144.148-.284-.286-.263-.331-.429-.744-.276a.244.244,0,0,1,.245-.2c-.387-.149-.956-.39-.731-.991-.969-.769-.732-2.239-1.088-3.451-.245-.833-.887-1.278-.857-2.138.1-2.9-1.713-6.532-1.562-9.467a10.477,10.477,0,0,1,.231-1.988c.193-.743.86-1.275,1.112-2.083s.031-1.726.722-2.4a.731.731,0,0,1-.067-.618c-.147-.162-.34.176-.3-.324-.176.02-.353.038-.529.057.071-.451-.028-1.136-.625-.823.081-.4-.143-.419-.567-.3,0-.1-.037-.155-.107-.167-.087-.231.163-.19.236-.294-.364.128-.419-.4-.851-.442-.017-.228.33-.164.314-.392-.153-.388-.24.181-.451-.04.1-.362-.5-.684-.086-.794a.45.45,0,0,0-.293-.235c-.406.015.279.589-.2.646.186-.288-.331-.836-.125-1.147-.191-.127-.111.02-.352.038.124-.744-.894-.488-.468-1.019-.105-.253-.11.219-.344.126a9,9,0,0,0-1.151-1.57c-.057-.314.23-.352.2-.647-.088-.225-.433-.128-.568-.295.219-.284-.128-.428-.243-.6-.257-3.184-2.255-4.854-1.977-8.351a3.875,3.875,0,0,0-.478-.305c-.693-2.3-2.51-5.517-1.576-7.949-.226-.326.012-.875-.153-1.411a2.732,2.732,0,0,1,3.365-1.881,3.753,3.753,0,0,1,2.894,2.005c.232.5.638.96.976,1.59-.121.486-.1,1.36.338,1.48a.242.242,0,0,1-.147.284c.046.225.138-.138.352-.039a14.6,14.6,0,0,1,.335,3.087c-.53.365-.559,1.578-1.1,2.172a.744.744,0,0,0,.5.482c.134-.054.045-.286.333-.216.843.388.643,1.881,1,2.658-.018.126-.154.024-.186-.069-.243.213.168.451.086.794-.14.04-.161-.068-.274-.061-.092.685.392,1.178.339,1.481.105.252.11-.219.343-.126.258.759-.453,1.711.337,2.283a2.919,2.919,0,0,1,2.568,3.112c-.048.164-.159.03-.265.029.493,1.806-1.074,2.825-.265,4.133-.3.171-.086-.294-.294-.237-.02.166.226.5-.1.726.2-.167.594.051.92.256-.019.461.225.654.105.971a11.072,11.072,0,0,0,2.729,1.31c.558.12.71-.376,1.1-.566a22.816,22.816,0,0,1,3.136-.7,1.31,1.31,0,0,1,.361.853c.322-.214.332-.181.627.021-.261-.309.13-.329.333-.214-.07-.152.219-.4-.048-.442-.126.054.047.11.029.265-.174-.018-.106-.335-.381-.226-.127.052.047.109.029.264a.579.579,0,0,0-.451-.041c.11-.18.427-.437.589-.33-.393-.47-.131-.01.03-.539a1.447,1.447,0,0,1,.763.453,3.676,3.676,0,0,1,.3-.568c.078-.3-.293-.036-.215-.334A3.953,3.953,0,0,1,42.2,136.1c.188.066.227.318.243.6.349.093-.026-.4.324-.3.085.41.123.581.605.648.047-.291-.165-.261-.3-.324.264-.2-.051-.451.383-.577-.086-.193.084-.705-.243-.6.2-.378.469-.1.8,0-.052-.2-.1-.407-.391-.315-.024-.242.394-.254.52-.145a1.781,1.781,0,0,0,.836-1.339c1.349-.736.982-2.633,3.19-2.666.574-.009,1.242.153,1.736-.456-.142-1.08-.254-2.136.535-2.467.091.658.244.625.556,1.01-.059.282-.166-.175-.283-.148a1.721,1.721,0,0,0,.269,1.666c-.2-.328.061-.831-.1-.969-.061-.076.519-.125.46.127.367-.164.289-.369.7-.164.028.157-.088.2-.05.362a4.835,4.835,0,0,1,3.19,1.439,2.234,2.234,0,0,1,.864-1.075c1.008.224,1.143-1.028,2.481-.983.47.016.953.432,1.478.464.859.054,1.828-.593,2.636-.374.739.55,1.411,1.415,2.358,1.171.1.242-.1.242-.04.45.281.013.348-.148.412-.312.185,0,.066.385.224.422.437-.373,1.061.3,1.409.65-.09.359-.255.942.193.961.43,2.151.82,3.6.212,5.241.7,1.127-.3,2.746-.4,3.7-.387.2-.4.7-.8.89a2.085,2.085,0,0,1-1.053,1.809,8.712,8.712,0,0,1-.986,2.427c.707.542,2.584-.128,2.661,1.495.461.461,1.27.49,1.79.877a9.431,9.431,0,0,1,6.722,2.751c.114.333-.18.337-.207.557.057.164.214.2.225.422-1.026,1.783.756,1.675,1.54,2.689.189.3.767.113.782.628a5.333,5.333,0,0,1,2.708,1.938c.98-.184,1.009.814,1.712.974a3.439,3.439,0,0,0-.033,1.342c.484.4,1.076.479,1.28,1.11.312.962-.41,1.8-.516,2.644-.288.036-.31.287-.687.252.363.145.222.438.37.942-.376.234-.551.629-.981.82.02.208.18.243.145.52-.4.991-1.021,1.806-1.389,2.827-.617.15-.791.694-.523,1.752-.819,1.729-1.247,3.773-2.961,4.782-.414,1.518-1.487,2.507-2.273,3.727-.221.01-.258.167-.422.224-.895.7-1.616,2.059-3.112,2.567a46.372,46.372,0,0,1-6.363,2.207,19.73,19.73,0,0,1-4.135.538,11.456,11.456,0,0,1-3.8-.48c-2.59.166-4.44,1.572-6.559,2.049-.737.166-1.417-.024-1.794.73-1.094.022-2.165.383-2.939.052-.021-.01.1-.152.069-.187-.371-.356-1.2-.624-1.81-1.052a10.536,10.536,0,0,1-3.078-2.879.451.451,0,0,1,.236-.293c-.273-.372-1.523-.752-.575-1.187-.213.294.259.344.411.491-.207-.25-.123-.241-.165-.7-.177.072-.591-.046-.608.156a1.087,1.087,0,0,1-.057-.53,1.431,1.431,0,0,1-.792-.718c-.087.2-.3.293-.3.569-.5-.432-1.585-1.031-1.111-2.022.616.068.775.7,1.262.934a4.626,4.626,0,0,0-.821-.982c.045-.239.4-.58-.066-.617.022-.443.681.123.579-.419-.12-.039-.425.019-.117-.255-.074-.088-.267.018-.46-.129.034-.194.533-.142.617-.068-.189-.34-.553-.186-.8,0,.231-.158-.229-.374.138-.372-.143-.294-.274-.135-.47-.217.047-.095.193-.113.148-.284-.743-.012-.6-1.4-.945-2.128l.265-.029c-.025-.1-.169-.056-.274-.059,0-.157.13-.217.333-.214-.28-.018-.3-.359-.5-.482a.486.486,0,0,1,.315-.391c-.229.224-.877-.784-.282-.951a4.271,4.271,0,0,1-1.6-3.217m.432-.136-5.636-32.223A.415.415,0,0,1,29.8,137c-.122-.015-.183-.108-.363-.05C29.439,137.182,29.513,137.325,29.742,137.273Zm22.872,15.1c-.017,1.275-1.046,1.735-1.495,2.661-.533.323-1.056.654-.906,1.526.822-.183.314.81.889.795a.461.461,0,0,0-.491.411c.4.257.719.575,1.371.3a1.3,1.3,0,0,1-.092,1.617c.294.189.109.351.252.686.279.036.144-.261.422-.224.285.169-.106.6.244.6.3-.757.932-2.241,2.061-1.562a2.149,2.149,0,0,1,.729-1.507c-.7-1.293.471-1.635.878-2.593.113-.265-.016-.584.091-.813.078-.17.32-.224.4-.4.112-.237.034-.534.189-.734.342-.444,1.013-.55,1.041-1.094C56.677,150.934,54.276,152.494,52.614,152.369Zm-1.892,8.058c.142.089.174.318.312.412a4.258,4.258,0,0,0,.405-1.2c-.23-.212-.21.26-.44.047-.216-.393.307-.6,0-.8C50.645,159.339,50.852,159.768,50.722,160.427Zm6.165,9.949c-.174-.3-.14-.629-.263-.775C56.5,169.8,56.605,170.366,56.887,170.376Zm-8.254,16.866c-.152.041-.467-.2-.529.057C48.315,187.384,48.519,187.512,48.633,187.242Z" transform="translate(-19.854 -44.902)"/><path class="cls-1" d="M50.853,122.136c.052.126.109-.047.265-.03-.119.682.094.93,0,1.7-.163-.219-.222-.566-.41-.492-.183.046.153.222-.051.363-.142-.016.061-.164-.107-.167-.214.123.11.678-.09.813.291.047.261-.166.324-.3.256.423.345,1.954-.2,2.253a.885.885,0,0,1,.043-1.255c-.729-1.153-.472-2.954-.781-4.733a12.935,12.935,0,0,1-.162,1.8,2.581,2.581,0,0,1-.317-2.107c-.27.13.005-.487-.342-.677.346-1.759-.627-3.861.211-5.465,1.428-.215,1.818-1.239,3.7-1.293.135.227.364.182.233.509a2.72,2.72,0,0,1,2.63,2.036,16.407,16.407,0,0,0,.063,2.224,2.294,2.294,0,0,0-.446,1.654,7.692,7.692,0,0,0-1.252,3.258c-.3.045-.19-.431-.49-.392-.072.062-.145.123-.175.018-.284.106.009.5-.179.823-.377.034-.246-.563-.517-.658-.356.292-.54,1.012-1.257.761.039.319.488.128.656.286a3.893,3.893,0,0,1-.1,1.528c-.969-.749-.489-2.347-1.236-3.168-.215.139-.157.449.215.334C51,121.881,51.032,122.091,50.853,122.136Z" transform="translate(-19.854 -44.902)"/><path class="cls-1" d="M41.227,128c.256.057.337.008.127.343.09.169.346-.2.51-.233-.12-.152-.475-.01-.4-.4.27.354.162-.067.431-.136a1.5,1.5,0,0,0,.546.923c.082.4-.49.281-.491.409-.134-.11-.237-.415-.146-.519-.247-.038-.157.194-.333.214.025.1.169.057.274.06-.134.186-.151.468-.286.655-.341-.084-.384.133-.774.262A3.208,3.208,0,0,0,40.336,128a.247.247,0,0,0-.148.285c-1.038-1.346-2.207-2.527-3.349-3.742-.43-.981-1.494-2.636-.666-3.675.035-.278-.261-.143-.225-.422.239-.465.683-.674.679-1.144a1.015,1.015,0,0,0,1.1-.566c.273-.106.288.11.46.129a.792.792,0,0,0,.314-.391c1.307-.213,1.665.287,2.506.888a3.278,3.278,0,0,1,1.793,3.375,7.523,7.523,0,0,0-.476,2.192c-.427.382-.484,1.06-.915,1.438.117.336.293-.327.353-.038-.264.577-.017.718.036,1.156-.1-.048-.113-.193-.284-.148C41.128,127.443,41.5,127.979,41.227,128Z" transform="translate(-19.854 -44.902)"/><path class="cls-1" d="M88.286,135.743c0-.1.083-.059.088-.009.1-.282.2-1.046-.046-1.245.284-2.129,2.511-2.4,3.889-3.634,1.026-.92,1.988-1.986,3.5-2.253,1.721-.3,3.891.8,4.255,2.215.827,3.22-1.535,5.384-2.567,7.595a15.749,15.749,0,0,1-4.3,7.247l-.441.048c-.328,1.928-3.2,1.954-4.716,1.76-.1.192-.256.576-.589.332.166-.575-.536-1.25.25-1.812.309.214-.251.315.057.53.166-.054-.036-.405.324-.3-.215-.376,0-.636.15-1.087.011-.282-.249-.225-.391-.315.156-.142.113-.445.2-.646a5.666,5.666,0,0,1-.587-3.773c.139.061.159.271.225.422.379-.135.064-.41.2-.646-.091-.27-.247-.09-.45-.04-.023-.206-.045-.411-.067-.618.15-.183.22-.033.44-.047a.386.386,0,0,0-.371-.138c-.06-.209.14-.21.04-.451.357-.066.067.178.126.343l.265-.029c.136-.373.144-.26.09-.813a.413.413,0,0,0,.274.06c0-.152-.175-.212-.028-.264-.275.285-.51-.8-.156-.608-.1-.178-.3-.232-.321-.5.388.017.155-.466.579-.42C87.784,136.25,88.751,135.905,88.286,135.743Z" transform="translate(-19.854 -44.902)"/><path class="cls-1" d="M54.624,100.135c1.573,1.044.777,3.9.514,5.565a.493.493,0,0,1-.343.125c.066.085.213.07.2.246a1.664,1.664,0,0,0-.729,1.507c-.241.155-.543.261-.56.6-.232.089.018-.423-.215-.333a3.121,3.121,0,0,1-.168.91c-1.594.269-2.309-.653-3.593-1.038.1.436.733.652.565,1.1-.217.267-.1-.121-.283-.148-.248.542.264,1.2-.289,1.458a7.573,7.573,0,0,1-.3-2.734c.168-.008.093.287.293.237a10.506,10.506,0,0,1-.5-2.98c-.091-.12-.107-.333-.381-.226a26.151,26.151,0,0,1-.078-4.006,3.956,3.956,0,0,0-.076-.706c-.364-2.353-1.249-4.835-1.156-7.37.1-2.858.727-6.471,3.671-6.465a5.3,5.3,0,0,1,4.928,3.481,15.146,15.146,0,0,1-.526,9.961A4.944,4.944,0,0,0,54.624,100.135Z" transform="translate(-19.854 -44.902)"/><path class="cls-1" d="M226.97,69.141c.563.265.344.606.116,1.069C226.668,70.054,226.884,69.564,226.97,69.141Z" transform="translate(-19.854 -44.902)"/><path class="cls-1" d="M226.658,103.873c.448.232.865.234.562,1.057-.237-.091-.335.079-.581-.029A2.316,2.316,0,0,1,226.658,103.873Z" transform="translate(-19.854 -44.902)"/><path class="cls-1" d="M282.551,155.534c.371-.115.341-.2.342-.633.3.03.329.2.5.3-.14.3-.369.441-.425.9C282.5,156.089,282.794,155.668,282.551,155.534Z" transform="translate(-19.854 -44.902)"/><path class="cls-1" d="M192.011,176.49a.787.787,0,0,0-.3.5l-.405-.123c.026-.164.1-.232.218-.229-.046-.164-.268-.234-.146-.487C191.8,175.916,191.566,176.427,192.011,176.49Z" transform="translate(-19.854 -44.902)"/><path class="cls-1" d="M192.448,177.953l-.541-.165c-.105-.171.111-.511-.279-.53.122-.194.458.016.434-.456.131.043.054.2.053.31C192.167,177.424,192.646,177.508,192.448,177.953Z" transform="translate(-19.854 -44.902)"/><path class="cls-1" d="M189.647,178.421c.01-.121.091-.11.176-.091s.18.055.27.082c-.436.35.1.681-.289.944C189.063,179.291,189.855,178.492,189.647,178.421Z" transform="translate(-19.854 -44.902)"/><path class="cls-1" d="M227.25,67.75c.607-.936-1.766-2.747.369-3.134.074-4.548,2.074-17.444,8.114-16.846a7.739,7.739,0,0,1,5.825,4.589c.659,3.774.773,9.222-2.039,13.4-.322,2.086-2.1,3.078-3.428,3.966.063,1.094.89,1.427.417,2.49-.188.423-.826.464-1.14.831-.9,1.057-1.037,2.566-1.573,3.208-.481.391-.072-.63-.374-.706-.367.132-.2.737-.664.24.207,1.142-.766,1.961-.328,3-.709.343-.743.655-1.077,1.589-.308-.026-.2-.271-.146-.488-.727.657-.285,1.927-.6,2.917a2.322,2.322,0,0,1-2.178.365c-.468.549-2.069.579-2.872,1.185-.412-.12-.437-.445-.686-.652.248-.875,1.126-1.472.351-2.107.711-.777.536-2.224.639-3.05a.39.39,0,0,1,.488-.146c-1.033-2.672-.429-5.3.561-8.092" transform="translate(-19.854 -44.902)"/><path class="cls-1" d="M278.912,94.206c.523.384-.408,1.546-.642,1.132-.4.011.282.362-.072.716-.231-.182-.659.652-.777,1.09a.666.666,0,0,0-.363-.259c.612.948-1.4.908-1.067,2.035-.413-.143-.514.306-1.026-.02.339.394-.086,1.408-.361,1.661a1.763,1.763,0,0,1-.662,2.158,7.13,7.13,0,0,1-3.176,7c-.239,1.387-1.691,2.16-2.653,2.877.061.557.3-.252.581.029.179.613-.759.945-1.025,1.9-.308-.155-.368.158-.715-.072-.211.668-.733.751-.9,1.5-.366-.667-.739-.152-.986-.155-.219-.335-.836-.46-.561-1.057-.269-.152-.315.113-.394.322a12.582,12.582,0,0,1-1.3-2.022c-.365-.26-.332.227-.436.458a1.156,1.156,0,0,1-.82-.695c-.344-.15-.434.175-.571.415-.1-.569-.072-.331-.632-.341.427-.74-.536-.117-.24-.664-.274.051-.392.4-.61.551a6.339,6.339,0,0,1,2.173-4.2c-.362-.146-.045-.15.112-.852a.662.662,0,0,0,.364.26c-.391-.941.444-.386.724-1.4-.3-.071-.394.251-.476.592a2.749,2.749,0,0,1,.433-2.377c.566-1.049,1.268-.992,1.1-2.614.008.07.22-.022.177-.095.075-.426.56-.078.7-.374a7.529,7.529,0,0,1,1.012-4.265c1.192.118,1.806-.851,2.363-1.932.462-.05.9-.152,1.379-.168a2.146,2.146,0,0,1-.52-1.192c.162-.4.478-.516.694-.821a37.733,37.733,0,0,1,4.706-11.987,2.65,2.65,0,0,0-.156-.934,24.825,24.825,0,0,1,6.6-12.881c2.487-2.287,4.488-4.464,8.722-2.936,2.427.876,3.712,4.944,3.236,8.223-.643,4.437-3.009,10.241-5.682,12.279-.278.213-.913.216-1.327.479a10.408,10.408,0,0,1-2.913,1.321c.576,2.32-1.39,6.135-3.313,6.954a.385.385,0,0,1-.165.54C279.115,94.514,279.284,94.307,278.912,94.206Z" transform="translate(-19.854 -44.902)"/><path class="cls-1" d="M192.355,161.4m-.648-4.626c.637-.283-.1-1.624.62-2.024-.511-.412.553-1.823-.095-2.1.385-.27,1.009-1.314.318-1.525a4.167,4.167,0,0,0-.015-4.284c.019-.322.317-.113.4-.323-.253-.565-.215-.834-.915-.87a.39.39,0,0,1,.488-.145c-.473-.461-1.153-1.17-.448-1.909-.935-1.731.335-3.731.574-5.726.165-1.371-.5-2.425.089-3.663,1.968-4.166,1.593-10.623,3.655-14.818a16.674,16.674,0,0,1,1.585-2.762c.748-.966,2.057-1.324,2.933-2.348s1.127-2.5,2.558-3.053a1.161,1.161,0,0,1,.29-.944c-.112-.33-.608.044-.239-.664-.271-.082-.54-.165-.809-.248.387-.615.671-1.678-.4-1.6.368-.533.053-.7-.644-.788.07-.151.043-.25-.052-.311.018-.392.359-.176.529-.282-.611-.041-.363-.842-.966-1.181.119-.343.586-.032.705-.375.019-.663-.464.114-.634-.341.379-.464-.306-1.316.372-1.215a.719.719,0,0,0-.28-.528c-.6-.232.038,1.036-.694.821.453-.3.041-1.429.537-1.754-.2-.307-.175-.041-.539-.166.649-1.009-1-1.273-.044-1.784,0-.434-.3.251-.582-.031a14.3,14.3,0,0,0-.7-3.017c.114-.495.556-.37.695-.821.013-.384-.553-.46-.645-.788.5-.277.081-.706.019-1.026,1.622-4.816-.25-8.511,2.35-13.448a6.383,6.383,0,0,0-.508-.747c.431-3.8-.209-9.638,2.683-12.607-.126-.618.566-1.271.66-2.159,1.584-1.5,3.261-2.368,6.1-.639a5.971,5.971,0,0,1,2.974,4.747c.025.874.329,1.8.429,2.936-.482.635-1,1.926-.434,2.376a.386.386,0,0,1-.394.323c-.073.357.289-.115.54.164-.1,1.572-.985,3.161-1.448,4.722-1,.2-1.806,1.956-2.974,2.483a1.181,1.181,0,0,0,.427,1.017c.23.005.245-.389.623-.1.988,1.095-.241,3.151-.2,4.512-.1.175-.241-.06-.228-.216-.489.158-.038.764-.373,1.213-.23-.028-.193-.2-.363-.26-.564.943-.165,1.969-.433,2.377,0,.435.3-.25.581.032-.1,1.27-1.736,2.216-.94,3.548a4.644,4.644,0,0,1,1.8,6.161c-.173.209-.251-.056-.405-.125-.413,2.95-3.343,3.457-2.981,5.875-.543.063.059-.482-.28-.529-.134.229.018.868-.6,1,.4-.118.837.448,1.184.953-.317.661-.081,1.1-.455,1.484a17.592,17.592,0,0,0,3.168,3.628c.741.525,1.274-.1,1.961-.138,1.578-.073,3.034.7,5.021.949a2.075,2.075,0,0,1-.008,1.473c.6-.111.6-.055.9.424-.186-.615.4-.4.622-.1-.007-.266.567-.439.207-.675-.219,0,0,.19-.124.406-.243-.136.055-.557-.415-.571-.218,0,0,.189-.124.4a.919.919,0,0,0-.633-.341c.274-.2.9-.373,1.068-.115-.28-.934-.185-.1.382-.768a2.314,2.314,0,0,1,.832,1.141,5.743,5.743,0,0,1,.788-.645c.3-.385-.406-.237-.105-.623a6.286,6.286,0,0,1,2.261-.635c.234.214.132.607-.02,1.027.453.356.211-.595.665-.239-.134.652-.185.926.478,1.327.251-.4-.078-.485-.239-.664.512-.129.208-.691.923-.6,0-.336.564-.977.019-1.027.525-.428.75.144,1.173.507.049-.328.106-.658-.375-.7.116-.369.735-.125.851.114a2.83,2.83,0,0,0,2.062-1.434c2.435-.229,3.088-3.232,6.336-1.895.844.346,1.72,1,2.823.422.471-1.669.969-3.282,2.331-3.271-.28,1.019-.036,1.067.178,1.826-.263.374-.132-.361-.321-.4a2.739,2.739,0,0,0-.651,2.605c-.091-.606.611-1.176.454-1.484-.041-.149.838.145.593.476.64-.01.653-.358,1.12.2-.057.247-.252.234-.3.5a7.683,7.683,0,0,1,3.76,4.1,3.548,3.548,0,0,1,1.938-1.03c1.333.96,2.315-.786,4.244.12.677.317,1.122,1.229,1.869,1.605,1.222.618,3.043.28,4.089,1.106.734,1.269,1.174,2.954,2.711,3.192-.006.416-.3.292-.341.633a.6.6,0,0,0,.8-.2c.269.121-.145.6.063.757.873-.271,1.364,1.1,1.651,1.835-.356.468-.963,1.216-.32,1.525-.721,3.414-1.06,5.779-2.978,7.794.319,2.089-2.153,3.83-2.909,5.16-.69.047-1.022.769-1.722.8a3.32,3.32,0,0,1-2.674,1.984,13.9,13.9,0,0,1-2.964,2.93c.694,1.236,3.858,1.433,2.951,3.855.385.963,1.55,1.511,2.067,2.405,4.131,1.986,6.8,4.746,8.1,8.237-.043.558-.476.379-.653.685-.02.275.187.428.063.758-2.617,1.963.055,2.922.566,4.9.088.556,1.05.647.749,1.41a8.466,8.466,0,0,1,2.743,4.531c1.548.345.964,1.823,1.892,2.5a5.441,5.441,0,0,0-.89,1.941c.456.889,1.272,1.376,1.175,2.426-.149,1.6-1.732,2.38-2.413,3.54-.444-.127-.634.227-1.163-.061.44.439.049.779-.049,1.608-.7.106-1.2.574-1.949.583-.1.318.11.469-.114.852-1.21,1.2-2.627,2-3.8,3.261-1-.168-1.592.518-1.864,2.233-2.282,2.014-4.189,4.734-7.328,5.133-1.558,1.96-3.746,2.732-5.661,4.022-.329-.124-.481.083-.756.063-1.75.465-3.654,2-6.161,1.8-3.518-.274-6.844.052-10.686-.765a31.4,31.4,0,0,1-6.381-1.809c-1.586-.714-3.966-1.751-5.254-3.085-3.891-1.381-7.476-.486-10.873-1.118-1.182-.22-2.057-.924-3.081-.059-1.613-.654-3.405-.8-4.329-1.768-.025-.027.25-.156.218-.229-.319-.753-1.363-1.666-1.985-2.674a16.762,16.762,0,0,1-2.694-6.139.716.716,0,0,1,.53-.28c-.167-.715-1.755-2.054-.1-2.095-.5.3.163.664.292.974-.145-.5-.028-.429.2-1.121-.3,0-.836-.438-.987-.153a1.727,1.727,0,0,1,.249-.811,2.275,2.275,0,0,1-.708-1.545c-.252.236-.628.237-.788.645-.456-.943-1.672-2.5-.357-3.651.858.485.69,1.516,1.258,2.156a7.28,7.28,0,0,0-.583-1.95c.216-.322.942-.6.29-.944.311-.634.918.607,1.109-.25-.15-.131-.633-.239-.011-.446-.053-.174-.4-.141-.591-.477.172-.262.869.128.944.289-.062-.617-.692-.62-1.173-.506.437-.086-.1-.691.435-.458-.024-.519-.316-.368-.55-.611.129-.11.353-.045.393-.322-1.077-.485,0-2.425-.045-3.7l.405.123c.027-.165-.211-.188-.364-.258.1-.228.326-.237.622-.1-.4-.2-.217-.714-.426-1.017a.77.77,0,0,1,.7-.374c-.475.184-.79-1.7.185-1.567a6.8,6.8,0,0,1-.318-5.706m.716.073,11.976-50.64a.661.661,0,0,1,.259-.363c-.17-.1-.2-.271-.5-.3C203.184,106.659,203.2,106.913,203.57,106.981ZM227.534,143.4c-.824,1.853-2.617,1.879-3.855,2.951-.981.138-1.954.294-2.28,1.663,1.316.248-.051,1.381.8,1.72a.731.731,0,0,0-.975.293c.421.625.691,1.29,1.818,1.294a2.066,2.066,0,0,1-1.149,2.3c.311.461-.06.582-.062,1.161.385.228.374-.291.758-.063.31.426-.531.81-.019,1.028.916-.918,2.768-2.692,3.993-.991.555-.8,1.109-1.6,2.011-1.745-.21-2.327,1.713-2.095,2.91-3.24.331-.316.343-.863.642-1.132.222-.2.609-.127.84-.332.312-.278.384-.76.736-.956.779-.434,1.826-.168,2.209-.946C234.373,143.848,229.885,144.621,227.534,143.4Zm-7.82,10.591c.151.22.054.574.2.8a6.813,6.813,0,0,0,1.347-1.5c-.2-.454-.471.248-.674-.207-.069-.71.828-.689.507-1.173C220.284,152.35,220.317,153.107,219.714,153.988Zm2.77,18.411c-.067-.544.19-1.007.1-1.3C222.283,171.32,222.078,172.208,222.484,172.4Zm-22.645,19.477c-.247-.035-.557-.586-.809-.248C199.285,191.885,199.5,192.2,199.839,191.876Z" transform="translate(-19.854 -44.902)"/><path class="cls-1" d="M243.924,98.1c0,.218.189,0,.406.123-.6.922-.445,1.419-1.056,2.482-.1-.421.031-.966-.291-.976-.3-.048.085.421-.3.5-.2-.112.191-.2-.053-.311-.39.045-.265,1.06-.641,1.131.4.251.486-.079.663-.239.109.779-.721,3.073-1.708,3.167-.412-.659.293-1.692.85-1.807-.343-2.143,1.163-4.614,1.827-7.409-.524.715-.767,1.961-1.366,2.532a4.106,4.106,0,0,1,.857-3.279c-.476.021.314-.709-.074-1.2,1.609-2.356,1.5-6.039,3.736-7.858,2.223.582,3.435-.67,6.215.429.055.417.417.5.022.892,1.72.994,3.051,2.641,2.567,4.625-.214.878-1.29,2.485-1.3,3.289-.8.277-1.252,1.189-1.689,2.139a12.238,12.238,0,0,0-3.875,3.978c-.474-.125-.007-.75-.469-.881-.145.045-.29.088-.268-.083-.482-.023-.3.74-.777,1.09-.573-.186-.007-.976-.344-1.286-.7.2-1.424,1.141-2.314.325-.144.49.632.493.779.829a6.2,6.2,0,0,1-1.107,2.169c-.948-1.7.756-3.738.18-5.4-.4.068-.512.557.1.622C244.3,97.818,244.214,98.143,243.924,98.1Z" transform="translate(-19.854 -44.902)"/><path class="cls-1" d="M226.177,100.627c.338.244.488.222-.03.581.026.3.629-.072.892-.022-.08-.3-.688-.313-.333-.84.173.687.28,0,.716.072a2.381,2.381,0,0,0,.219,1.691c-.132.642-.892.105-.974.29-.127-.244-.087-.754.113-.85-.338-.21-.353.186-.622.1-.027.164.211.189.364.259-.314.188-.516.59-.83.779-.446-.338-.644-.048-1.3-.1a5.108,5.108,0,0,0,.474-2.511.391.391,0,0,0-.4.323c-.673-2.618-1.642-5.078-2.549-7.571-.013-1.7-.53-4.79,1.332-5.79.226-.384-.292-.372-.064-.757.641-.531,1.421-.557,1.711-1.247a1.61,1.61,0,0,0,1.96-.137c.466.016.352.34.591.476a1.265,1.265,0,0,0,.706-.374c2.043.508,2.253,1.463,3.1,2.87,1.037,1.713,1.923,2.987.5,6.058a11.971,11.971,0,0,0-2.072,2.907c-.864.289-1.372,1.246-2.239,1.528-.039.563.634-.3.54.166-.748.677-.475,1.037-.673,1.712-.11-.131-.043-.353-.321-.394C226.379,99.755,226.59,100.773,226.177,100.627Z" transform="translate(-19.854 -44.902)"/><path class="cls-1" d="M290.108,141.468c.073-.145.159-.033.135.042.325-.348.948-1.4.714-1.848,1.75-2.934,5.176-1.933,7.964-2.872,2.077-.7,4.152-1.657,6.534-1.1,2.706.636,5.187,3.608,4.83,5.908-.81,5.225-5.621,6.907-8.516,9.491a25.036,25.036,0,0,1-10.831,7.9c-.225-.07-.45-.137-.675-.206-1.689,2.612-5.9.848-8-.386-.262.22-.735.681-1.068.116.6-.736,0-2.164,1.5-2.492.316.507-.566.3-.25.81.278.025.2-.615.664-.24-.078-.684.4-.927.9-1.5.194-.4-.222-.484-.374-.7.318-.111.445-.581.694-.821-.327-1.4.235-3.821,1.508-5.884.165.175.062.495.064.758.64.04.352-.56.693-.821.037-.451-.305-.287-.632-.342q.144-.471.289-.944c.334-.174.343.089.674.207-.033-.209-.211-.339-.457-.435.044-.342.337-.219.342-.634.563.128-.014.3-.031.581l.406.124c.433-.46.373-.29.641-1.131a.666.666,0,0,0,.363.259c.1-.222-.122-.42.125-.405-.582.245-.245-1.486.153-.986-.032-.322-.287-.524-.156-.933.557.269.52-.583,1.11-.25C289.057,141.9,290.687,142,290.108,141.468Z" transform="translate(-19.854 -44.902)"/><path class="cls-1" d="M263.238,68.3c1.643,2.514-1.311,6.189-2.74,8.458a.786.786,0,0,1-.58-.031c.044.164.268.234.145.488-.88-.067-2.1,1.4-2.01,1.744-.45.076-.958.042-1.193.521-.4-.016.292-.607-.105-.622a4.916,4.916,0,0,1-.817,1.225c-2.5-.606-2.965-2.4-4.6-3.771-.127.7.663,1.413.138,1.961-.486.254-.066-.237-.322-.394-.7.636-.365,1.915-1.336,1.951a12.009,12.009,0,0,1,1.282-4.182c.25.093-.044.476.28.529a16.666,16.666,0,0,1,1.136-4.67c-.058-.233.052-.555-.416-.57a41.79,41.79,0,0,1,2.4-5.905,6.27,6.27,0,0,0,.332-1.079c.944-3.668,1.208-7.851,2.933-11.5,1.945-4.113,5.123-9,9.422-7.148a8.43,8.43,0,0,1,5.02,8.18,24.081,24.081,0,0,1-7.017,14.231A7.915,7.915,0,0,0,263.238,68.3Z" transform="translate(-19.854 -44.902)"/><path class="cls-2" d="M168.646,200.4l-3.382-2.524a30.665,30.665,0,0,0,4.3-7.961l3.971,1.429A34.937,34.937,0,0,1,168.646,200.4Zm-16.357,12.128-1.385-3.985a29.469,29.469,0,0,0,7.953-4.253l2.528,3.379A33.665,33.665,0,0,1,152.289,212.527Zm-20.361.61,1.094-4.074a31.581,31.581,0,0,0,9,1.079l.107,4.218A35.675,35.675,0,0,1,131.928,213.137Zm-9.445-4.087a33.435,33.435,0,0,1-4.74-3.575,36.612,36.612,0,0,1-3.067-3.141l3.189-2.764a32.138,32.138,0,0,0,2.712,2.778,29.059,29.059,0,0,0,4.138,3.12Zm-13.562-15.026c-1.694-3-3.177-6.155-4.405-8.849l3.839-1.749c1.191,2.609,2.625,5.663,4.241,8.523ZM100.5,176.38c-1.223-2.556-2.31-4.627-3.419-6.513q-.529-.9-1.092-1.779l3.555-2.271q.6.945,1.175,1.91c1.173,1.993,2.312,4.166,3.589,6.834Z" transform="translate(-19.854 -44.902)"/><polygon class="cls-2" points="160.466 165.513 156.435 166.773 150.251 146.906 130.886 154.527 129.343 150.595 152.929 141.319 160.466 165.513"/></svg>