<svg id="Layer_1" data-name="Layer 1" xmlns="http://www.w3.org/2000/svg" width="15.998" height="91.029" viewBox="0 0 15.998 91.029"><defs><style>.cls-1{fill:#92c13e;}</style></defs><path class="cls-1" d="M171.15,6.052q-1.1,1.884-2.1,3.823l-1.705-.881q1.023-1.981,2.151-3.911Zm-4,7.748q-.9,1.991-1.695,4.022l-1.786-.7q.811-2.078,1.731-4.112Zm-3.184,8.123Q163.275,24,162.685,26.1l-1.848-.518q.6-2.148,1.309-4.263Zm-2.357,8.405q-.486,2.13-.87,4.281l-1.89-.337q.393-2.194.889-4.371Zm-1.535,8.6q-.281,2.166-.457,4.344l-1.913-.155q.18-2.223.467-4.435Zm-.708,8.7q-.075,2.182-.046,4.369l-1.919.024q-.029-2.229.047-4.458Zm.113,8.733q.132,2.181.366,4.353l-1.908.207q-.239-2.218-.373-4.445Zm.937,8.683q.336,2.157.775,4.3l-1.879.387q-.449-2.184-.793-4.388Zm1.759,8.55q.544,2.115,1.19,4.2l-1.833.569q-.66-2.132-1.216-4.292Zm2.586,8.337q.75,2.05,1.6,4.061l-1.766.749q-.872-2.055-1.637-4.15Zm3.409,8.032q.953,1.961,2.01,3.872l-1.679.929q-1.08-1.954-2.058-3.962Z" transform="translate(-157.393 -5.083)"/><polygon class="cls-1" points="15.998 79.908 14.144 79.404 11.669 88.536 2.741 85.4 2.107 87.213 12.981 91.029 15.998 79.908"/></svg>