<svg id="Layer_1" data-name="Layer 1" xmlns="http://www.w3.org/2000/svg" width="51.409" height="93.564" viewBox="0 0 51.409 93.564"><defs><style>.cls-1{fill:#92c13e;}</style></defs><path class="cls-1" d="M137.136,96,136,94.923c.818-.865,1.636-1.738,2.443-2.623l1.157,1.054C138.785,94.246,137.961,95.126,137.136,96ZM142,90.64l-1.191-1.015c.772-.905,1.524-1.825,2.245-2.762l1.24.954C143.557,88.775,142.789,89.716,142,90.64Zm4.428-5.786-1.3-.869c.677-1.015,1.295-2.029,1.835-3.015l1.372.752C147.772,82.748,147.13,83.8,146.429,84.854Zm3.507-6.443-1.443-.6a29.171,29.171,0,0,0,1.075-3.025l.08-.277,1.506.422-.084.294A30.627,30.627,0,0,1,149.936,78.411Zm1.918-7.141L150.3,71.1a22.616,22.616,0,0,0,.11-3.474l1.564-.07A24.216,24.216,0,0,1,151.854,71.27Zm-.338-7.4-1.532.315A20.171,20.171,0,0,0,149,60.864l1.455-.575A21.628,21.628,0,0,1,151.516,63.866Zm-4.08-6.062a14.6,14.6,0,0,0-2.169-2.628l1.079-1.134a16.251,16.251,0,0,1,2.4,2.91Zm-4.9-4.626c-.262-.144-.532-.278-.807-.4a14.9,14.9,0,0,0-2.357-.84l.405-1.511a16.617,16.617,0,0,1,2.6.929q.463.212.907.454Zm-6.578-1.841c-1.012-.1-2.133-.159-3.528-.184l.028-1.565c1.438.026,2.6.087,3.656.192Zm-7.12-.206c-1.082-.006-2.362-.024-3.643-.108l.1-1.561c1.241.081,2.491.1,3.551.1Zm-7.318-.582a16.43,16.43,0,0,1-3.583-1.157l.655-1.42a14.921,14.921,0,0,0,3.246,1.045Zm-6.787-3.2a14.717,14.717,0,0,1-2.535-2.817l1.286-.892a13.174,13.174,0,0,0,2.264,2.518Zm-2.893-6.722-1.44.613a25.451,25.451,0,0,1-1.184-3.516l1.515-.4A23.679,23.679,0,0,0,111.838,40.628Zm-1.812-6.745-1.547.239c-.175-1.141-.312-2.329-.419-3.631l1.56-.127C109.723,31.628,109.856,32.779,110.026,33.883Zm-.61-7.077-1.563.058-.033-1.027c-.022-.841-.052-1.7-.093-2.56l1.562-.077c.042.875.073,1.743.1,2.6Zm-.391-7.234-1.556.156c-.128-1.265-.286-2.411-.485-3.5l1.539-.279C108.729,17.078,108.894,18.265,109.025,19.572Zm-1.36-7.214-1.5.457A21,21,0,0,0,104.9,9.589l1.4-.7A22.561,22.561,0,0,1,107.665,12.358Zm-4.607-5.642a12.741,12.741,0,0,0-2.469-2.309l.905-1.276a14.3,14.3,0,0,1,2.773,2.591Z" transform="translate(-100.589 -3.131)"/><polygon class="cls-1" points="44.179 92.883 44.066 91.321 36.373 91.882 36.375 84.167 34.809 84.168 34.808 93.564 44.179 92.883"/></svg>