<svg id="Layer_1" data-name="Layer 1" xmlns="http://www.w3.org/2000/svg" width="93.266" height="55.067" viewBox="0 0 93.266 55.067"><defs><style>.cls-1{fill:#92c13e;}</style></defs><path class="cls-1" d="M180.1,78.956l-2.128-.912a16.813,16.813,0,0,0,1.252-4.8l2.3.252A19.166,19.166,0,0,1,180.1,78.956Zm1.229-11.094-2.278.411a16.152,16.152,0,0,0-1.6-4.681l2.046-1.081A18.488,18.488,0,0,1,181.327,67.862Zm-5.221-9.884-1.621,1.653a17.282,17.282,0,0,0-4.016-2.934l1.085-2.044A19.572,19.572,0,0,1,176.106,57.978Zm-10.314-2.945a15.877,15.877,0,0,0-2.827-.3,17.689,17.689,0,0,0-2.127.1l-.246-2.3A20.23,20.23,0,0,1,163,52.422a18.337,18.337,0,0,1,3.239.338Zm-9.917.891c-1.718.544-3.436,1.233-4.889,1.834l-.886-2.137c1.5-.622,3.274-1.333,5.076-1.9ZM146.046,59.8c-1.509.593-2.779,1.039-4,1.4-.394.116-.788.225-1.186.327l-.577-2.241q.555-.144,1.1-.3c1.15-.342,2.361-.766,3.807-1.335ZM135.44,62.459a35.973,35.973,0,0,1-5.5.067l.148-2.311a33.356,33.356,0,0,0,5.139-.062Zm-10.936-.7a36.882,36.882,0,0,1-5.261-1.566l.823-2.163A34.708,34.708,0,0,0,125,59.5Zm-9.086-5.921-1.146,2.011a34.653,34.653,0,0,1-4.549-3.1l1.452-1.8A32.3,32.3,0,0,0,115.418,55.838Zm-7.949-6.428-1.731,1.539a34.954,34.954,0,0,1-3.316-4.39l1.951-1.245A32.346,32.346,0,0,0,107.469,49.41Zm-5.531-8.628-2.116.939a36.964,36.964,0,0,1-1.845-5.172l2.231-.614A34.642,34.642,0,0,0,101.938,40.782Zm-2.713-9.894-2.3.269a35.246,35.246,0,0,1-.213-5.494l2.313.092A33.08,33.08,0,0,0,99.225,30.888Z" transform="translate(-96.686 -25.663)"/><polygon class="cls-1" points="93.266 48.178 92.119 46.165 82.209 51.823 77.289 41.525 75.2 42.525 81.194 55.067 93.266 48.178"/></svg>