<svg id="Layer_1" data-name="Layer 1" xmlns="http://www.w3.org/2000/svg" width="87.148" height="98.067" viewBox="0 0 87.148 98.067"><defs><style>.cls-1{fill:#92c13e;}</style></defs><path class="cls-1" d="M120.16,96.342a25.072,25.072,0,0,1-.784-5.389l2.263-.084a22.872,22.872,0,0,0,.713,4.9Zm1.8-10.437-2.235-.37a28.742,28.742,0,0,1,1.388-5.235l2.126.783A26.582,26.582,0,0,0,121.964,85.905Zm3.431-9.327-1.944-1.162a28.145,28.145,0,0,1,3.212-4.367l1.686,1.513A25.752,25.752,0,0,0,125.4,76.578Zm6.63-7.353-1.337-1.83a24.14,24.14,0,0,1,4.737-2.7l.889,2.084A21.77,21.77,0,0,0,132.025,69.225ZM172,65.638l-.029-2.266a45.1,45.1,0,0,0,5.072-.328l.281,2.247A47.426,47.426,0,0,1,172,65.638Zm-5.287-.136c-1.75-.1-3.5-.244-5.231-.4l.2-2.257c1.708.151,3.432.293,5.16.393Zm-25.639-.242-.491-2.212a37.546,37.546,0,0,1,5.309-.769l.175,2.259A35.424,35.424,0,0,0,141.074,65.26Zm15.234-.6c-1.712-.124-3.431-.221-5.144-.253l.045-2.265c1.752.034,3.511.131,5.263.26Zm26.293-.443-.635-2.175a25.6,25.6,0,0,0,3.349-1.229q.631-.285,1.245-.62l1.091,1.984q-.692.381-1.406.7A27.8,27.8,0,0,1,182.6,64.221Zm9.479-5.275L190.525,57.3a19.2,19.2,0,0,0,3.116-3.79l1.922,1.2A21.5,21.5,0,0,1,192.08,58.946Zm5.691-9.317-2.194-.564a12.719,12.719,0,0,0,.411-3.16,11.454,11.454,0,0,0-.107-1.568l2.243-.311a13.464,13.464,0,0,1,.129,1.879A15,15,0,0,1,197.771,49.629Zm-3.5-9.724A19.5,19.5,0,0,0,191.16,36.1l1.593-1.613a21.743,21.743,0,0,1,3.455,4.25Zm-6.926-7.242c-1.352-1.175-2.669-2.335-3.893-3.625l1.644-1.559c1.153,1.216,2.424,2.337,3.734,3.472Zm-7.163-8.053a17.584,17.584,0,0,1-1.754-5.261l2.234-.376a15.247,15.247,0,0,0,1.527,4.584Zm.364-10.512-2.25-.258a20.175,20.175,0,0,1,1.364-5.331l2.1.856A18.024,18.024,0,0,0,180.543,14.1Zm3.676-8.921L182.46,3.748A16.806,16.806,0,0,1,186.2.336l1.255,1.887A14.518,14.518,0,0,0,184.219,5.177Z" transform="translate(-111.106 -0.336)"/><polygon class="cls-1" points="18.227 86.602 16.317 85.38 10.306 94.795 1.355 88.111 0 89.929 10.904 98.067 18.227 86.602"/></svg>