<svg xmlns="http://www.w3.org/2000/svg" viewBox="0 0 395.93 393.51"><defs><style>.cls-1{isolation:isolate;}.cls-2{fill:#2394e0;}.cls-3{fill:#a2e363;}.cls-4{mix-blend-mode:multiply;opacity:0.25;}.cls-5{fill:#606060;}.cls-6,.cls-7{fill:none;stroke:#000;stroke-linecap:round;stroke-linejoin:round;}.cls-6{stroke-width:2px;}.cls-8{fill:#235d2f;}</style></defs><g class="cls-1"><g id="OBJECTS"><path class="cls-2" d="M391.61,245.2q0,6.33-.51,12.46a144.18,144.18,0,0,1-6.82,33.84c-3.38,1.56-7.06,2.23-10.44,3.79-6.16,2.85-12.54,5.86-16.87,11.09-5.73,6.93-7,16.78-13,23.51-3.1,3.51-7.39,6.05-9.61,10.17-2,3.63-2,7.94-2.35,12.06-.31,3.94-1,8.15-3.64,11.08-22.52,14.35-49.57,22.42-78.66,22.42-78.37,0-141.9-58.58-141.9-140.42,0-1.79,0-3.58.09-5.35,1.27-40.52,17-75.59,42.29-100.15,1.44,1.85,4.26,2.28,6.56,1.6,7.44-2.2,13.69-8.38,20.49-12a112.32,112.32,0,0,1,12.91-5.92c3.5-1.34,7.71-1.63,10.78-4a4.72,4.72,0,0,0,2-3.77c-.17-4-6.56-3.23-9.6-3.72a135.39,135.39,0,0,1,30.12-8,145.71,145.71,0,0,1,21.09-1.52,150.82,150.82,0,0,1,68,16.22c-14.37-7.15-30.46-1.1-45.57,4.31-5.81,2.08-11.55,4.31-17.28,6.59a39.56,39.56,0,0,0-9.2,5.24,14.2,14.2,0,0,1-6.86,2.57,6.07,6.07,0,0,1-4-.81c-2.7-1.76-1.34-4.25-1.87-6.44s-2.92-3.54-5.19-3.62a15.71,15.71,0,0,0-6.52,1.67l-20.44,8.53c-2.67,1.11-5.88,3.15-5.11,6a3.94,3.94,0,0,0,4.06,2.7c3.17-.12,5.34-2.39,7.77-4.08s5.37-2.9,8.3-1.84a4.75,4.75,0,0,1,3,3.07c.9,3.11-1.78,5.51-4.39,6.88-4.67,2.44-9.24.2-14.12,2.18-15.69,6.36-32,13.15-43.06,25.94-1.34,1.54-2.64,3.26-1.63,5.83a6.23,6.23,0,0,0,6.42,3.73c5.48-.5,8.74-5.08,12.75-8.3a25.94,25.94,0,0,1,29.51-1.52c6.53,4.22,11.63,11.64,19.37,12.33,4.55.41,10-1.44,12.94,2.45a7,7,0,0,1-1.11,9.35c-11.73,10.48-28.12,5.43-41.6-.35-14.6-6.26-31.4-13.31-45.28-1.6a29,29,0,0,0-6.52,8c-6.43,11.45-6.32,24.34-5.87,36.9.2,5.5.48,11.12,2.52,16.23s6.2,9.7,11.6,10.78c8,1.59,16.91-4.49,23.87-.32,4.22,2.52,5.75,7.87,6.22,12.76s.28,10,2.47,14.43c2.11,4.22,6.14,7.18,8.45,11.29s2.71,9,3.69,13.68A52.39,52.39,0,0,0,218,359.06c2.53,4,9.86,2.45,13.2-.87s4.32-8.27,4.86-12.95.85-9.57,3.3-13.59c2.81-4.59,8.29-7.83,9-13.18.61-5-3.31-9.33-4.21-14.25-1.17-6.41,3-12.68,8-16.86s11-7.1,15.73-11.58a23.05,23.05,0,0,0,4.69-6.2,6.78,6.78,0,0,0-6.89-9.76c-4.61.56-9.2.35-13.2-1.85-4.7-2.6-7.64-7.5-9.88-12.38a83.71,83.71,0,0,1-6.6-22.05,3.07,3.07,0,0,1,5.44-2.39,59.12,59.12,0,0,1,7.45,12.55c3,7,5.42,15.37,16.09,14.85a20.07,20.07,0,0,0,9.47-3.08c6.05-3.74,14.45-7.11,15.94-15.23a7.92,7.92,0,0,0-3.92-8.58c-6.52-3.31-12.23,6.07-19.29-.59a13.79,13.79,0,0,1-3.71-6.2,7.1,7.1,0,0,1,9.13-8.71l28.4,9.79c6.8,2.34,13.9,4.89,18.68,10.25,6.56,7.36,7.16,18,9.44,27.63.83,3.44,2.58,7.47,6.7,7a5.87,5.87,0,0,0,3.78-2.24c4.25-5.37,4.32-12.42,6.53-18.68,2.41-6.82,9.4-13.55,16.87-8.09a14.13,14.13,0,0,1,4.29,5.36l7,14.68c1.82,3.81,7.72,1.76,6.65-2.32l0-.11c-1-3.63-3.07-7-3.3-10.73-.32-5.23,3-9.89,5.56-14.45,2.13-3.76,3.83-8.41,2.75-12.4l1.66-.41A140.9,140.9,0,0,1,391.61,245.2Z" transform="translate(-41.2 -43.55)"/><path class="cls-2" d="M387.55,211.42l-1.66.41a8.55,8.55,0,0,0-1.09-2.44c-1.77-2.71-4.93-4.11-7.42-6.18-6.44-5.36-7.06-16.88-2-23.53A137.65,137.65,0,0,1,387.55,211.42Z" transform="translate(-41.2 -43.55)"/><path class="cls-3" d="M385.89,211.83c1.08,4-.62,8.64-2.75,12.4-2.58,4.56-5.88,9.22-5.56,14.45.23,3.75,2.31,7.1,3.3,10.73l0,.11c1.07,4.08-4.83,6.13-6.65,2.32l-7-14.68a14.13,14.13,0,0,0-4.29-5.36c-7.47-5.46-14.46,1.27-16.87,8.09-2.21,6.26-2.28,13.31-6.53,18.68a5.87,5.87,0,0,1-3.78,2.24c-4.12.49-5.87-3.54-6.7-7-2.28-9.59-2.88-20.27-9.44-27.63-4.78-5.36-11.88-7.91-18.68-10.25l-28.4-9.79a7.1,7.1,0,0,0-9.13,8.71,13.79,13.79,0,0,0,3.71,6.2c7.06,6.66,12.77-2.72,19.29.59a7.92,7.92,0,0,1,3.92,8.58c-1.49,8.12-9.89,11.49-15.94,15.23a20.07,20.07,0,0,1-9.47,3.08c-10.67.52-13.05-7.88-16.09-14.85a59.12,59.12,0,0,0-7.45-12.55,3.07,3.07,0,0,0-5.44,2.39,83.71,83.71,0,0,0,6.6,22.05c2.24,4.88,5.18,9.78,9.88,12.38,4,2.2,8.59,2.41,13.2,1.85a6.78,6.78,0,0,1,6.89,9.76,23.05,23.05,0,0,1-4.69,6.2c-4.74,4.48-10.74,7.39-15.73,11.58s-9.12,10.45-8,16.86c.9,4.92,4.82,9.28,4.21,14.25-.66,5.35-6.14,8.59-9,13.18-2.45,4-2.77,8.92-3.3,13.59s-1.52,9.64-4.86,12.95-10.67,4.83-13.2.87a52.39,52.39,0,0,1-28.13-35.85c-1-4.64-1.36-9.54-3.69-13.68s-6.34-7.07-8.45-11.29c-2.19-4.4-2-9.54-2.47-14.43s-2-10.24-6.22-12.76c-7-4.17-15.91,1.91-23.87.32-5.4-1.08-9.56-5.67-11.6-10.78s-2.32-10.73-2.52-16.23c-.45-12.56-.56-25.45,5.87-36.9a29,29,0,0,1,6.52-8c13.88-11.71,30.68-4.66,45.28,1.6,13.48,5.78,29.87,10.83,41.6.35a7,7,0,0,0,1.11-9.35c-2.94-3.89-8.39-2-12.94-2.45-7.74-.69-12.84-8.11-19.37-12.33a25.94,25.94,0,0,0-29.51,1.52c-4,3.22-7.27,7.8-12.75,8.3a6.23,6.23,0,0,1-6.42-3.73c-1-2.57.29-4.29,1.63-5.83,11.08-12.79,27.37-19.58,43.06-25.94,4.88-2,9.45.26,14.12-2.18,2.61-1.37,5.29-3.77,4.39-6.88a4.75,4.75,0,0,0-3-3.07c-2.93-1.06-5.9.15-8.3,1.84s-4.6,4-7.77,4.08a3.94,3.94,0,0,1-4.06-2.7c-.77-2.89,2.44-4.93,5.11-6l20.44-8.53a15.71,15.71,0,0,1,6.52-1.67c2.27.08,4.65,1.42,5.19,3.62s-.83,4.68,1.87,6.44a6.07,6.07,0,0,0,4,.81,14.2,14.2,0,0,0,6.86-2.57,39.56,39.56,0,0,1,9.2-5.24c5.73-2.28,11.47-4.51,17.28-6.59,15.11-5.41,31.2-11.46,45.57-4.31a145.14,145.14,0,0,1,62.88,61.07h0c-5.1,6.65-4.48,18.17,2,23.53,2.49,2.07,5.65,3.47,7.42,6.18A8.55,8.55,0,0,1,385.89,211.83Z" transform="translate(-41.2 -43.55)"/><path class="cls-3" d="M373.84,295.29c3.38-1.56,7.06-2.23,10.44-3.79a135.11,135.11,0,0,1-55.91,71.7c2.63-2.93,3.33-7.14,3.64-11.08.32-4.12.38-8.43,2.35-12.06,2.22-4.12,6.51-6.66,9.61-10.17,6-6.73,7.27-16.58,13-23.51C361.3,301.15,367.68,298.14,373.84,295.29Z" transform="translate(-41.2 -43.55)"/><path class="cls-3" d="M203,115.6a4.72,4.72,0,0,1-2,3.77c-3.07,2.34-7.28,2.63-10.78,4a112.32,112.32,0,0,0-12.91,5.92c-6.8,3.66-13.05,9.84-20.49,12-2.3.68-5.12.25-6.56-1.6a130.24,130.24,0,0,1,43.15-27.82h0C196.39,112.37,202.78,111.56,203,115.6Z" transform="translate(-41.2 -43.55)"/><g class="cls-4"><path class="cls-5" d="M142.43,202.9c17.67-40.34,47.87-74.23,84.28-99.28-68,10.1-116.86,65-119.19,137-.06,1.78-.09,3.59-.09,5.39,0,29.39,8.37,55.79,22.82,77.63C121.41,283.77,125.94,240.53,142.43,202.9Z" transform="translate(-41.2 -43.55)"/><path class="cls-5" d="M367.34,167.35c2.52,75.56-23,152.08-71.06,210.5,52.45-17.06,91-61.46,95.78-119.31q.51-6.08.51-12.36A134.74,134.74,0,0,0,367.34,167.35Z" transform="translate(-41.2 -43.55)"/></g><path class="cls-6" d="M269.58,104.48a149.27,149.27,0,0,0-25-2.1,145.71,145.71,0,0,0-21.09,1.52c-65.9,9.64-113.32,64.26-115.57,136-.06,1.77-.09,3.56-.09,5.35,0,81.84,63.53,140.42,141.89,140.42,74.33,0,135.32-52.7,141.4-128q.51-6.14.51-12.46C391.61,172.21,337,115.82,269.58,104.48Z" transform="translate(-41.2 -43.55)"/><path class="cls-6" d="M375.42,179.67c-5.1,6.65-4.49,18.18,1.95,23.54,2.5,2.07,5.66,3.47,7.43,6.18,2.86,4.4.93,10.28-1.66,14.84s-5.88,9.22-5.56,14.45c.23,3.75,2.31,7.1,3.3,10.73l0,.11c1.07,4.08-4.83,6.13-6.65,2.32l-7-14.68a14.13,14.13,0,0,0-4.29-5.36c-7.47-5.46-14.46,1.27-16.87,8.09-2.21,6.26-2.29,13.31-6.53,18.68a5.87,5.87,0,0,1-3.78,2.24c-4.12.49-5.88-3.54-6.7-7-2.29-9.59-2.88-20.27-9.44-27.63-4.78-5.36-11.89-7.91-18.68-10.25l-28.4-9.79a7.1,7.1,0,0,0-9.13,8.71h0a13.77,13.77,0,0,0,3.7,6.2c7.07,6.66,12.78-2.72,19.3.59a7.92,7.92,0,0,1,3.92,8.58c-1.5,8.12-9.9,11.49-15.94,15.23a20.07,20.07,0,0,1-9.47,3.08c-10.67.52-13.05-7.88-16.1-14.85a59.5,59.5,0,0,0-7.44-12.55,3.07,3.07,0,0,0-5.44,2.39,83.71,83.71,0,0,0,6.6,22.05c2.24,4.88,5.17,9.78,9.88,12.38,4,2.2,8.59,2.41,13.2,1.85a6.78,6.78,0,0,1,6.89,9.76,23.09,23.09,0,0,1-4.7,6.2c-4.73,4.48-10.73,7.39-15.72,11.58s-9.12,10.45-8,16.86c.9,4.92,4.81,9.28,4.2,14.25-.65,5.35-6.13,8.59-8.94,13.18-2.45,4-2.77,8.92-3.31,13.59s-1.52,9.64-4.86,12.95-10.66,4.83-13.19.87a52.39,52.39,0,0,1-28.13-35.85c-1-4.64-1.36-9.54-3.69-13.68s-6.34-7.07-8.45-11.29c-2.19-4.4-2-9.54-2.48-14.43s-2-10.24-6.21-12.76c-7-4.17-15.92,1.91-23.87.32-5.4-1.08-9.56-5.67-11.6-10.78s-2.33-10.73-2.52-16.23c-.45-12.56-.56-25.45,5.86-36.9a29.34,29.34,0,0,1,6.52-8c13.89-11.71,30.69-4.66,45.28,1.6,13.48,5.78,29.87,10.83,41.6.35a7,7,0,0,0,1.11-9.35c-2.93-3.89-8.38-2-12.93-2.45-7.74-.69-12.84-8.11-19.37-12.33a25.94,25.94,0,0,0-29.51,1.52c-4,3.22-7.27,7.8-12.76,8.3a6.24,6.24,0,0,1-6.42-3.73c-1-2.57.3-4.29,1.64-5.83,11.08-12.79,27.37-19.58,43.05-25.94,4.89-2,9.46.26,14.13-2.18,2.61-1.37,5.29-3.77,4.39-6.88a4.78,4.78,0,0,0-3-3.07c-2.94-1.06-5.9.15-8.31,1.84s-4.59,4-7.76,4.08a3.94,3.94,0,0,1-4.06-2.7c-.77-2.89,2.43-4.93,5.11-6l20.43-8.53a15.76,15.76,0,0,1,6.53-1.67c2.27.08,4.65,1.42,5.19,3.62s-.84,4.68,1.87,6.44a6.06,6.06,0,0,0,4,.81,14.2,14.2,0,0,0,6.86-2.57,39.35,39.35,0,0,1,9.2-5.24c5.73-2.28,11.47-4.51,17.27-6.59,15.12-5.41,31.21-11.46,45.58-4.31" transform="translate(-41.2 -43.55)"/><path class="cls-6" d="M150.29,139.83c1.3,2.24,4,2.2,6.45,1.47,7.45-2.2,13.69-8.38,20.49-12a113.9,113.9,0,0,1,12.91-5.92c3.51-1.34,7.71-1.63,10.79-4a4.74,4.74,0,0,0,2-3.77c-.19-4.31-6.59-3.1-9.32-3.83" transform="translate(-41.2 -43.55)"/><path class="cls-6" d="M328,363.57c2.9-2.94,3.66-7.34,4-11.45s.38-8.43,2.34-12.06c2.23-4.12,6.51-6.66,9.62-10.17,6-6.73,7.27-16.58,13-23.51,4.33-5.23,10.71-8.24,16.87-11.09,3.38-1.56,7.06-2.23,10.44-3.79" transform="translate(-41.2 -43.55)"/><path class="cls-7" d="M142.57,161.15c.53-.61,1.07-1.2,1.62-1.8" transform="translate(-41.2 -43.55)"/><path class="cls-7" d="M139.14,165.42c.51-.69,1-1.36,1.56-2" transform="translate(-41.2 -43.55)"/><path class="cls-7" d="M132.2,308.16c-20.76-41.5-23.67-94,2.94-136.82.7-1.13,1.41-2.24,2.16-3.32" transform="translate(-41.2 -43.55)"/><path class="cls-7" d="M135.87,315.06c-.5-.89-1-1.78-1.48-2.68" transform="translate(-41.2 -43.55)"/><path class="cls-7" d="M266.93,110.71c1.75.17,3.51.37,5.26.6" transform="translate(-41.2 -43.55)"/><path class="cls-7" d="M217.64,113.13a167.16,167.16,0,0,1,42.76-2.95" transform="translate(-41.2 -43.55)"/><path class="cls-7" d="M374,284.61c1.35-.53,2.71-1,4.05-1.53" transform="translate(-41.2 -43.55)"/><path class="cls-7" d="M342.48,318c.32-.54.63-1.1.93-1.66,2.82-5.39,4.37-11.45,7.79-16.48,4.2-6.18,12.63-11,19.58-14.07" transform="translate(-41.2 -43.55)"/><path class="cls-7" d="M338.2,324.27c.84-1.08,1.65-2.18,2.42-3.31" transform="translate(-41.2 -43.55)"/><path class="cls-7" d="M334.05,329.4l1.87-2.27" transform="translate(-41.2 -43.55)"/><path class="cls-7" d="M252.87,294.8a5.92,5.92,0,0,1,4-1.6" transform="translate(-41.2 -43.55)"/><path class="cls-7" d="M245.64,336.42c1.31-1.61,2.65-3.2,3.89-4.86,2.67-3.58,4.94-7.74,4.9-12.2,0-3.39-1.38-6.6-2.57-9.76s-2.25-6.55-1.68-9.89" transform="translate(-41.2 -43.55)"/><path class="cls-7" d="M240.44,344.56a20,20,0,0,1,1.1-2.28c.28-.52.59-1,.9-1.51" transform="translate(-41.2 -43.55)"/><path class="cls-7" d="M240.05,355.11a11.13,11.13,0,0,1-.89-4.32" transform="translate(-41.2 -43.55)"/><path class="cls-7" d="M308.63,225.78a21.74,21.74,0,0,0-2.94-1.46" transform="translate(-41.2 -43.55)"/><path class="cls-7" d="M323.18,254.62c-.45-1.28-.85-2.57-1.19-3.85-1.74-6.42-2.82-13.23-6.61-18.69a20.69,20.69,0,0,0-2.63-3.12" transform="translate(-41.2 -43.55)"/><path class="cls-7" d="M327.1,262.28a24.86,24.86,0,0,1-2.36-3.92" transform="translate(-41.2 -43.55)"/><path class="cls-7" d="M332.47,267.07a14.42,14.42,0,0,1-2.3-1.54" transform="translate(-41.2 -43.55)"/><path class="cls-7" d="M166.71,200.26a25.69,25.69,0,0,1,5.89,1.66" transform="translate(-41.2 -43.55)"/><path class="cls-7" d="M153.21,201.66a25.34,25.34,0,0,1,7.88-1.67" transform="translate(-41.2 -43.55)"/><path class="cls-7" d="M241.53,313.17a7.41,7.41,0,0,0-2.11-3.14" transform="translate(-41.2 -43.55)"/><path class="cls-7" d="M230,340.32c1.6-8.46,10-13.08,11.87-21.35" transform="translate(-41.2 -43.55)"/><path class="cls-7" d="M228.35,350a27.45,27.45,0,0,0,.86-4.2" transform="translate(-41.2 -43.55)"/><path class="cls-7" d="M167.07,171.14A124.14,124.14,0,0,1,194.36,157" transform="translate(-41.2 -43.55)"/><path class="cls-7" d="M328.41,133.85c1.18,1,2.33,2,3.43,3.06" transform="translate(-41.2 -43.55)"/><path class="cls-7" d="M318.71,127.5a51.11,51.11,0,0,1,5.17,3" transform="translate(-41.2 -43.55)"/><path class="cls-7" d="M287,122.43a54.37,54.37,0,0,1,26.86,2.92" transform="translate(-41.2 -43.55)"/><path class="cls-7" d="M276,125.05q2.54-.73,5.1-1.38" transform="translate(-41.2 -43.55)"/><path class="cls-7" d="M358.83,164.94c-1-1.39-1.94-2.81-2.82-4.26" transform="translate(-41.2 -43.55)"/><path class="cls-7" d="M365.85,184.91c.65-2.68,2.6-7,1.64-9.71-.86-2.38-3.9-3.48-5.15-5.66" transform="translate(-41.2 -43.55)"/><path class="cls-7" d="M366.1,199.47a17,17,0,0,1-1.24-9.31" transform="translate(-41.2 -43.55)"/><path class="cls-7" d="M370,303.63c1.34-.76,2.72-1.44,4.12-2.07" transform="translate(-41.2 -43.55)"/><path class="cls-7" d="M363.15,309.25a18.55,18.55,0,0,1,2.68-2.78" transform="translate(-41.2 -43.55)"/><path class="cls-7" d="M346.76,336c6.83-6,9.61-14.34,13.56-22.21" transform="translate(-41.2 -43.55)"/><path class="cls-7" d="M166,130.64a91.13,91.13,0,0,1,23.9-12.49" transform="translate(-41.2 -43.55)"/><path class="cls-7" d="M234.33,244.17a63.9,63.9,0,0,1-3.54-16.39c-.33-4-1.12-10.56,3-13" transform="translate(-41.2 -43.55)"/><path class="cls-7" d="M240.82,257.3a61.94,61.94,0,0,1-3.9-6.92" transform="translate(-41.2 -43.55)"/><path class="cls-7" d="M359.62,222.39a20.08,20.08,0,0,1,9,3.58" transform="translate(-41.2 -43.55)"/><path class="cls-7" d="M339.65,231.3a20.42,20.42,0,0,1,14-8.86" transform="translate(-41.2 -43.55)"/><path class="cls-7" d="M336.32,245a19.94,19.94,0,0,1,.59-7.65" transform="translate(-41.2 -43.55)"/><path class="cls-7" d="M188.71,319.18l4-4.68" transform="translate(-41.2 -43.55)"/><path class="cls-7" d="M189.93,322.71l4-4.36" transform="translate(-41.2 -43.55)"/><path class="cls-7" d="M191.09,327.22a15.39,15.39,0,0,1,3.68-4.5" transform="translate(-41.2 -43.55)"/><path class="cls-7" d="M192.35,331.65c1.35-1.65,2.69-3.31,4-5" transform="translate(-41.2 -43.55)"/><path class="cls-7" d="M194,336.1l4-5.87" transform="translate(-41.2 -43.55)"/><path class="cls-7" d="M196.77,339.22l3.16-5" transform="translate(-41.2 -43.55)"/><path class="cls-7" d="M198.93,343.56a30.47,30.47,0,0,1,3.84-6.17" transform="translate(-41.2 -43.55)"/><path class="cls-7" d="M201.41,346.38l2.7-4.82" transform="translate(-41.2 -43.55)"/><path class="cls-7" d="M204,348.41l2.62-4.52" transform="translate(-41.2 -43.55)"/><path class="cls-7" d="M207,350.23l1.67-4.16" transform="translate(-41.2 -43.55)"/><path class="cls-7" d="M208.57,352.87c1-1.94,2-3.88,3-5.83" transform="translate(-41.2 -43.55)"/><path class="cls-7" d="M211.91,354.71l2.16-5.5" transform="translate(-41.2 -43.55)"/><path class="cls-7" d="M214,356.11l2.58-4.71" transform="translate(-41.2 -43.55)"/><path class="cls-7" d="M216.79,357.73l1.66-4.17" transform="translate(-41.2 -43.55)"/><path class="cls-7" d="M218.93,360.22q1.24-3.25,2.47-6.51" transform="translate(-41.2 -43.55)"/><path class="cls-7" d="M221.54,360.11a12.63,12.63,0,0,0,1.39-4.22" transform="translate(-41.2 -43.55)"/><path class="cls-7" d="M132.68,216.92l6.81-4.19" transform="translate(-41.2 -43.55)"/><path class="cls-7" d="M131.88,222.12l6.29-3.66" transform="translate(-41.2 -43.55)"/><path class="cls-7" d="M131.12,226.88l6-4" transform="translate(-41.2 -43.55)"/><path class="cls-7" d="M131.34,232.06l5.74-4.22" transform="translate(-41.2 -43.55)"/><path class="cls-7" d="M130.82,237l6.8-4.2" transform="translate(-41.2 -43.55)"/><path class="cls-7" d="M130.84,241.17l5.26-3" transform="translate(-41.2 -43.55)"/><path class="cls-7" d="M131,245.28l5.14-2.61" transform="translate(-41.2 -43.55)"/><path class="cls-7" d="M131.5,249.72l4.49-2.13" transform="translate(-41.2 -43.55)"/><path class="cls-7" d="M131.49,253.7l4.75-2.75" transform="translate(-41.2 -43.55)"/><path class="cls-7" d="M132.5,257.34l3.7-2.44" transform="translate(-41.2 -43.55)"/><path class="cls-7" d="M134,261.06l3.38-2.25" transform="translate(-41.2 -43.55)"/><path class="cls-7" d="M136.24,264.57l3.25-3" transform="translate(-41.2 -43.55)"/><path class="cls-7" d="M138.86,268.31A14.69,14.69,0,0,1,142,264.8" transform="translate(-41.2 -43.55)"/><path class="cls-7" d="M141.39,269.46l4-4.57" transform="translate(-41.2 -43.55)"/><path class="cls-7" d="M144.14,270.71c.87-1,1.73-1.93,2.6-2.9" transform="translate(-41.2 -43.55)"/><path class="cls-7" d="M146.77,271.48a5.28,5.28,0,0,0,1.44-1.68" transform="translate(-41.2 -43.55)"/><path class="cls-7" d="M171.23,272.8l2.25-1.87" transform="translate(-41.2 -43.55)"/><path class="cls-7" d="M172.48,275.19l4.08-3.44" transform="translate(-41.2 -43.55)"/><path class="cls-7" d="M174.13,277.59l4.68-4" transform="translate(-41.2 -43.55)"/><path class="cls-7" d="M175,281.44a17.48,17.48,0,0,1,4.24-3" transform="translate(-41.2 -43.55)"/><path class="cls-7" d="M175.59,284.54l3.08-2.43" transform="translate(-41.2 -43.55)"/><path class="cls-7" d="M175.76,288.48l4-3.23" transform="translate(-41.2 -43.55)"/><path class="cls-7" d="M176,292.12l4.72-4.16" transform="translate(-41.2 -43.55)"/><path class="cls-7" d="M176.6,295.92l5-3.41" transform="translate(-41.2 -43.55)"/><path class="cls-7" d="M178.53,300a19.39,19.39,0,0,1,4.56-3.44" transform="translate(-41.2 -43.55)"/><path class="cls-7" d="M181.1,302.93l4.13-2.75" transform="translate(-41.2 -43.55)"/><path class="cls-7" d="M184.33,305.9l3.12-2.25" transform="translate(-41.2 -43.55)"/><path class="cls-7" d="M186.3,309.28l3.81-3" transform="translate(-41.2 -43.55)"/><path class="cls-7" d="M188.28,313.64a20.51,20.51,0,0,0,3-2.37" transform="translate(-41.2 -43.55)"/><path class="cls-7" d="M241.92,220.37l3-3" transform="translate(-41.2 -43.55)"/><path class="cls-7" d="M243.4,223.6c1.26-1.58,2.53-3.15,3.79-4.72" transform="translate(-41.2 -43.55)"/><path class="cls-7" d="M245.59,226.8l3.23-4.77" transform="translate(-41.2 -43.55)"/><path class="cls-7" d="M246.6,229.81l4-5.75" transform="translate(-41.2 -43.55)"/><path class="cls-7" d="M247.86,232.81l3.75-5.5" transform="translate(-41.2 -43.55)"/><path class="cls-7" d="M249.6,235.05c1.32-1.92,2.63-3.85,4-5.78" transform="translate(-41.2 -43.55)"/><path class="cls-7" d="M251.33,239.29l5-6.5" transform="translate(-41.2 -43.55)"/><path class="cls-7" d="M253.45,242.45q2.56-3.82,5.12-7.67" transform="translate(-41.2 -43.55)"/><path class="cls-7" d="M255.83,245l4.76-8.49" transform="translate(-41.2 -43.55)"/><path class="cls-7" d="M258.57,247l4-8" transform="translate(-41.2 -43.55)"/><path class="cls-7" d="M261.14,248.08l4.74-8.26" transform="translate(-41.2 -43.55)"/><path class="cls-7" d="M264.3,248.52l4.73-8.25" transform="translate(-41.2 -43.55)"/><path class="cls-7" d="M268.84,247.05l3.75-6.75" transform="translate(-41.2 -43.55)"/><path class="cls-7" d="M272.6,246.06a14.37,14.37,0,0,0,3-5.75" transform="translate(-41.2 -43.55)"/><path class="cls-7" d="M277.72,243.62l2.42-4.79" transform="translate(-41.2 -43.55)"/><path class="cls-7" d="M281.6,240.81l1.25-3" transform="translate(-41.2 -43.55)"/><path class="cls-7" d="M150.64,183.23l3.09-2.93" transform="translate(-41.2 -43.55)"/><path class="cls-7" d="M152.66,185.11l2-2.27" transform="translate(-41.2 -43.55)"/><path class="cls-7" d="M155.25,186.89l2-2.58" transform="translate(-41.2 -43.55)"/><path class="cls-7" d="M158.09,186.78l2.07-2.6" transform="translate(-41.2 -43.55)"/><path class="cls-7" d="M178.48,174.42a28.94,28.94,0,0,0,4.94-4" transform="translate(-41.2 -43.55)"/><path class="cls-7" d="M184,174l3.48-3.21" transform="translate(-41.2 -43.55)"/><path class="cls-7" d="M187.3,173.74a13.77,13.77,0,0,1,3.48-2.68" transform="translate(-41.2 -43.55)"/><path class="cls-7" d="M192,174l3.08-1.47" transform="translate(-41.2 -43.55)"/><path class="cls-7" d="M194.66,175.21l4.13-1.64" transform="translate(-41.2 -43.55)"/><path class="cls-7" d="M197.88,176.44l3.21-1.07" transform="translate(-41.2 -43.55)"/><path class="cls-7" d="M201.25,178.64l3.59-1.52" transform="translate(-41.2 -43.55)"/><path class="cls-7" d="M203.35,180.57l3.89-1.74" transform="translate(-41.2 -43.55)"/><path class="cls-7" d="M205.76,182.7a17.84,17.84,0,0,0,4-1.74" transform="translate(-41.2 -43.55)"/><path class="cls-7" d="M208.59,184.78A11,11,0,0,0,212.3,183" transform="translate(-41.2 -43.55)"/><path class="cls-7" d="M210.73,186.63l4.39-1.79" transform="translate(-41.2 -43.55)"/><path class="cls-7" d="M214.37,188.43l5.07-2.58" transform="translate(-41.2 -43.55)"/><path class="cls-7" d="M217.91,189.49l5.24-3" transform="translate(-41.2 -43.55)"/><path class="cls-7" d="M221.88,189.81a38.55,38.55,0,0,0,3.92-2.2" transform="translate(-41.2 -43.55)"/><path class="cls-7" d="M226.36,189.93a6.09,6.09,0,0,1,2.41-1.88" transform="translate(-41.2 -43.55)"/><path class="cls-7" d="M270.77,205.86l5-4.06" transform="translate(-41.2 -43.55)"/><path class="cls-7" d="M274.73,206.69q2.75-2,5.48-4" transform="translate(-41.2 -43.55)"/><path class="cls-7" d="M280.11,208.31l4.61-3.76" transform="translate(-41.2 -43.55)"/><path class="cls-7" d="M284.84,210.29a31,31,0,0,1,5.29-3.81" transform="translate(-41.2 -43.55)"/><path class="cls-7" d="M290,212.4l5.5-4.63" transform="translate(-41.2 -43.55)"/><path class="cls-7" d="M294.37,213.83l5.25-4" transform="translate(-41.2 -43.55)"/><path class="cls-7" d="M300,215.31l5.63-4.37" transform="translate(-41.2 -43.55)"/><path class="cls-7" d="M305.52,217.48l4.08-3.55" transform="translate(-41.2 -43.55)"/><path class="cls-7" d="M310.39,219.35q2.06-1.69,4.1-3.4" transform="translate(-41.2 -43.55)"/><path class="cls-7" d="M314.35,221.06a24.32,24.32,0,0,0,3.63-3" transform="translate(-41.2 -43.55)"/><path class="cls-7" d="M317.38,222.84l3.7-2.56" transform="translate(-41.2 -43.55)"/><path class="cls-7" d="M319.47,225.18l4.23-2.66" transform="translate(-41.2 -43.55)"/><path class="cls-7" d="M321.35,228.31a28.18,28.18,0,0,0,5-2.51" transform="translate(-41.2 -43.55)"/><path class="cls-7" d="M323.48,231.43l4.12-2.12" transform="translate(-41.2 -43.55)"/><path class="cls-7" d="M324.73,234.94l4-2.53" transform="translate(-41.2 -43.55)"/><path class="cls-7" d="M326.4,238.65l3.34-1.68" transform="translate(-41.2 -43.55)"/><path class="cls-7" d="M327,243.21l3.37-2" transform="translate(-41.2 -43.55)"/><path class="cls-7" d="M327.5,246.85l3.86-2.29" transform="translate(-41.2 -43.55)"/><path class="cls-7" d="M328.51,249.42a30,30,0,0,0,4.56-1.93" transform="translate(-41.2 -43.55)"/><path class="cls-7" d="M329.4,253.38l3.07-2.09" transform="translate(-41.2 -43.55)"/><path class="cls-7" d="M330.29,256l3.07-2.21" transform="translate(-41.2 -43.55)"/><path class="cls-7" d="M332,258.72l2.48-2.27" transform="translate(-41.2 -43.55)"/><path class="cls-7" d="M333.62,260.23a2.59,2.59,0,0,0,1.47-1.68" transform="translate(-41.2 -43.55)"/><path class="cls-7" d="M363.23,231.68l3.74-2.14" transform="translate(-41.2 -43.55)"/><path class="cls-7" d="M365.47,233.8l4.26-2.62" transform="translate(-41.2 -43.55)"/><path class="cls-7" d="M367.73,236.56a28.94,28.94,0,0,0,4.63-3.13" transform="translate(-41.2 -43.55)"/><path class="cls-7" d="M369,239.62a34.44,34.44,0,0,0,4.71-3.32" transform="translate(-41.2 -43.55)"/><path class="cls-7" d="M371.1,243.68l3.5-2.88" transform="translate(-41.2 -43.55)"/><path class="cls-7" d="M372.1,247.05l4.48-3.52" transform="translate(-41.2 -43.55)"/><path class="cls-7" d="M373.73,249.06a.19.19,0,0,0,.12.29l4.23-3.45" transform="translate(-41.2 -43.55)"/><path class="cls-7" d="M375.27,252l4.33-4" transform="translate(-41.2 -43.55)"/><path class="cls-7" d="M191.1,142.79l2.08-2.3" transform="translate(-41.2 -43.55)"/><path class="cls-7" d="M192.89,144.33l3.3-4.42" transform="translate(-41.2 -43.55)"/><path class="cls-7" d="M195.76,144.62l2.1-4" transform="translate(-41.2 -43.55)"/><path class="cls-7" d="M206.16,139.1a38.84,38.84,0,0,0,3.46-3.45" transform="translate(-41.2 -43.55)"/><path class="cls-7" d="M209.67,138.83l3.09-2.86" transform="translate(-41.2 -43.55)"/><path class="cls-7" d="M212,140.09l3-2.4" transform="translate(-41.2 -43.55)"/><path class="cls-7" d="M213.51,142l2.77-2.21" transform="translate(-41.2 -43.55)"/><path class="cls-7" d="M213.59,144.64l3.66-2.41" transform="translate(-41.2 -43.55)"/><path class="cls-7" d="M212.82,147.4a36.4,36.4,0,0,0,4.38-2.68" transform="translate(-41.2 -43.55)"/><path class="cls-7" d="M153.28,141.71l3-5" transform="translate(-41.2 -43.55)"/><path class="cls-7" d="M156.34,140.92l3.6-5.64" transform="translate(-41.2 -43.55)"/><path class="cls-7" d="M160.64,139.16a33.43,33.43,0,0,0,2-4" transform="translate(-41.2 -43.55)"/><path class="cls-7" d="M333.81,341.68l6.71-4" transform="translate(-41.2 -43.55)"/><path class="cls-7" d="M332.85,346c0-.09-.15-.13-.18,0s.08.19.17.18a.53.53,0,0,0,.26-.13,43.49,43.49,0,0,1,7.16-4.88" transform="translate(-41.2 -43.55)"/><path class="cls-7" d="M332.77,349.75a55.43,55.43,0,0,0,6.51-4.45" transform="translate(-41.2 -43.55)"/><path class="cls-7" d="M332.24,353.37a74.36,74.36,0,0,0,7.5-4.66" transform="translate(-41.2 -43.55)"/><path class="cls-7" d="M331.75,357.45l6.65-4.36" transform="translate(-41.2 -43.55)"/><path class="cls-7" d="M266.27,227.2a13.91,13.91,0,0,1-5.54-20.58" transform="translate(-41.2 -43.55)"/><path class="cls-7" d="M275.12,227.59a17.42,17.42,0,0,1,6.3-2.16c2.23-.16,4.68.72,5.73,2.69" transform="translate(-41.2 -43.55)"/><path class="cls-7" d="M377.19,225a22.77,22.77,0,0,0,3.81-7.09c.69-2.61.31-5.67-1.64-7.54" transform="translate(-41.2 -43.55)"/><path class="cls-7" d="M226,139.21c1.24,3.18,5.17,4.61,8.53,4s6.23-2.66,8.88-4.79,5.3-4.42,8.52-5.52" transform="translate(-41.2 -43.55)"/></g><g id="DESIGNED_BY_FREEPIK" data-name="DESIGNED BY FREEPIK"><path class="cls-8" d="M418.49,144.81C384.38,73.21,303.38,34.39,225.78,45.4,145.22,56.83,83.13,121.47,63.49,198.24L51.13,158.4c-2-6.36-11-3.68-9.83,2.71a255.45,255.45,0,0,0,21.86,67.35c1.31,2.73,6.06,3.53,8,1A313.59,313.59,0,0,1,125,175.43c5.15-4.06-2.11-11.23-7.22-7.21A313.35,313.35,0,0,0,70.3,214.63C86.55,127.86,158.42,54.79,249.83,53.72c101-1.18,178.64,79,177.14,179.37-1.42,94.81-74.34,179.69-168.92,192.74C160.76,439.26,73,362.33,67.59,265.77a1.76,1.76,0,0,0-3.52,0c-3.17,74.45,52.3,141.38,121.57,163.59,74.57,23.92,157.12-10.34,205.19-69.17C439.33,300.83,451.71,214.54,418.49,144.81Z" transform="translate(-41.2 -43.55)"/></g></g></svg>