<svg id="Layer_1" data-name="Layer 1" xmlns="http://www.w3.org/2000/svg" width="197.396" height="46.67" viewBox="0 0 197.396 46.67"><defs><style>.cls-1{fill:#82c30f;}.cls-2{fill:#93c13e;}.cls-3{fill:#235d2f;}</style></defs><path class="cls-1" d="M3.783,17.213A17.832,17.832,0,0,1,9.087,27.9c.51,4.246,2.323,8.139,2.533,12.442.05,1.02-.059,4.334.194,4.7.391.567,1.785.673,2.4.765a63.676,63.676,0,0,0,7.4-.053c1.31-.1,1.387-.456,1.3-1.716-.143-2.157.042-4.349-.183-6.495-.16-1.523,1.155-2.185,2.248-3.028.683-.527,1.343-1.072,1.994-1.637a17.117,17.117,0,0,0,2.387-1.958c1.226-1.56,1.718-3.332,3.524-4.419.679-.409,1.59-.431,2.219-.836.746-.48-.121-2.053-.525-2.536a2.957,2.957,0,0,0-3.464-.529,10.989,10.989,0,0,0-2.706,1.6c-.769.59-1.75,1.611-2.8,1.606-3.683-.016-1.208-10.034-.924-11.824.331-2.081,1.431-7.746-1.851-8.329-2.885-.513-2.343,9.479-3.382,11.138a16.326,16.326,0,0,1-.081-3.919c0-1.4.01-2.809-.1-4.21-.129-1.687-.566-5.411-2.962-5.421-3.673-.017-.737,12.186-1.436,14.327a11.881,11.881,0,0,1-1-3.4c-.381-1.453-.726-2.916-1.17-4.351C12.237,8.3,11.625,5.66,9.617,5.651,5.7,5.634,10.791,17.732,10.978,19.425c-2.272-1.3-3.283-4.105-5.437-5.5-.619-.4-2.752-1.027-3.052.081-.355,1.317.417,2.328,1.294,3.206" transform="translate(-2.401 -3.248)"/><path class="cls-2" d="M40.15,7.092H50.231v3.456H44.279V13h5.088v3.456H44.279v2.784h6.192v3.456H40.15Z" transform="translate(-2.401 -3.248)"/><path class="cls-2" d="M53.159,10.692h3.36l.288,1.44h.1A5.421,5.421,0,0,1,60.7,10.4c2.64,0,3.744,1.92,3.744,4.9v7.392H60.312V15.829c0-1.537-.385-1.92-1.2-1.92a2.5,2.5,0,0,0-1.824.912v7.872H53.159Z" transform="translate(-2.401 -3.248)"/><path class="cls-2" d="M66.022,10.692H70.15l1.3,5.233q.432,1.8.865,3.744h.095q.432-1.944.865-3.744l1.3-5.233H78.5l-3.793,12H69.958Z" transform="translate(-2.401 -3.248)"/><path class="cls-2" d="M79.942,7.14a2.319,2.319,0,0,1,4.609,0,2.319,2.319,0,0,1-4.609,0Zm.24,3.552h4.129v12H80.182Z" transform="translate(-2.401 -3.248)"/><path class="cls-2" d="M87.094,10.692h3.36l.288,2.064h.1A4.027,4.027,0,0,1,94.247,10.4a3.545,3.545,0,0,1,1.487.241L95.062,14.2A5.656,5.656,0,0,0,93.718,14a2.758,2.758,0,0,0-2.5,2.017v6.672H87.094Z" transform="translate(-2.401 -3.248)"/><path class="cls-2" d="M102.214,10.4a5.945,5.945,0,0,1,5.953,6.289,5.961,5.961,0,1,1-11.9,0A5.944,5.944,0,0,1,102.214,10.4Zm0,9.265c1.248,0,1.728-1.152,1.728-2.976s-.48-2.976-1.728-2.976-1.728,1.152-1.728,2.976S100.966,19.669,102.214,19.669Z" transform="translate(-2.401 -3.248)"/><path class="cls-2" d="M110.326,10.692h3.36l.288,1.44h.1a5.421,5.421,0,0,1,3.792-1.728c2.641,0,3.744,1.92,3.744,4.9v7.392h-4.127V15.829c0-1.537-.384-1.92-1.2-1.92a2.5,2.5,0,0,0-1.824.912v7.872h-4.128Z" transform="translate(-2.401 -3.248)"/><path class="cls-2" d="M124.294,10.692h3.359l.288,1.464h.1a4.912,4.912,0,0,1,3.6-1.752,3.393,3.393,0,0,1,3.312,1.92,5.072,5.072,0,0,1,3.7-1.92c2.641,0,3.793,1.92,3.793,4.9v7.392h-4.128V15.829c0-1.537-.384-1.92-1.2-1.92a2.564,2.564,0,0,0-1.679.912v7.872H131.3V15.829c0-1.537-.384-1.92-1.2-1.92a2.564,2.564,0,0,0-1.68.912v7.872h-4.128Z" transform="translate(-2.401 -3.248)"/><path class="cls-2" d="M150.262,10.4c3.552,0,5.232,2.593,5.232,5.809a7.479,7.479,0,0,1-.168,1.632h-6.841a2.519,2.519,0,0,0,2.786,2.016,4.932,4.932,0,0,0,2.448-.72l1.343,2.448a8.082,8.082,0,0,1-4.368,1.392,5.894,5.894,0,0,1-6.192-6.288A5.942,5.942,0,0,1,150.262,10.4Zm1.728,4.945c0-1.008-.384-1.825-1.632-1.825-.912,0-1.68.505-1.92,1.825Z" transform="translate(-2.401 -3.248)"/><path class="cls-2" d="M157.75,10.692h3.359l.288,1.44h.1a5.421,5.421,0,0,1,3.792-1.728c2.641,0,3.744,1.92,3.744,4.9v7.392H164.9V15.829c0-1.537-.383-1.92-1.2-1.92a2.5,2.5,0,0,0-1.824.912v7.872H157.75Z" transform="translate(-2.401 -3.248)"/><path class="cls-2" d="M172.244,13.909H170.66V10.836l1.824-.144.481-3.12h3.408v3.12h2.736v3.217h-2.736v4.1c0,1.32.672,1.752,1.439,1.752a3.452,3.452,0,0,0,1.057-.192l.624,2.977a9.1,9.1,0,0,1-2.832.431c-3.121,0-4.417-1.967-4.417-4.9Z" transform="translate(-2.401 -3.248)"/><path class="cls-2" d="M187.222,14.917c-.1-.864-.624-1.249-1.681-1.249a6.534,6.534,0,0,0-3.024,1.009l-1.44-2.689a10.114,10.114,0,0,1,5.28-1.584c3.121,0,4.993,1.68,4.993,5.617v6.672h-3.361l-.288-1.152h-.1a4.865,4.865,0,0,1-3.312,1.44,3.529,3.529,0,0,1-3.6-3.7C180.692,16.789,182.613,15.4,187.222,14.917Zm-1.489,4.9A1.894,1.894,0,0,0,187.222,19V17.365c-1.969.288-2.593.912-2.593,1.584C184.629,19.5,185.013,19.813,185.733,19.813Z" transform="translate(-2.401 -3.248)"/><path class="cls-2" d="M194.085,5.988h4.128V18.613c0,.816.384,1.056.672,1.056a1.481,1.481,0,0,0,.432-.048l.48,3.025a5.128,5.128,0,0,1-2.016.335c-2.785,0-3.7-1.824-3.7-4.512Z" transform="translate(-2.401 -3.248)"/><path class="cls-3" d="M40.15,30.092h4.129V35.9h4.656V30.092h4.128v15.6H48.935V39.5H44.279v6.192H40.15Z" transform="translate(-2.401 -3.248)"/><path class="cls-3" d="M62.327,37.917c-.1-.864-.624-1.248-1.681-1.248a6.546,6.546,0,0,0-3.024,1.008l-1.44-2.689a10.114,10.114,0,0,1,5.28-1.584c3.121,0,4.993,1.68,4.993,5.617v6.672H63.1l-.288-1.152h-.1a4.871,4.871,0,0,1-3.313,1.44,3.528,3.528,0,0,1-3.6-3.7C55.8,39.789,57.718,38.4,62.327,37.917Zm-1.489,4.9A1.888,1.888,0,0,0,62.327,42V40.365c-1.969.288-2.593.912-2.593,1.584C59.734,42.5,60.119,42.813,60.838,42.813Z" transform="translate(-2.401 -3.248)"/><path class="cls-3" d="M69.19,33.692h3.36l.288,1.441h.1A5.426,5.426,0,0,1,76.727,33.4c2.64,0,3.744,1.92,3.744,4.9v7.392H76.343V38.829c0-1.536-.385-1.921-1.2-1.921a2.5,2.5,0,0,0-1.825.912v7.873H69.19Z" transform="translate(-2.401 -3.248)"/><path class="cls-3" d="M87.526,33.4a3.608,3.608,0,0,1,2.785,1.2l-.144-1.728V28.988H94.3v16.7h-3.36l-.289-1.1h-.1a4.544,4.544,0,0,1-3.024,1.392c-2.976,0-4.9-2.4-4.9-6.289C82.63,35.757,85.078,33.4,87.526,33.4Zm1.1,9.217a1.647,1.647,0,0,0,1.537-.864V37.341a2.431,2.431,0,0,0-1.633-.576c-.864,0-1.68.767-1.68,2.88C86.854,41.805,87.526,42.621,88.63,42.621Z" transform="translate(-2.401 -3.248)"/><path class="cls-3" d="M101.206,46.605v3.313H97.078V33.692h3.36l.288,1.1h.1a4.967,4.967,0,0,1,3.264-1.393c2.833,0,4.656,2.4,4.656,6.1,0,4.128-2.447,6.48-4.992,6.48a3.758,3.758,0,0,1-2.688-1.2Zm1.536-3.984c.96,0,1.777-.767,1.777-3.072,0-1.968-.577-2.784-1.681-2.784a2.006,2.006,0,0,0-1.632.864v4.416A2.2,2.2,0,0,0,102.742,42.621Z" transform="translate(-2.401 -3.248)"/><path class="cls-3" d="M111,33.692h3.359l.289,2.065h.1A4.024,4.024,0,0,1,118.15,33.4a3.549,3.549,0,0,1,1.489.241l-.673,3.551a5.719,5.719,0,0,0-1.344-.191,2.755,2.755,0,0,0-2.5,2.016v6.672H111Z" transform="translate(-2.401 -3.248)"/><path class="cls-3" d="M120.789,30.14a2.318,2.318,0,1,1,2.3,2.064A2.114,2.114,0,0,1,120.789,30.14Zm.24,3.552h4.128v12h-4.128Z" transform="translate(-2.401 -3.248)"/><path class="cls-3" d="M127.941,33.692h3.36l.288,1.441h.1a5.422,5.422,0,0,1,3.792-1.729c2.64,0,3.744,1.92,3.744,4.9v7.392h-4.128V38.829c0-1.536-.384-1.921-1.2-1.921a2.5,2.5,0,0,0-1.825.912v7.873h-4.128Z" transform="translate(-2.401 -3.248)"/><path class="cls-3" d="M142.437,36.908h-1.584V33.836l1.824-.144.48-3.12h3.408v3.12H149.3v3.216h-2.737v4.1c0,1.32.672,1.752,1.44,1.752a3.458,3.458,0,0,0,1.057-.192l.624,2.977a9.1,9.1,0,0,1-2.832.431c-3.122,0-4.417-1.967-4.417-4.9Z" transform="translate(-2.401 -3.248)"/></svg>