<svg id="Layer_1" data-name="Layer 1" xmlns="http://www.w3.org/2000/svg" xmlns:xlink="http://www.w3.org/1999/xlink" width="202.962" height="46.625" viewBox="0 0 202.962 46.625"><defs><style>.cls-1{fill:none;}.cls-2,.cls-5{fill:#93c13e;}.cls-3{fill:#235d2f;}.cls-4{clip-path:url(#clip-path);}.cls-5{fill-rule:evenodd;}</style><clipPath id="clip-path" transform="translate(-8.835 -2)"><rect class="cls-1" x="-2" width="50" height="50"/></clipPath></defs><path class="cls-2" d="M52.15,5.092H62.231V8.548H56.279V11h5.088v3.456H56.279v2.784h6.192v3.456H52.15Z" transform="translate(-8.835 -2)"/><path class="cls-2" d="M65.159,8.692h3.36l.288,1.44h.1A5.421,5.421,0,0,1,72.695,8.4c2.64,0,3.744,1.92,3.744,4.9v7.392H72.312V13.829c0-1.537-.385-1.92-1.2-1.92a2.5,2.5,0,0,0-1.824.912v7.872H65.159Z" transform="translate(-8.835 -2)"/><path class="cls-2" d="M78.022,8.692H82.15l1.3,5.233q.432,1.8.865,3.744h.095q.432-1.944.865-3.744l1.3-5.233H90.5l-3.793,12H81.958Z" transform="translate(-8.835 -2)"/><path class="cls-2" d="M91.942,5.14a2.319,2.319,0,0,1,4.609,0,2.319,2.319,0,0,1-4.609,0Zm.24,3.552h4.129v12H92.182Z" transform="translate(-8.835 -2)"/><path class="cls-2" d="M99.094,8.692h3.36l.288,2.064h.1A4.027,4.027,0,0,1,106.247,8.4a3.545,3.545,0,0,1,1.487.241l-.672,3.552A5.656,5.656,0,0,0,105.718,12a2.758,2.758,0,0,0-2.5,2.017v6.672H99.094Z" transform="translate(-8.835 -2)"/><path class="cls-2" d="M114.214,8.4a5.945,5.945,0,0,1,5.953,6.289,5.961,5.961,0,1,1-11.9,0A5.944,5.944,0,0,1,114.214,8.4Zm0,9.265c1.248,0,1.728-1.152,1.728-2.976s-.48-2.976-1.728-2.976-1.728,1.152-1.728,2.976S112.966,17.669,114.214,17.669Z" transform="translate(-8.835 -2)"/><path class="cls-2" d="M122.326,8.692h3.36l.288,1.44h.1A5.421,5.421,0,0,1,129.862,8.4c2.641,0,3.744,1.92,3.744,4.9v7.392h-4.127V13.829c0-1.537-.384-1.92-1.2-1.92a2.5,2.5,0,0,0-1.824.912v7.872h-4.128Z" transform="translate(-8.835 -2)"/><path class="cls-2" d="M136.294,8.692h3.359l.288,1.464h.1a4.912,4.912,0,0,1,3.6-1.752,3.393,3.393,0,0,1,3.312,1.92,5.072,5.072,0,0,1,3.7-1.92c2.641,0,3.793,1.92,3.793,4.9v7.392h-4.128V13.829c0-1.537-.384-1.92-1.2-1.92a2.564,2.564,0,0,0-1.679.912v7.872H143.3V13.829c0-1.537-.384-1.92-1.2-1.92a2.564,2.564,0,0,0-1.68.912v7.872h-4.128Z" transform="translate(-8.835 -2)"/><path class="cls-2" d="M162.262,8.4c3.552,0,5.232,2.593,5.232,5.809a7.479,7.479,0,0,1-.168,1.632h-6.841a2.519,2.519,0,0,0,2.786,2.016,4.932,4.932,0,0,0,2.448-.72l1.343,2.448a8.082,8.082,0,0,1-4.368,1.392,5.894,5.894,0,0,1-6.192-6.288A5.942,5.942,0,0,1,162.262,8.4Zm1.728,4.945c0-1.008-.384-1.825-1.632-1.825-.912,0-1.68.505-1.92,1.825Z" transform="translate(-8.835 -2)"/><path class="cls-2" d="M169.75,8.692h3.359l.288,1.44h.1A5.421,5.421,0,0,1,177.286,8.4c2.641,0,3.744,1.92,3.744,4.9v7.392H176.9V13.829c0-1.537-.383-1.92-1.2-1.92a2.5,2.5,0,0,0-1.824.912v7.872H169.75Z" transform="translate(-8.835 -2)"/><path class="cls-2" d="M184.244,11.909H182.66V8.836l1.824-.144.481-3.12h3.408v3.12h2.736v3.217h-2.736v4.1c0,1.32.672,1.752,1.439,1.752a3.452,3.452,0,0,0,1.057-.192l.624,2.977a9.1,9.1,0,0,1-2.832.431c-3.121,0-4.417-1.967-4.417-4.9Z" transform="translate(-8.835 -2)"/><path class="cls-2" d="M199.222,12.917c-.1-.864-.624-1.249-1.681-1.249a6.534,6.534,0,0,0-3.024,1.009l-1.44-2.689a10.114,10.114,0,0,1,5.28-1.584c3.121,0,4.993,1.68,4.993,5.617v6.672h-3.361l-.288-1.152h-.1a4.865,4.865,0,0,1-3.312,1.44,3.529,3.529,0,0,1-3.6-3.7C192.692,14.789,194.613,13.4,199.222,12.917Zm-1.489,4.9A1.894,1.894,0,0,0,199.222,17V15.365c-1.969.288-2.593.912-2.593,1.584C196.629,17.5,197.013,17.813,197.733,17.813Z" transform="translate(-8.835 -2)"/><path class="cls-2" d="M206.085,3.988h4.128V16.613c0,.816.384,1.056.672,1.056a1.481,1.481,0,0,0,.432-.048l.48,3.025a5.128,5.128,0,0,1-2.016.335c-2.785,0-3.7-1.824-3.7-4.512Z" transform="translate(-8.835 -2)"/><path class="cls-3" d="M52.15,28.092h4.129V33.9h4.656V28.092h4.128v15.6H60.935V37.5H56.279v6.192H52.15Z" transform="translate(-8.835 -2)"/><path class="cls-3" d="M74.327,35.917c-.1-.864-.624-1.248-1.681-1.248a6.546,6.546,0,0,0-3.024,1.008l-1.44-2.689a10.114,10.114,0,0,1,5.28-1.584c3.121,0,4.993,1.68,4.993,5.617v6.672H75.1l-.288-1.152h-.1a4.871,4.871,0,0,1-3.313,1.44,3.528,3.528,0,0,1-3.6-3.7C67.8,37.789,69.718,36.4,74.327,35.917Zm-1.489,4.9A1.888,1.888,0,0,0,74.327,40V38.365c-1.969.288-2.593.912-2.593,1.584C71.734,40.5,72.119,40.813,72.838,40.813Z" transform="translate(-8.835 -2)"/><path class="cls-3" d="M81.19,31.692h3.36l.288,1.441h.1A5.426,5.426,0,0,1,88.727,31.4c2.64,0,3.744,1.92,3.744,4.9v7.392H88.343V36.829c0-1.536-.385-1.921-1.2-1.921a2.5,2.5,0,0,0-1.825.912v7.873H81.19Z" transform="translate(-8.835 -2)"/><path class="cls-3" d="M99.526,31.4a3.608,3.608,0,0,1,2.785,1.2l-.144-1.728V26.988H106.3v16.7h-3.36l-.289-1.1h-.1a4.544,4.544,0,0,1-3.024,1.392c-2.976,0-4.9-2.4-4.9-6.289C94.63,33.757,97.078,31.4,99.526,31.4Zm1.1,9.217a1.647,1.647,0,0,0,1.537-.864V35.341a2.431,2.431,0,0,0-1.633-.576c-.864,0-1.68.767-1.68,2.88C98.854,39.805,99.526,40.621,100.63,40.621Z" transform="translate(-8.835 -2)"/><path class="cls-3" d="M113.206,44.605v3.313h-4.128V31.692h3.36l.288,1.1h.1a4.967,4.967,0,0,1,3.264-1.393c2.833,0,4.656,2.4,4.656,6.1,0,4.128-2.447,6.48-4.992,6.48a3.758,3.758,0,0,1-2.688-1.2Zm1.536-3.984c.96,0,1.777-.767,1.777-3.072,0-1.968-.577-2.784-1.681-2.784a2.006,2.006,0,0,0-1.632.864v4.416A2.2,2.2,0,0,0,114.742,40.621Z" transform="translate(-8.835 -2)"/><path class="cls-3" d="M123,31.692h3.359l.289,2.065h.1A4.024,4.024,0,0,1,130.15,31.4a3.549,3.549,0,0,1,1.489.241l-.673,3.551a5.719,5.719,0,0,0-1.344-.191,2.755,2.755,0,0,0-2.5,2.016v6.672H123Z" transform="translate(-8.835 -2)"/><path class="cls-3" d="M132.789,28.14a2.318,2.318,0,1,1,2.3,2.064A2.114,2.114,0,0,1,132.789,28.14Zm.24,3.552h4.128v12h-4.128Z" transform="translate(-8.835 -2)"/><path class="cls-3" d="M139.941,31.692h3.36l.288,1.441h.1a5.422,5.422,0,0,1,3.792-1.729c2.64,0,3.744,1.92,3.744,4.9v7.392h-4.128V36.829c0-1.536-.384-1.921-1.2-1.921a2.5,2.5,0,0,0-1.825.912v7.873h-4.128Z" transform="translate(-8.835 -2)"/><path class="cls-3" d="M154.437,34.908h-1.584V31.836l1.824-.144.48-3.12h3.408v3.12H161.3v3.216h-2.737v4.1c0,1.32.672,1.752,1.44,1.752a3.458,3.458,0,0,0,1.057-.192l.624,2.977a9.1,9.1,0,0,1-2.832.431c-3.122,0-4.417-1.967-4.417-4.9Z" transform="translate(-8.835 -2)"/><g class="cls-4"><g class="cls-4"><path class="cls-5" d="M15.964,11.028c.176.047.131.158.089.3-.129-.023-.092-.176-.089-.3" transform="translate(-8.835 -2)"/><path class="cls-5" d="M17.677,21.1c.142.044.263.023.218.277-.074-.014-.093.04-.17.022a.677.677,0,0,1-.048-.3" transform="translate(-8.835 -2)"/><path class="cls-5" d="M36.539,33.15c.1-.053.088-.077.066-.2.088-.007.106.041.16.061-.025.095-.084.147-.076.283-.136.02-.072-.117-.15-.143" transform="translate(-8.835 -2)"/><path class="cls-5" d="M11.418,43.918a.229.229,0,0,0-.061.16l-.124-.015c0-.049.018-.072.051-.077-.021-.045-.089-.054-.067-.134.109-.089.069.071.2.066" transform="translate(-8.835 -2)"/><path class="cls-5" d="M11.621,44.319l-.165-.02c-.039-.044.006-.153-.108-.139.025-.062.133-.019.1-.154.04.006.025.054.031.087.031.087.174.087.14.226" transform="translate(-8.835 -2)"/><path class="cls-5" d="M10.835,44.6c0-.036.021-.037.046-.036l.083.01c-.109.124.063.192-.035.288-.218.02-.03-.252-.094-.262" transform="translate(-8.835 -2)"/><path class="cls-5" d="M15.972,10.611c.127-.3-.654-.7-.056-.926-.215-1.321-.3-5.157,1.474-5.3a2.279,2.279,0,0,1,1.925,1.026A5.516,5.516,0,0,1,19.42,9.4a1.832,1.832,0,0,1-.786,1.327c.075.313.331.366.25.7-.033.132-.215.177-.287.3-.207.353-.167.8-.289,1.011-.119.138-.053-.179-.145-.185-.1.057-.019.223-.18.1.119.319-.12.607.061.885-.187.136-.181.228-.229.516-.091.008-.072-.069-.068-.134-.176.228.018.572-.022.875-.185.159-.426.291-.611.219-.107.183-.569.275-.77.492-.125-.013-.15-.106-.232-.153.026-.266.249-.484-.008-.628.165-.262.039-.671.026-.916a.115.115,0,0,1,.134-.068,3.319,3.319,0,0,1-.258-2.371" transform="translate(-8.835 -2)"/><path class="cls-5" d="M32.3,15.586c.171.085-.038.47-.127.361-.117.025.1.09.016.212-.076-.041-.157.223-.168.355a.2.2,0,0,0-.119-.056c.227.243-.359.335-.2.645-.127-.02-.133.114-.3.048.119.1.048.411-.018.5a.516.516,0,0,1-.08.658,2.1,2.1,0,0,1-.556,2.191c0,.413-.377.713-.618.97.046.158.073-.089.169-.022.084.168-.17.313-.2.6-.1-.028-.1.065-.21.017-.027.2-.173.255-.184.48-.14-.175-.221-.006-.293.006-.081-.086-.266-.09-.217-.277-.086-.03-.086.049-.1.114a3.714,3.714,0,0,1-.481-.518c-.119-.056-.084.083-.1.155a.34.34,0,0,1-.274-.159c-.107-.025-.116.074-.143.15-.059-.159-.038-.092-.2-.066.085-.236-.161-.006-.1-.179-.077.029-.093.135-.148.191a1.862,1.862,0,0,1,.411-1.33c-.113-.023-.021-.041-.012-.252a.2.2,0,0,0,.119.056c-.162-.252.108-.135.137-.443-.091-.005-.1.093-.107.2a.807.807,0,0,1,0-.711c.109-.333.315-.353.181-.813.006.021.063-.018.046-.037,0-.127.159-.052.185-.145a2.212,2.212,0,0,1,.071-1.286c.352-.028.479-.34.584-.683.132-.037.252-.091.391-.12a.635.635,0,0,1-.213-.318c.026-.126.112-.175.159-.273a11.091,11.091,0,0,1,.739-3.715.777.777,0,0,0-.093-.262,7.3,7.3,0,0,1,1.242-4.071c.6-.792,1.067-1.526,2.372-1.3.749.129,1.332,1.239,1.364,2.213a6.415,6.415,0,0,1-1.007,3.849c-.069.076-.253.11-.359.207a3.058,3.058,0,0,1-.775.535,2.165,2.165,0,0,1-.6,2.185.112.112,0,0,1-.019.164c-.09.06-.052-.009-.165-.02" transform="translate(-8.835 -2)"/><path class="cls-5" d="M10.307,38.226c.17-.115-.114-.465.074-.618-.169-.093.066-.556-.136-.6.1-.1.224-.433.013-.458a1.225,1.225,0,0,0-.227-1.239c-.011-.095.086-.05.1-.114-.1-.15-.106-.231-.31-.2a.114.114,0,0,1,.133-.068c-.161-.109-.394-.279-.229-.529-.36-.453-.1-1.1-.131-1.688-.023-.405-.269-.676-.164-1.065.353-1.308-.091-3.157.288-4.479a4.95,4.95,0,0,1,.316-.882c.166-.318.526-.49.727-.832s.2-.783.582-1.016a.34.34,0,0,1,.034-.288c-.049-.09-.173.044-.1-.18l-.247-.03c.08-.2.107-.521-.2-.441.079-.174-.021-.207-.227-.2.012-.047,0-.075-.032-.088-.015-.114.1-.069.139-.108-.179.019-.149-.226-.341-.292.017-.106.168-.04.184-.145-.028-.193-.128.057-.2-.066.086-.154-.157-.365.045-.371a.208.208,0,0,0-.109-.138c-.186-.036.065.3-.158.273.115-.111-.062-.416.065-.535-.074-.079-.053,0-.165-.021.135-.325-.356-.316-.106-.514-.021-.126-.073.089-.169.022a4.283,4.283,0,0,0-.359-.838c.007-.149.142-.135.158-.273-.016-.112-.184-.105-.227-.2.129-.106-.014-.209-.048-.3.219-1.478-.515-2.451-.018-4.015a1.951,1.951,0,0,0-.186-.189c-.073-1.122-.561-2.78.122-3.789-.069-.173.1-.4.079-.659a1.278,1.278,0,0,1,1.732-.5,1.753,1.753,0,0,1,1.107,1.219c.053.252.189.505.277.828-.106.209-.189.61,0,.71a.113.113,0,0,1-.1.114c0,.107.077-.048.164.02a6.887,6.887,0,0,1-.173,1.442c-.28.11-.422.66-.732.873a.345.345,0,0,0,.176.272c.067-.01.051-.125.175-.062.343.265.094.924.175,1.316-.021.056-.073-.005-.077-.051-.133.072.029.224-.045.371-.068,0-.066-.047-.118-.056-.115.3.054.578,0,.71.021.126.073-.088.17-.021.037.373-.388.732-.088,1.076a1.366,1.366,0,0,1,.841,1.69c-.039.07-.075,0-.123-.015.033.875-.789,1.174-.558,1.855-.154.047-.008-.142-.109-.138-.027.073.05.25-.122.32.109-.055.266.086.392.214-.057.208.034.322-.054.453a5.183,5.183,0,0,0,1.105.886c.242.113.363-.1.561-.142a10.6,10.6,0,0,1,1.5.014.614.614,0,0,1,.075.427c.169-.064.17-.047.283.076-.086-.169.094-.137.175-.063-.016-.076.141-.156.024-.206-.063.011.01.055-.014.124-.078-.027-.014-.164-.15-.144-.064.011.01.055-.015.124a.271.271,0,0,0-.2-.066c.069-.071.241-.155.3-.089-.129-.256-.058-.018.071-.242a.684.684,0,0,1,.3.287,1.793,1.793,0,0,1,.194-.228c.067-.127-.129-.047-.062-.174a1.839,1.839,0,0,1,.621-.3c.079.05.07.169.048.3.149.079.03-.184.18-.1,0,.2-.006.278.207.359.052-.128-.048-.136-.1-.18.142-.064.025-.21.236-.222-.019-.1.113-.312-.047-.3.129-.152.224,0,.365.086,0-.1,0-.2-.145-.185.015-.113.207-.075.253-.011a.835.835,0,0,0,.522-.522c.693-.193.726-1.1,1.736-.878.262.056.55.2.839-.025.05-.507.11-1,.5-1.067-.028.309.045.31.146.519-.057.122-.057-.1-.113-.1a.8.8,0,0,0-.054.788c-.057-.171.116-.372.055-.453-.02-.041.25,0,.2.107.185-.036.171-.138.335,0,0,.075-.061.081-.061.16a2.257,2.257,0,0,1,1.3.993,1.04,1.04,0,0,1,.508-.4c.436.208.629-.348,1.234-.186.213.057.389.3.625.367.386.116.895-.077,1.241.108.278.329.493.794.95.783.02.121-.071.1-.065.2.126.036.174-.031.22-.1.085.021-.01.182.058.215.238-.123.452.248.573.446-.079.154-.215.4-.013.458a4.285,4.285,0,0,1-.458,2.411c.2.588-.424,1.22-.574,1.644-.2.05-.256.276-.457.322-.079.421-.372.57-.671.713a4.071,4.071,0,0,1-.7,1c.265.322,1.191.215,1.054.963.161.258.527.357.723.588a4.414,4.414,0,0,1,2.773,1.964c.017.164-.118.135-.153.232.008.081.076.115.057.216-.655.705.168.843.418,1.388.055.157.338.133.29.37a2.489,2.489,0,0,1,1.03,1.169c.466.019.374.478.677.624a1.624,1.624,0,0,0-.157.609c.179.233.44.332.466.641.041.471-.377.779-.514,1.15-.135-.014-.172.1-.34.043.15.1.055.223.069.468-.2.067-.318.228-.534.27-.012.1.057.13.012.252-.288.409-.657.715-.932,1.142-.3,0-.434.232-.424.743-.556.7-.967,1.588-1.855,1.866a6.306,6.306,0,0,1-1.429,1.458c-.1-.018-.135.049-.216.058-.482.225-.954.768-1.69.841a21.749,21.749,0,0,1-3.133.334,9.3,9.3,0,0,1-1.941-.192,5.347,5.347,0,0,1-1.681-.621c-1.2-.2-2.189.248-3.2.241-.354,0-.644-.16-.9.143-.5-.1-1.028-.054-1.345-.287-.009-.006.064-.058.051-.077-.132-.2-.481-.412-.714-.671a4.936,4.936,0,0,1-1.1-1.637.207.207,0,0,1,.139-.109c-.086-.2-.615-.5-.137-.6-.128.112.081.184.135.267-.068-.135-.031-.122,0-.334-.089.014-.265-.084-.294.006a.507.507,0,0,1,.03-.247.672.672,0,0,1-.285-.411c-.061.082-.17.1-.2.228-.181-.249-.614-.637-.293-1.038.274.095.279.4.476.558a2.11,2.11,0,0,0-.27-.534c.046-.1.242-.223.035-.288.057-.2.3.128.308-.13-.05-.03-.2-.036-.026-.129-.025-.047-.123-.02-.2-.107.036-.085.258-.008.288.035-.05-.176-.232-.144-.366-.086.123-.047-.064-.2.1-.155-.034-.149-.111-.09-.191-.148.031-.039.1-.032.1-.114-.337-.084-.126-.7-.206-1.07l.124.015c0-.049-.071-.044-.119-.056.019-.071.083-.085.175-.062-.126-.038-.1-.2-.176-.272a.224.224,0,0,1,.184-.145c-.128.077-.316-.45-.027-.463a2,2,0,0,1-.389-1.636m1.048-15.3a.2.2,0,0,1,.056-.118c-.054-.02-.071-.068-.16-.061-.024.106-.006.179.1.179m8.828,9.3c-.142.579-.66.68-.962,1.055-.277.091-.551.186-.574.6.394,0,.057.4.321.457a.214.214,0,0,0-.267.135c.154.159.267.338.593.281a.606.606,0,0,1-.213.726c.114.118.013.172.043.34.123.046.093-.1.216-.058.112.107-.112.262.047.3.218-.314.662-.923,1.105-.494.119-.26.238-.521.491-.61-.181-.663.388-.695.675-1.089.079-.109.054-.268.127-.361.054-.069.169-.068.225-.14.076-.1.072-.24.164-.315.2-.166.52-.143.59-.388-.577-.661-1.836-.2-2.581-.437M18.27,35.966c.055.056.045.164.1.221a1.964,1.964,0,0,0,.312-.506c-.082-.121-.123.1-.206-.025-.056-.2.2-.242.086-.365-.211.171-.162.389-.29.675m1.758,5.186c-.048-.154,0-.3-.038-.381-.077.079-.09.347.038.381m-5.544,6.814c-.073,0-.192-.141-.247-.03.087.061.167.141.247.03" transform="translate(-8.835 -2)"/><path class="cls-5" d="M22.375,18.529c.011.063.055-.01.124.015-.126.3-.055.433-.177.773-.051-.117-.041-.281-.135-.268s.047.118-.061.161c-.063-.023.045-.069-.031-.088-.111.033-.022.321-.127.361.127.052.136-.048.179-.1.072.22-.049.927-.33,1.006-.153-.17,0-.505.152-.568a6.985,6.985,0,0,1,.144-2.239c-.114.234-.12.607-.263.8a1.21,1.21,0,0,1,.077-.994c-.136.031.055-.221-.084-.344.344-.766.123-1.826.674-2.469.673.053.959-.372,1.821-.2.038.118.147.122.053.257a1.272,1.272,0,0,1,.983,1.206,7.715,7.715,0,0,0-.206,1.02,1.072,1.072,0,0,0-.378.707,3.6,3.6,0,0,0-.915,1.352c-.144-.011-.041-.216-.182-.23-.039.02-.079.04-.082-.01-.14.018-.048.23-.168.356-.175-.024-.053-.283-.166-.355-.193.1-.353.4-.653.214-.017.15.208.11.268.2a1.819,1.819,0,0,1-.207.685c-.363-.443.024-1.121-.229-1.574-.113.041-.119.188.062.175-.047.05-.057.149-.143.15" transform="translate(-8.835 -2)"/><path class="cls-5" d="M17.369,20.184c.111.053.153.039.021.17.024.086.179-.054.257-.053-.038-.081-.215-.055-.139-.226.085.19.081-.013.211-.016a.7.7,0,0,0,.151.478c-.005.193-.253.077-.267.135-.049-.064-.064-.214-.012-.252-.108-.044-.092.072-.174.062,0,.049.071.044.119.056-.081.071-.119.2-.2.269-.147-.075-.189.02-.381.038a1.5,1.5,0,0,0,.007-.752.114.114,0,0,0-.1.114c-.331-.723-.739-1.385-1.131-2.059-.093-.492-.4-1.359.084-1.745.046-.123-.1-.093-.057-.216.157-.187.382-.235.43-.45a.473.473,0,0,0,.56-.142c.136-.019.12.081.2.108a.375.375,0,0,0,.185-.145c.618.041.728.306,1.048.669a1.534,1.534,0,0,1,.461,1.728,3.489,3.489,0,0,0-.449.949c-.235.128-.332.432-.569.558.018.165.168-.118.165.02-.181.235-.084.325-.106.531-.038-.032-.031-.1-.113-.1-.187.006-.073.29-.2.269" transform="translate(-8.835 -2)"/><path class="cls-5" d="M38,28.686c.013-.046.044-.018.041,0,.076-.118.2-.455.111-.572.354-.94,1.4-.828,2.156-1.245a3.4,3.4,0,0,1,1.835-.657,1.852,1.852,0,0,1,1.7,1.459c.036,1.555-1.269,2.292-1.973,3.19a7.364,7.364,0,0,1-2.725,2.849l-.206-.025c-.353.844-1.665.552-2.335.3-.065.077-.178.235-.3.089.136-.245-.112-.627.306-.8.118.13-.148.117-.031.247.082-.007.027-.188.18-.1-.058-.194.069-.289.183-.48.035-.127-.089-.128-.145-.184.087-.049.1-.191.159-.274a2.644,2.644,0,0,1,.131-1.781c.057.042.043.14.057.216.188-.022.073-.18.159-.274-.013-.132-.1-.067-.2-.066.011-.1.023-.192.034-.288.088-.068.1.008.206.025-.02-.059-.078-.088-.155-.1,0-.1.087-.08.066-.2.17.008.012.089.022.17l.124.015c.1-.156.093-.1.127-.361a.191.191,0,0,0,.118.056c.017-.069-.057-.115.015-.123-.156.1-.148-.418-.007-.294-.026-.091-.11-.137-.093-.262.175.049.12-.2.308-.13-.15-.224.327-.279.132-.4" transform="translate(-8.835 -2)"/><path class="cls-5" d="M26.418,8.9c.606.642-.058,1.859-.354,2.591a.233.233,0,0,1-.169.021c.021.045.089.054.067.133-.258.027-.534.515-.491.61-.127.045-.275.062-.319.212-.115.016.053-.191-.062-.174a1.46,1.46,0,0,1-.173.4c-.755-.046-.983-.542-1.528-.853,0,.21.265.375.142.561-.128.1-.032-.066-.114-.1-.17.221-.006.574-.285.634a3.525,3.525,0,0,1,.154-1.277c.077.014.012.14.108.139a4.892,4.892,0,0,1,.087-1.411c-.029-.064-.014-.163-.15-.143a12.181,12.181,0,0,1,.387-1.834,1.767,1.767,0,0,0,.04-.33A18.176,18.176,0,0,1,24.01,4.6c.35-1.291,1.016-2.872,2.356-2.558a2.477,2.477,0,0,1,1.878,2.107,7.081,7.081,0,0,1-1.292,4.484,2.308,2.308,0,0,0-.534.27" transform="translate(-8.835 -2)"/></g></g></svg>