<svg id="Layer_1" data-name="Layer 1" xmlns="http://www.w3.org/2000/svg" xmlns:xlink="http://www.w3.org/1999/xlink" width="202.181" height="47.815" viewBox="0 0 202.181 47.815"><defs><style>.cls-1{fill:none;}.cls-2,.cls-5{fill:#93c13e;}.cls-3{fill:#235d2f;}.cls-4{clip-path:url(#clip-path);}.cls-5{fill-rule:evenodd;}</style><clipPath id="clip-path" transform="translate(-9.616 -1.282)"><rect class="cls-1" x="1.366" y="-0.634" width="50" height="50" transform="translate(-5.169 7.208) rotate(-14.192)"/></clipPath></defs><path class="cls-2" d="M52.15,5.092H62.231V8.548H56.279V11h5.088v3.456H56.279v2.784h6.192v3.456H52.15Z" transform="translate(-9.616 -1.282)"/><path class="cls-2" d="M65.159,8.692h3.36l.288,1.44h.1A5.421,5.421,0,0,1,72.695,8.4c2.64,0,3.744,1.92,3.744,4.9v7.392H72.312V13.829c0-1.537-.385-1.92-1.2-1.92a2.5,2.5,0,0,0-1.824.912v7.872H65.159Z" transform="translate(-9.616 -1.282)"/><path class="cls-2" d="M78.022,8.692H82.15l1.3,5.233q.432,1.8.865,3.744h.095q.432-1.944.865-3.744l1.3-5.233H90.5l-3.793,12H81.958Z" transform="translate(-9.616 -1.282)"/><path class="cls-2" d="M91.942,5.14a2.319,2.319,0,0,1,4.609,0,2.319,2.319,0,0,1-4.609,0Zm.24,3.552h4.129v12H92.182Z" transform="translate(-9.616 -1.282)"/><path class="cls-2" d="M99.094,8.692h3.36l.288,2.064h.1A4.027,4.027,0,0,1,106.247,8.4a3.545,3.545,0,0,1,1.487.241l-.672,3.552A5.656,5.656,0,0,0,105.718,12a2.758,2.758,0,0,0-2.5,2.017v6.672H99.094Z" transform="translate(-9.616 -1.282)"/><path class="cls-2" d="M114.214,8.4a5.945,5.945,0,0,1,5.953,6.289,5.961,5.961,0,1,1-11.9,0A5.944,5.944,0,0,1,114.214,8.4Zm0,9.265c1.248,0,1.728-1.152,1.728-2.976s-.48-2.976-1.728-2.976-1.728,1.152-1.728,2.976S112.966,17.669,114.214,17.669Z" transform="translate(-9.616 -1.282)"/><path class="cls-2" d="M122.326,8.692h3.36l.288,1.44h.1A5.421,5.421,0,0,1,129.862,8.4c2.641,0,3.744,1.92,3.744,4.9v7.392h-4.127V13.829c0-1.537-.384-1.92-1.2-1.92a2.5,2.5,0,0,0-1.824.912v7.872h-4.128Z" transform="translate(-9.616 -1.282)"/><path class="cls-2" d="M136.294,8.692h3.359l.288,1.464h.1a4.912,4.912,0,0,1,3.6-1.752,3.393,3.393,0,0,1,3.312,1.92,5.072,5.072,0,0,1,3.7-1.92c2.641,0,3.793,1.92,3.793,4.9v7.392h-4.128V13.829c0-1.537-.384-1.92-1.2-1.92a2.564,2.564,0,0,0-1.679.912v7.872H143.3V13.829c0-1.537-.384-1.92-1.2-1.92a2.564,2.564,0,0,0-1.68.912v7.872h-4.128Z" transform="translate(-9.616 -1.282)"/><path class="cls-2" d="M162.262,8.4c3.552,0,5.232,2.593,5.232,5.809a7.479,7.479,0,0,1-.168,1.632h-6.841a2.519,2.519,0,0,0,2.786,2.016,4.932,4.932,0,0,0,2.448-.72l1.343,2.448a8.082,8.082,0,0,1-4.368,1.392,5.894,5.894,0,0,1-6.192-6.288A5.942,5.942,0,0,1,162.262,8.4Zm1.728,4.945c0-1.008-.384-1.825-1.632-1.825-.912,0-1.68.505-1.92,1.825Z" transform="translate(-9.616 -1.282)"/><path class="cls-2" d="M169.75,8.692h3.359l.288,1.44h.1A5.421,5.421,0,0,1,177.286,8.4c2.641,0,3.744,1.92,3.744,4.9v7.392H176.9V13.829c0-1.537-.383-1.92-1.2-1.92a2.5,2.5,0,0,0-1.824.912v7.872H169.75Z" transform="translate(-9.616 -1.282)"/><path class="cls-2" d="M184.244,11.909H182.66V8.836l1.824-.144.481-3.12h3.408v3.12h2.736v3.217h-2.736v4.1c0,1.32.672,1.752,1.439,1.752a3.452,3.452,0,0,0,1.057-.192l.624,2.977a9.1,9.1,0,0,1-2.832.431c-3.121,0-4.417-1.967-4.417-4.9Z" transform="translate(-9.616 -1.282)"/><path class="cls-2" d="M199.222,12.917c-.1-.864-.624-1.249-1.681-1.249a6.534,6.534,0,0,0-3.024,1.009l-1.44-2.689a10.114,10.114,0,0,1,5.28-1.584c3.121,0,4.993,1.68,4.993,5.617v6.672h-3.361l-.288-1.152h-.1a4.865,4.865,0,0,1-3.312,1.44,3.529,3.529,0,0,1-3.6-3.7C192.692,14.789,194.613,13.4,199.222,12.917Zm-1.489,4.9A1.894,1.894,0,0,0,199.222,17V15.365c-1.969.288-2.593.912-2.593,1.584C196.629,17.5,197.013,17.813,197.733,17.813Z" transform="translate(-9.616 -1.282)"/><path class="cls-2" d="M206.085,3.988h4.128V16.613c0,.816.384,1.056.672,1.056a1.481,1.481,0,0,0,.432-.048l.48,3.025a5.128,5.128,0,0,1-2.016.335c-2.785,0-3.7-1.824-3.7-4.512Z" transform="translate(-9.616 -1.282)"/><path class="cls-3" d="M52.15,28.092h4.129V33.9h4.656V28.092h4.128v15.6H60.935V37.5H56.279v6.192H52.15Z" transform="translate(-9.616 -1.282)"/><path class="cls-3" d="M74.327,35.917c-.1-.864-.624-1.248-1.681-1.248a6.546,6.546,0,0,0-3.024,1.008l-1.44-2.689a10.114,10.114,0,0,1,5.28-1.584c3.121,0,4.993,1.68,4.993,5.617v6.672H75.1l-.288-1.152h-.1a4.871,4.871,0,0,1-3.313,1.44,3.528,3.528,0,0,1-3.6-3.7C67.8,37.789,69.718,36.4,74.327,35.917Zm-1.489,4.9A1.888,1.888,0,0,0,74.327,40V38.365c-1.969.288-2.593.912-2.593,1.584C71.734,40.5,72.119,40.813,72.838,40.813Z" transform="translate(-9.616 -1.282)"/><path class="cls-3" d="M81.19,31.692h3.36l.288,1.441h.1A5.426,5.426,0,0,1,88.727,31.4c2.64,0,3.744,1.92,3.744,4.9v7.392H88.343V36.829c0-1.536-.385-1.921-1.2-1.921a2.5,2.5,0,0,0-1.825.912v7.873H81.19Z" transform="translate(-9.616 -1.282)"/><path class="cls-3" d="M99.526,31.4a3.608,3.608,0,0,1,2.785,1.2l-.144-1.728V26.988H106.3v16.7h-3.36l-.289-1.1h-.1a4.544,4.544,0,0,1-3.024,1.392c-2.976,0-4.9-2.4-4.9-6.289C94.63,33.757,97.078,31.4,99.526,31.4Zm1.1,9.217a1.647,1.647,0,0,0,1.537-.864V35.341a2.431,2.431,0,0,0-1.633-.576c-.864,0-1.68.767-1.68,2.88C98.854,39.805,99.526,40.621,100.63,40.621Z" transform="translate(-9.616 -1.282)"/><path class="cls-3" d="M113.206,44.605v3.313h-4.128V31.692h3.36l.288,1.1h.1a4.967,4.967,0,0,1,3.264-1.393c2.833,0,4.656,2.4,4.656,6.1,0,4.128-2.447,6.48-4.992,6.48a3.758,3.758,0,0,1-2.688-1.2Zm1.536-3.984c.96,0,1.777-.767,1.777-3.072,0-1.968-.577-2.784-1.681-2.784a2.006,2.006,0,0,0-1.632.864v4.416A2.2,2.2,0,0,0,114.742,40.621Z" transform="translate(-9.616 -1.282)"/><path class="cls-3" d="M123,31.692h3.359l.289,2.065h.1A4.024,4.024,0,0,1,130.15,31.4a3.549,3.549,0,0,1,1.489.241l-.673,3.551a5.719,5.719,0,0,0-1.344-.191,2.755,2.755,0,0,0-2.5,2.016v6.672H123Z" transform="translate(-9.616 -1.282)"/><path class="cls-3" d="M132.789,28.14a2.318,2.318,0,1,1,2.3,2.064A2.114,2.114,0,0,1,132.789,28.14Zm.24,3.552h4.128v12h-4.128Z" transform="translate(-9.616 -1.282)"/><path class="cls-3" d="M139.941,31.692h3.36l.288,1.441h.1a5.422,5.422,0,0,1,3.792-1.729c2.64,0,3.744,1.92,3.744,4.9v7.392h-4.128V36.829c0-1.536-.384-1.921-1.2-1.921a2.5,2.5,0,0,0-1.825.912v7.873h-4.128Z" transform="translate(-9.616 -1.282)"/><path class="cls-3" d="M154.437,34.908h-1.584V31.836l1.824-.144.48-3.12h3.408v3.12H161.3v3.216h-2.737v4.1c0,1.32.672,1.752,1.44,1.752a3.458,3.458,0,0,0,1.057-.192l.624,2.977a9.1,9.1,0,0,1-2.832.431c-3.122,0-4.417-1.967-4.417-4.9Z" transform="translate(-9.616 -1.282)"/><g class="cls-4"><g class="cls-4"><path class="cls-5" d="M16.119,12.546c.182,0,.166.121.161.272-.131.009-.133-.148-.161-.272" transform="translate(-9.616 -1.282)"/><path class="cls-5" d="M20.249,21.889c.149.008.261-.042.279.215-.075,0-.08.061-.159.063a.676.676,0,0,1-.12-.278" transform="translate(-9.616 -1.282)"/><path class="cls-5" d="M41.49,28.948c.086-.076.067-.1.015-.211.084-.028.113.014.17.02,0,.1-.045.163,0,.293-.127.053-.1-.1-.181-.1" transform="translate(-9.616 -1.282)"/><path class="cls-5" d="M19.777,45.547a.227.227,0,0,0-.02.17l-.124.016c-.013-.048,0-.075.03-.088-.031-.038-.1-.03-.1-.113.084-.113.085.052.212.015" transform="translate(-9.616 -1.282)"/><path class="cls-5" d="M20.071,45.886l-.165.021c-.048-.033-.031-.15-.139-.109.009-.066.125-.051.062-.174.04,0,.037.046.051.077.051.077.19.041.191.185" transform="translate(-9.616 -1.282)"/><path class="cls-5" d="M19.378,46.351c-.012-.034.011-.041.035-.046l.083-.011c-.075.147.109.171.037.288-.206.073-.091-.237-.155-.231" transform="translate(-9.616 -1.282)"/><path class="cls-5" d="M16.025,12.139c.049-.324-.806-.521-.281-.884-.532-1.228-1.56-4.925.13-5.5a2.279,2.279,0,0,1,2.118.522,5.513,5.513,0,0,1,1.078,3.836,1.833,1.833,0,0,1-.436,1.479c.149.285.41.274.413.617,0,.136-.165.224-.205.36-.114.393.034.813-.032,1.051-.081.163-.095-.161-.186-.144-.082.08.036.221-.149.145.194.28.033.618.276.843-.148.178-.119.265-.1.556-.086.031-.087-.049-.1-.113-.115.264.158.55.193.854-.14.2-.341.386-.538.362-.059.2-.485.406-.626.666-.125.018-.172-.066-.263-.092-.04-.264.123-.53-.162-.607.1-.294-.126-.66-.2-.894a.116.116,0,0,1,.113-.1,3.319,3.319,0,0,1-.831-2.235" transform="translate(-9.616 -1.282)"/><path class="cls-5" d="M33.076,12.96c.186.039.078.464-.035.381-.108.052.119.063.067.2-.084-.021-.1.255-.075.387A.194.194,0,0,0,32.9,13.9c.279.179-.266.412-.039.674-.128.012-.1.144-.278.119.139.064.148.388.1.489a.516.516,0,0,1,.084.658,2.1,2.1,0,0,1,0,2.261c.1.4-.191.783-.362,1.091.084.142.049-.1.159-.062.122.142-.088.345-.044.633-.1,0-.08.087-.2.068.024.2-.105.289-.061.51-.178-.135-.215.049-.282.078-.1-.064-.28-.022-.278-.215-.091-.008-.072.068-.068.134a3.717,3.717,0,0,1-.593-.384c-.129-.025-.061.1-.061.175a.337.337,0,0,1-.3-.087c-.11,0-.1.1-.1.181-.1-.14-.06-.08-.211-.015.024-.25-.158.034-.145-.148-.068.047-.057.154-.1.221a1.866,1.866,0,0,1,.073-1.39c-.115.006-.031-.034-.074-.241a.2.2,0,0,0,.129.025c-.218-.205.072-.157.025-.463-.09.017-.075.115-.056.216a.805.805,0,0,1-.172-.69c.024-.349.218-.419-.024-.832.01.018.056-.033.035-.047-.031-.124.142-.09.144-.186a2.216,2.216,0,0,1-.247-1.265c.335-.114.381-.448.4-.8.119-.069.222-.15.35-.212-.107-.071-.226-.123-.284-.256-.006-.129.065-.2.086-.3a11.1,11.1,0,0,1-.194-3.782.778.778,0,0,0-.154-.231,7.3,7.3,0,0,1,.206-4.252c.388-.914.66-1.74,1.98-1.845.757-.059,1.595.874,1.865,1.81a6.424,6.424,0,0,1-.033,3.98c-.048.09-.218.168-.3.288a3.043,3.043,0,0,1-.621.708,2.163,2.163,0,0,1-.044,2.265.113.113,0,0,1,.022.165c-.072.079-.052,0-.164.021" transform="translate(-9.616 -1.282)"/><path class="cls-5" d="M17.3,40.3c.137-.153-.225-.422-.08-.617-.186-.049-.072-.555-.279-.55.07-.119.111-.475-.1-.447a1.225,1.225,0,0,0-.524-1.146c-.034-.089.071-.069.067-.134-.136-.121-.159-.2-.35-.122a.113.113,0,0,1,.112-.1c-.183-.066-.45-.174-.352-.456-.46-.351-.362-1.04-.541-1.6-.121-.387-.426-.589-.42-.992.022-1.355-.862-3.038-.819-4.413a4.929,4.929,0,0,1,.091-.933c.083-.349.389-.6.5-.984s0-.808.316-1.128a.337.337,0,0,1-.038-.288c-.07-.075-.157.085-.144-.149l-.247.032c.029-.212-.024-.532-.3-.379.034-.189-.071-.2-.268-.134,0-.048-.019-.072-.052-.077-.043-.107.075-.09.108-.139-.169.062-.2-.183-.4-.2-.01-.107.153-.08.142-.185-.074-.181-.11.086-.211-.015.046-.17-.241-.315-.047-.371a.209.209,0,0,0-.139-.107c-.19.011.135.272-.087.3.085-.136-.162-.388-.068-.535-.091-.058-.052.01-.165.02.051-.348-.423-.219-.229-.472-.051-.117-.049.1-.158.063a4.245,4.245,0,0,0-.554-.725c-.029-.146.105-.166.087-.3-.043-.105-.205-.057-.268-.134.1-.134-.065-.2-.12-.277-.15-1.486-1.1-2.25-1-3.888a2,2,0,0,0-.226-.137c-.346-1.07-1.226-2.558-.811-3.7-.109-.151,0-.41-.085-.658a1.277,1.277,0,0,1,1.556-.911,1.752,1.752,0,0,1,1.372.91c.113.231.307.443.472.735-.052.229-.034.638.172.689a.113.113,0,0,1-.066.134c.023.105.063-.065.164-.021a6.878,6.878,0,0,1,.185,1.441c-.244.175-.247.743-.495,1.025a.344.344,0,0,0,.237.221c.063-.026.019-.134.155-.1.4.173.317.873.492,1.233-.007.059-.072.013-.087-.031-.112.1.083.21.047.371-.065.021-.075-.029-.128-.025-.038.321.194.547.172.689.051.117.049-.1.16-.063.127.353-.2.8.178,1.065a1.367,1.367,0,0,1,1.23,1.432c-.021.078-.074.016-.123.016.246.84-.477,1.332-.086,1.935-.138.084-.043-.135-.14-.107-.008.078.11.23-.04.34.093-.08.279.019.433.112,0,.215.112.3.059.452a5.181,5.181,0,0,0,1.288.588c.262.05.328-.183.509-.275a10.541,10.541,0,0,1,1.46-.355.617.617,0,0,1,.177.4c.148-.1.153-.087.293,0-.125-.143.058-.156.154-.1-.034-.07.1-.186-.027-.205-.058.026.023.05.017.123-.082-.007-.054-.155-.181-.1-.059.027.023.051.016.124a.269.269,0,0,0-.211-.014c.05-.086.2-.21.272-.161-.188-.217-.061,0,.01-.252a.686.686,0,0,1,.361.2,1.722,1.722,0,0,1,.132-.269c.034-.139-.137-.014-.1-.153a1.826,1.826,0,0,1,.528-.445c.089.029.109.146.12.278.164.04-.016-.186.149-.145.043.19.062.271.289.3.019-.137-.08-.12-.145-.149.122-.1-.028-.21.174-.273-.042-.089.033-.33-.119-.277.088-.179.218-.053.375-.007-.026-.094-.051-.19-.186-.143-.013-.114.183-.124.243-.073a.836.836,0,0,0,.378-.634c.625-.357.435-1.242,1.468-1.277.268-.01.582.06.807-.23-.076-.5-.138-1,.228-1.158.049.306.12.289.269.467-.025.132-.079-.081-.134-.067a.806.806,0,0,0,.141.777c-.1-.152.021-.389-.058-.453-.029-.034.242-.063.217.056.17-.08.132-.176.324-.084.015.074-.039.094-.02.17a2.258,2.258,0,0,1,1.5.644,1.036,1.036,0,0,1,.395-.511c.473.095.524-.491,1.151-.482.22,0,.449.192.7.2.4.018.849-.294,1.23-.2.35.25.673.648,1.113.526.049.112-.044.114-.014.211.131,0,.161-.073.19-.149.087,0,.034.179.108.194.2-.178.5.129.665.292-.039.168-.11.442.1.447a4.28,4.28,0,0,1,.147,2.45c.339.52-.112,1.286-.153,1.734-.179.1-.181.331-.364.424a.977.977,0,0,1-.476.856,4.071,4.071,0,0,1-.438,1.144c.336.248,1.207-.083,1.258.676.219.21.6.217.845.392A4.415,4.415,0,0,1,35.9,32.01c.057.154-.081.159-.092.262.028.077.1.093.109.2-.462.844.369.776.745,1.243.092.138.361.046.372.287a2.5,2.5,0,0,1,1.285.881c.457-.1.48.372.81.439a1.609,1.609,0,0,0,0,.629c.23.182.508.214.609.507.155.447-.175.848-.217,1.241-.134.02-.142.137-.319.125.171.064.108.2.182.437-.174.113-.253.3-.452.393.012.1.087.112.074.241-.179.467-.462.854-.624,1.336-.287.075-.364.331-.229.824-.367.816-.548,1.776-1.341,2.264a6.292,6.292,0,0,1-1.028,1.764c-.1.007-.118.08-.195.109-.412.336-.736.978-1.432,1.229A21.713,21.713,0,0,1,31.2,47.509a9.26,9.26,0,0,1-1.929.29,5.327,5.327,0,0,1-1.782-.19c-1.21.1-2.062.777-3.048,1.02-.344.084-.664,0-.833.358a3.86,3.86,0,0,1-1.374.051c-.01,0,.048-.072.03-.087-.177-.163-.567-.281-.856-.475a4.94,4.94,0,0,1-1.466-1.318.207.207,0,0,1,.108-.14c-.132-.171-.72-.338-.281-.55-.1.14.124.158.2.226-.1-.115-.06-.111-.083-.324-.083.036-.278-.016-.284.078a.508.508,0,0,1-.031-.247.67.67,0,0,1-.377-.328c-.039.094-.14.14-.133.268-.237-.2-.752-.467-.539-.934.289.025.369.322.6.424a2.11,2.11,0,0,0-.392-.451c.019-.112.18-.276-.037-.288.006-.208.32.051.267-.2-.056-.016-.2.013-.057-.118-.036-.04-.124.01-.216-.056.014-.091.248-.071.287-.037-.091-.158-.26-.082-.376.007.108-.076-.109-.174.062-.176-.069-.136-.129-.06-.221-.1.02-.046.088-.056.066-.135-.347,0-.294-.649-.462-.987l.124-.015c-.013-.048-.08-.026-.129-.026,0-.073.059-.1.154-.1-.131-.006-.145-.165-.237-.22a.223.223,0,0,1,.143-.186c-.106.106-.417-.359-.14-.442a2,2,0,0,1-.778-1.491M14.44,25.522a.2.2,0,0,1,.026-.128c-.057-.006-.086-.048-.17-.02,0,.109.038.175.144.148m10.838,6.849c.005.6-.473.821-.674,1.259-.246.156-.488.315-.409.721.383-.093.154.377.423.364a.216.216,0,0,0-.226.2c.189.116.342.262.644.127a.606.606,0,0,1-.028.756c.139.086.054.164.125.319.13.014.064-.124.2-.109.135.076-.045.281.119.278.134-.358.415-1.057.95-.75a1,1,0,0,1,.326-.711c-.338-.6.206-.769.388-1.222.05-.125-.014-.273.034-.381.036-.08.147-.107.184-.191.05-.112.011-.25.082-.345.156-.211.469-.266.477-.521-.722-.5-1.831.251-2.61.209m-.809,3.786c.067.041.084.148.149.19a1.921,1.921,0,0,0,.178-.567c-.109-.1-.095.123-.2.027-.1-.183.138-.285-.006-.375-.163.217-.062.416-.116.725m2.976,4.6c-.085-.138-.072-.293-.131-.36-.055.095,0,.358.131.36M23.74,48.719c-.07.021-.22-.09-.246.032.1.037.2.095.246-.032" transform="translate(-9.616 -1.282)"/><path class="cls-5" d="M24.174,18.246c.026.059.051-.023.124-.015-.049.319.053.433.018.792-.078-.1-.109-.262-.2-.226s.075.1-.019.171c-.067-.007.026-.078-.052-.078-.1.059.057.317-.035.381.136.019.12-.08.148-.145.124.2.18.911-.073,1.057A.415.415,0,0,1,24.1,19.6a6.991,6.991,0,0,1-.409-2.206,6.148,6.148,0,0,1-.058.844,1.21,1.21,0,0,1-.169-.983c-.124.063,0-.228-.166-.313.146-.827-.328-1.8.048-2.559.666-.113.839-.6,1.717-.639.066.1.172.082.114.236a1.272,1.272,0,0,1,1.249.928,7.689,7.689,0,0,0,.05,1.04,1.076,1.076,0,0,0-.193.778,3.594,3.594,0,0,0-.555,1.535c-.143.024-.093-.2-.233-.179-.033.029-.067.059-.082.011-.132.052.01.235-.076.386-.175.02-.121-.261-.248-.3-.163.14-.243.478-.58.367.02.15.228.056.308.128a1.823,1.823,0,0,1-.032.715c-.461-.34-.252-1.092-.608-1.47-.1.068-.069.212.1.155-.033.06-.019.158-.1.18" transform="translate(-9.616 -1.282)"/><path class="cls-5" d="M19.726,21.078c.121.024.158,0,.062.159.045.078.161-.1.237-.114-.057-.069-.222,0-.191-.185.129.163.076-.033.2-.067a.7.7,0,0,0,.264.426c.042.188-.227.137-.226.2-.063-.05-.115-.192-.073-.241-.116-.016-.072.092-.154.1.013.047.08.025.129.025-.061.088-.067.221-.128.31-.161-.037-.178.065-.36.13a1.507,1.507,0,0,0-.177-.731.115.115,0,0,0-.067.134c-.5-.619-1.056-1.161-1.6-1.718-.211-.455-.724-1.219-.346-1.713.014-.13-.123-.065-.108-.2.106-.22.312-.322.306-.542A.473.473,0,0,0,18,16.78c.127-.052.136.049.217.057a.371.371,0,0,0,.143-.186c.61-.112.781.118,1.181.391a1.537,1.537,0,0,1,.87,1.563,3.5,3.5,0,0,0-.2,1.03c-.2.182-.215.5-.414.68.058.156.134-.155.165-.021-.118.272,0,.336.027.541-.045-.022-.055-.089-.134-.067-.179.051,0,.3-.128.31" transform="translate(-9.616 -1.282)"/><path class="cls-5" d="M41.809,24.263c0-.048.038-.028.041-.005.045-.133.084-.491-.033-.582.113-1,1.153-1.145,1.785-1.735a3.4,3.4,0,0,1,1.618-1.087,1.851,1.851,0,0,1,2.011,1c.416,1.5-.669,2.533-1.131,3.577a7.362,7.362,0,0,1-1.943,3.43l-.206.026c-.135.905-1.479.943-2.189.867-.044.091-.115.272-.273.161.072-.271-.263-.58.1-.85.146.1-.115.15.03.248.078-.027-.02-.189.149-.145-.1-.174,0-.3.06-.511,0-.131-.118-.1-.186-.142.072-.069.049-.21.087-.3a2.645,2.645,0,0,1-.31-1.759c.066.027.076.125.109.2.177-.068.026-.193.087-.3-.045-.125-.118-.039-.211-.015-.013-.1-.025-.192-.038-.287.069-.088.1-.018.206-.027a.18.18,0,0,0-.176-.061c-.029-.1.065-.1.015-.211.167-.034.033.083.063.159l.124-.016a.507.507,0,0,0,.034-.381.193.193,0,0,0,.129.025c0-.071-.084-.1-.016-.123-.127.137-.246-.369-.079-.283-.047-.082-.14-.106-.154-.231.181,0,.068-.22.266-.2-.2-.18.249-.35.03-.422" transform="translate(-9.616 -1.282)"/><path class="cls-5" d="M25.733,7.921c.745.474.4,1.816.292,2.6a.226.226,0,0,1-.158.061c.031.039.1.031.1.113a.779.779,0,0,0-.326.712c-.112.074-.252.127-.257.283-.108.044,0-.2-.1-.153a1.451,1.451,0,0,1-.071.427c-.743.141-1.085-.284-1.69-.452.051.2.349.3.275.509-.1.127-.047-.056-.134-.067-.111.256.135.558-.121.684a3.52,3.52,0,0,1-.164-1.275c.078-.006.046.132.139.108a4.911,4.911,0,0,1-.262-1.389c-.044-.055-.053-.155-.18-.1A12.138,12.138,0,0,1,23,8.106a1.8,1.8,0,0,0-.042-.33,18.124,18.124,0,0,1-.609-3.436C22.367,3,22.625,1.306,24,1.282a2.476,2.476,0,0,1,2.337,1.582,7.082,7.082,0,0,1-.153,4.664,2.318,2.318,0,0,0-.452.393" transform="translate(-9.616 -1.282)"/></g></g></svg>