<svg id="_Layer_" data-name="&lt;Layer&gt;" xmlns="http://www.w3.org/2000/svg" width="1706.88" height="1257" viewBox="0 0 1706.88 1257"><defs><style>.cls-1{fill:#fbe2c6;}.cls-2{fill:#8bd27c;}.cls-3{fill:#d86713;}.cls-4{fill:#f1a34f;}.cls-5{fill:#c95c12;}.cls-6{fill:#79b36d;}.cls-7{fill:#84d274;}.cls-8{fill:#82b378;}.cls-9{fill:#ffb973;}.cls-10{fill:#ed975d;}.cls-11{fill:#ae6427;}.cls-12{fill:#233862;}.cls-13{fill:#8a4f1f;}.cls-14{fill:#ffb27d;}.cls-15{fill:#faf0be;}.cls-16{fill:#699dee;}.cls-17{fill:#4a82d3;}.cls-18{fill:#a9453d;}.cls-19{fill:#2c3a64;}.cls-20{fill:#ee811d;}.cls-21{fill:#d4731a;}.cls-22{fill:#1e3d70;}.cls-23{fill:#2a4e96;}.cls-24{fill:#35488b;}.cls-25{fill:#56220d;}.cls-26{fill:#a33118;}.cls-27{fill:#2e1207;}.cls-28{fill:#e84522;}.cls-29{fill:#2b478b;}.cls-30{fill:#2e3552;}.cls-31{fill:#4a75cb;}.cls-32{fill:#4271bc;}</style></defs><path class="cls-1" d="M112.786,1254.593s-185.469-602,180.069-602c193.138,0,113.574-165.168,244.883-356.319S1128.259-47.588,1226,321.528s-143.81,649.369,89.6,601.294c280.484-57.771,391.284,331.771,391.284,331.771Z"/><path class="cls-2" d="M1465.37,1184.21c-14.734-19.277-44.839-6.263-67.059,7.657a193.334,193.334,0,0,0-12.213-25.372c47.867-55.211,113.977-172.951,78.937-182.918-30.459-8.664-71.568,97.317-93.536,161.833-22.814-27.479-57.771-47.68-111.144-40.675-138.515,18.183-246.723-141.795-326.488-88.439-63.42,42.424-121.539,66.19-177.593,58.071,2.413-73.316,2.936-217.266-29.218-232.2-32.643-15.161-.623,148.318,17.173,229.948q-6.264-1.434-12.5-3.425c-11.524-40.684-30.513-93.924-51.365-95.745-19.636-1.713,4.6,46.151,28.449,86.7-68.547-25.767-149.859,74-151.208,191.963h855.77a226.033,226.033,0,0,0-8.231-39.921C1438.222,1210.528,1481.374,1205.15,1465.37,1184.21Z"/><rect class="cls-3" x="786.714" y="921.128" width="300.709" height="324" transform="translate(1874.138 2166.256) rotate(180)"/><rect class="cls-4" x="693.996" y="921.128" width="300.708" height="324" transform="translate(1688.699 2166.256) rotate(180)"/><polygon class="cls-5" points="994.704 921.128 1087.423 969.778 1087.423 921.128 994.704 921.128"/><path class="cls-6" d="M568.442,920.4s-56.236,41.819-67.2,39.282,41.1-45.141,41.1-45.141c-19.591-9.42-80.494-3.514-80.494-3.514s-20.285,65.417-30.29,60.26,20.918-57.008,20.918-57.008c-21.82-1.315-48.584,14.887-48.584,14.887-36.638,28.935,2.408,74.488,2.408,74.488s-7.519,22.52-30.657,43.026c0,0-33.045,24.438-35.34,68.1l6,.536s9.509-40.668,26.786-59.9c.672-.695,1.649-1.7,2.854-2.911,2.815-2.606,4.787-4.565,6.112-6.019,8.6-8.263,20.484-18.788,26.208-19.807a11.034,11.034,0,0,1-.244-2.879c.078.921.159,1.87.244,2.879,1.961,23.023,46.628,43.13,74.106,47.264s18.984-7.16,9.516-23.908-39.43-24.242-46.266-31.955,7.3-7.73,23.854-.169,18.823,27.724,45.382,40.444S581.371,1027,581.371,1027c-21.166-1.074-51.393-24.062-50.3-31.1s51.309,12.135,59.893,13.054,28.117-9.757,31.138-44.336S568.442,920.4,568.442,920.4Z"/><path class="cls-7" d="M269.777,946.365s62.113-34.784,33.127-81.989c0,0-23.189-28.986-48.033-36.44,0,0,13.25,70.395,0,72.051s-9.111-79.5-9.111-79.5-65.426-31.47-91.1-28.986c0,0,40.581,68.739,27.33,67.083s-58.8-71.223-58.8-71.223-67.083-12.423-77.849,27.33,6.625,59.628,16.564,62.113,73.707,1.655,72.051,9.937-44.721,21.533-68.739,14.079c0,0,26.5,65.426,61.285,62.114s45.55-24.846,67.082-26.5,37.268,4.14,26.5,9.938-47.206,1.9-64.6,16.685-31.471,23.9.828,30.52,90.27,2.485,101.864-22.36Z"/><path class="cls-8" d="M286.34,1006.821c-17.391-32.3-16.563-60.456-16.563-60.456C249.9,883.423,75.985,827.108,75.985,827.108c221.121,89.443,182.2,144.1,182.2,144.1,5.959,3.477,14.895,20.051,21.1,32.769.882,2.163,2.281,5.158,4.358,9.224h0c.842,1.838,1.516,3.343,1.981,4.393,11.384,28.486,5.353,77.679,5.353,77.679l6.9,1.854C313.162,1047.55,286.34,1006.821,286.34,1006.821Z"/><path class="cls-7" d="M368.594,898.394s-81.877-45.85-43.668-108.077c0,0,30.568-38.209,63.318-48.034,0,0-17.467,92.793,0,94.977s12.008-104.8,12.008-104.8,86.244-41.484,120.086-38.209c0,0-53.493,90.61-36.026,88.426s77.51-93.884,77.51-93.884,88.427-16.376,102.619,36.025-8.734,78.6-21.834,81.876-97.16,2.184-94.977,13.1,58.951,28.384,90.61,18.558c0,0-34.934,86.244-80.784,81.878s-60.043-32.752-88.427-34.935-49.126,5.458-34.934,13.1,62.227,2.5,85.152,22,41.484,31.5-1.093,40.231S399.161,963.9,383.877,931.144Z"/><path class="cls-8" d="M624.048,741.191s-229.254,74.235-255.454,157.2c0,0,1.092,37.118-21.835,79.693,0,0-35.354,53.687-15.2,119.042l9.1-2.444s-7.95-64.844,7.057-102.395c.613-1.384,1.5-3.367,2.61-5.789h0c2.739-5.36,4.583-9.309,5.747-12.161,8.174-16.764,19.952-38.613,27.806-43.2C383.877,931.144,332.569,859.094,624.048,741.191Z"/><path class="cls-4" d="M365.835,1238.85a160.382,160.382,0,0,0,160.382-160.383H205.453A160.382,160.382,0,0,0,365.835,1238.85Z"/><path class="cls-9" d="M405.3,1237.623A160.493,160.493,0,0,1,225,1078.466h39.843A160.41,160.41,0,0,0,405.3,1237.623Z"/><path class="cls-4" d="M508.646,1227.822H223.024a19.788,19.788,0,0,0-19.787,19.787h325.2A19.787,19.787,0,0,0,508.646,1227.822Z"/><path class="cls-3" d="M527.406,1078.466H202.638a2.46,2.46,0,1,0,0,4.92H527.406a2.46,2.46,0,0,0,0-4.92Z"/><path class="cls-10" d="M1263.009,325.907c-4.648-.706-18.656,12.245-18.656,12.245h0c-29.913,3.456-73.646,11.4-89.387,14.429-11.164,2.149-41.173-8.083-70.493-19.831-34.868-13.978-68.752-30.1-68.752-30.1-19.347-.986-41.319,34.313-2.083,56.755,5.99,3.427,28.5,9.274,54.41,14.613l.006,0c35.75,7.366,77.983,13.76,92.36,11.513,16.7-2.612,63.968-19.9,92.086-33.146h0l.072-.035.312-.148c1.688-.789,8.571-3.854,13.164-3.583,5.268.313,17-9.328,17.358-11.9S1267.66,326.612,1263.009,325.907Z"/><path class="cls-11" d="M1226.486,770.593l-16.469,3.346s-75.369-84.682-87-120.316c-6.224-19.043-46.013-27.272-87.6-38.022-36.192-9.358-73.744-20.632-91.676-42.63-38.546-47.264,24.208-105.34,24.208-105.34s66.723,39.655,124.285,80.624c40.233,28.631,75.992,57.9,81.381,74.722C1186.706,663.885,1214.457,741.644,1226.486,770.593Z"/><path class="cls-12" d="M1204.443,798.528h9.265c3.1-.487,5.394-1.385,8.577-1.8,4.833-.633,7.057,1.348,7.5,1.8.06.061.087.094.087.094h39.352c.99-1.413.04-4.688-.89-7.1a5.6,5.6,0,0,0-3.685-3.367c-4.173-1.209-12.4-2.285-19.935-9.106-4.238-3.83-20.468-14.084-20.468-14.084l-.086-.02c-.358.007-2.054.528-9.436,6.762-3.816,3.216-10.32-4.543-10.32-4.543a9.25,9.25,0,0,0-2.133,2.893,9.777,9.777,0,0,0-.846,6.041c.588,3.545-1.306,10.135-2.82,14.592-.916,2.7-1.689,4.617-1.689,4.617S1196.473,797.532,1204.443,798.528Z"/><path class="cls-13" d="M1092.24,548.255,1035.423,615.6c-36.192-9.358-73.744-20.632-91.676-42.63-38.546-47.264,24.208-105.34,24.208-105.34S1034.678,507.286,1092.24,548.255Z"/><path class="cls-11" d="M1040.61,513.078s-4.581,14.444-12.037,36.175c-9.429,27.477-23.474,66.6-38.707,102.882-3.347,7.971-6.755,15.811-10.183,23.356-12.668,27.92-25.638,51.854-37.055,64.016-20.515,21.865-70.391,162.433-70.391,162.433L859.808,898.5S842.482,778.47,903.862,710.167a4.339,4.339,0,0,0,1.242-2.549.03.03,0,0,0,.009-.026c.816-10.112,3.737-55.386,10.094-101.265,1.562-11.257,3.329-22.54,5.318-33.353.123-.693.257-1.376.381-2.059,9.339-50,18.279-72.237,29.819-83.422l84.861,24.155Z"/><path class="cls-12" d="M858.422,919.2h9.264c3.1-.489,5.395-1.388,8.577-1.8,4.833-.633,7.059,1.347,7.5,1.8a1.208,1.208,0,0,1,.086.093H923.2c.99-1.414.04-4.689-.892-7.1a5.6,5.6,0,0,0-3.684-3.368c-4.173-1.208-12.4-2.284-19.935-9.1-4.238-3.831-20.469-14.085-20.469-14.085l-.086-.02c-.356.006-2.052.528-9.435,6.761-3.817,3.216-10.321-4.543-10.321-4.543a9.29,9.29,0,0,0-2.132,2.893,9.772,9.772,0,0,0-.845,6.041c.588,3.546-1.308,10.136-2.819,14.593-.918,2.7-1.692,4.615-1.692,4.615S850.453,918.207,858.422,919.2Z"/><path class="cls-14" d="M876.624,349.835s-14.2,34.735-30.57,68.547c-13.77,28.426-29.07,56.195-38.772,62.122-13.679,8.357-51.363,31.928-75.808,49.511,0,0-19.077-.145-22.04,3.507s-9.8,20.061-7.806,21.721,17.163.891,20.847-2.886c3.214-3.294,10.369-5.662,12.147-6.213l.331-.1.076-.021h0c29.705-9.138,76.3-28.177,90.4-37.489,12.144-8.017,39.067-41.179,60.541-70.694l.006,0c15.567-21.395,28.273-40.871,30.395-47.437C930.276,347.39,890.265,336.081,876.624,349.835Z"/><path class="cls-15" d="M950.882,213.622a71.234,71.234,0,0,0-5.087-6.572,15.945,15.945,0,0,0,6.267-.942c4.984-2.06,7.256-17.883,6.507-22.576s-7.669-18.264-16.206-19.617S925,172.043,925,172.043c1.577-6.844,16.021-10.791,16.021-10.791-29.753,5.486-28.235,25.33-28.03,27.162C885.757,178.712,869.77,230,869.77,230l70.547,41.574s.185-11.329,6.917-10.6C957.731,262.114,966.467,236.339,950.882,213.622Z"/><path class="cls-14" d="M955.377,321.238c-16.188,7.63-37.668-3.359-37.553-3.475,1.388-1.388.9-5.544-.372-10.978-1.272-5.666-4.279-13.414-9.827-22.662-1.157-1.967-2.313-3.932-3.7-6.014l1.851-.692,31.449-12.6s5.088,9.134,10.406,17.459c4.509,6.938,9.249,13.181,11.332,12.951C959.076,295.107,979.887,309.444,955.377,321.238Z"/><path class="cls-10" d="M937.223,267.935c-.809,11.214-4.625,31.449-19.771,38.85-1.272-5.666-4.279-13.414-9.827-22.662Z"/><path class="cls-14" d="M905.783,296.887s40.944-16.139,30.5-41.482-12.192-44.494-38.775-35.261-27.645,20.982-26.217,30.289S894.863,300.432,905.783,296.887Z"/><path class="cls-15" d="M921.055,249.626c18.905-2.669,24.423-10.311,24.423-10.311a52.36,52.36,0,0,1-27.642-22.046s-21.249-7.167-37,4.813a10.614,10.614,0,0,0-1.991,4.44c-3.608-1.182-9.037-.875-12.168,9.326-4.705,15.323,12.032,32.055,12.032,32.055,4.058-1.147-.519-14.8-1.159-22.091-.469-5.365,2.423-12.23,3.985-15.486,2,2.6,21.949,27.664,46.3,28.664A102.717,102.717,0,0,1,903.265,245.8C909.086,248.657,915.28,250.441,921.055,249.626Z"/><path class="cls-16" d="M1033.331,373.453c-.347-1.223-.719-2.491-1.111-3.793a96.035,96.035,0,0,0,10.334-30.963c2.776-18.732-1.965-30.3-1.965-30.3s-28.4-15.06-40.94-16.977a.686.686,0,0,0-.156-.047c-.148-.021-.319-.035-.5-.047-12.658-1.746-40.065,3.849-40.065,3.849s5.287,14.074-9.629,23.456-30.842-2.4-30.842-2.4c-.481.324-.992.68-1.518,1.052l0,0s-39.243,25.893-42.766,31.81-18.616,35.215-18.616,35.215,4.785,24.595,57.8,26.652c4.357,10.569,7.694,20.88,8.779,29.479,4.211,33.387-.676,59.724,4.231,79.211s93.361,8.375,109.378,4.626,12.415-20.854,13.647-37.47C1050.936,465.925,1038.546,391.872,1033.331,373.453Z"/><path class="cls-17" d="M1042.554,338.7a96.063,96.063,0,0,1-10.405,31.1c-1.388-6.127-7.053-28.558-16.187-38.735C1015.962,331.063,1031.339,332.453,1042.554,338.7Z"/><path class="cls-10" d="M682.4,557.507s16.479-19.97,20.025-22.33,19.114-6.5,20-5.666.93,2.04-1,3.743-9.289,6-8.239,6.483,23.259-10.572,26.461-6.853-1.814,19.068-10.371,26.427-34.1,10.5-35.709,11.524C679.953,579.547,682.4,557.507,682.4,557.507Z"/><path class="cls-14" d="M392.273,511.4s23.674,28.086,53.822,16.337c0,0,6.487-15.686,6.577-27.25.01-1.422.029-2.8.05-4.113.161-13.021.6-20.327.6-20.327a.2.2,0,0,0-.031-.006c-1.372-.572-46.087-18.93-46.049-17.406C408.009,493.847,392.273,511.4,392.273,511.4Z"/><path class="cls-10" d="M411.731,467.028c4.313,7.993,19.108,23.629,40.991,29.341.161-13.021.6-20.327.6-20.327a.2.2,0,0,0-.031-.006C452.054,475.7,410.449,464.672,411.731,467.028Z"/><path class="cls-14" d="M462.687,474.688S412.4,486.512,405.52,455.082s-18-51.071,13.812-59.948,40.7,1.746,45.547,11.678S475.591,470.8,462.687,474.688Z"/><path class="cls-18" d="M407.241,463.646c-.688.439-11.508,3.763-32-37.059-3.216-6.408-5.407-20.271,2.091-32.52S411.418,372.188,433.507,368s27.393,8.238,32.6,20.731c5.46,13.114,21.232,23.91,21.232,23.91-19.049,10.641-41.993-4.578-49.941-2.075s-10.756,15.029-11.352,19.045-1.513,7.351-11.508,3.765-4.519,14.165-2.919,17.559C411.615,450.931,412.973,459.973,407.241,463.646Z"/><path class="cls-19" d="M277.7,1248.438h-30.45c-6.382,0-13.476-6.476-15.251-18.334s-14.9-18.335-17.738-28.041,11.71-23.374,11.71-23.374l2.432-3.167,2.53-3.3,24.12,5.748s.595,5.821.967,13.234c.259,5.352.4,11.542.1,16.967-.71,12.945,3.577,26.881,14.923,29.4S277.7,1248.438,277.7,1248.438Z"/><path class="cls-19" d="M489.675,1248.732H408.962a7.114,7.114,0,0,1-1.714-.512c-5.389-2.778-3.7-24.021-3.054-30.583.125-1.215.213-1.928.213-1.928s28.382-23.372,32.288-5.476c.124.558.266,1.107.417,1.646v.009c4.928,16.745,26.952,24.349,39.674,26.47C486.506,1239.985,489.028,1245.816,489.675,1248.732Z"/><path class="cls-20" d="M473.407,781.98S469.1,835.759,464.031,900.4c-6.886,87.816-15.167,195.681-15.986,216.115-1.416,35.483-7.1,92.242-7.1,92.242s-13.475,13.484-40.444,7.8c0,0-24.032-81.025-30.9-166.752-.106-1.406-.213-2.821-.319-4.237-6.385-87.27-16.316-271.042-16.316-271.042Z"/><path class="cls-21" d="M473.407,781.98S469.1,835.759,464.031,900.4l-94.424,149.406c-.106-1.406-.213-2.821-.319-4.237-6.385-87.27-16.316-271.042-16.316-271.042Z"/><path class="cls-20" d="M453.723,788.366S376.03,983.131,324.944,1074.659,257.9,1191.731,257.9,1191.731s-29.268-11.708-31.93-19.689c0,0,19.537-176.7,53.747-219.776,19.332-24.339,42.04-97.381,43.1-122.925s6.918-76.1,6.918-76.1Z"/><path class="cls-10" d="M275.838,755.931s-2.011,24.323-3.486,28.058-11.3,15.313-12.433,15.147-1.818-1.078-1.243-3.435,3.963-9.639,2.891-9.451-12.315,20.7-16.793,19.542-8.856-15.736-6.192-26.035,20.748-26.472,21.438-28.131C265.877,737.554,275.838,755.931,275.838,755.931Z"/><path class="cls-22" d="M267.5,762.1c8.6,2.76,9.977,2.136,9.977,2.136s41.855-76.2,46.1-83.178,88.866-85.453,88.866-85.453l-21.748-81.1S294.439,639.148,284.045,657.035c-17.176,29.555-27.241,98.2-27.241,98.2A25.172,25.172,0,0,0,267.5,762.1Z"/><path class="cls-23" d="M489.808,627.444c-.3,16.656-1.268,35.377-2.574,54.393q-.12,1.692-.239,3.383c-.835,11.78-1.741,23.588-2.78,35.1-.417,4.617-.86,9.18-1.322,13.662l-.071.605c-.036,1.678-.24,3.5-.426,5.158-4.243,43.126-8.691,77.2-9.517,77.722a4.842,4.842,0,0,1-3.311.844c-11.31-1.421-45.054,1.145-72.68-4.866-23.312-4.918-43.385-14.239-64.655-26.81-2.823-1.668-9.259-6.089-8.735-9.392.514-3.631,1.464-8.878,2.672-15.474,4.191-22.939,11.425-62.4,13.893-108.58q.72-12.9,2.086-25.452a386.239,386.239,0,0,1,11.267-60.785c9.471-34.106,23.39-60.224,40.853-70.441,2.282-1.279,14.559,6.533,25.834,13.768a49.775,49.775,0,0,0,32.038,7.59l9.384,10.378c11.363,13.21,23.463,30.8,26.766,55.795q.374,2.77.638,5.895A366.368,366.368,0,0,1,489.808,627.444Z"/><path class="cls-22" d="M489.808,627.444c-.3,16.656-1.268,35.377-2.574,54.393q-.12,1.692-.239,3.383c-64.6-40.437-74.554-114.432-74.554-114.432,31.781,1.395,57.029,8.7,76.488,19.15A366.368,366.368,0,0,1,489.808,627.444Z"/><path class="cls-23" d="M692.206,559.505c-3.33-9.009-8.509-8.423-8.509-8.423s-96.052,23.937-104.672,24.964-103.434-37.022-103.434-37.022-37.319-16.749-54.8-1.456c-15.191,13.29-15.882,30.124-12.328,44.262a42.268,42.268,0,0,0,35.724,31.489c38.682,4.927,115.858,14.2,132.034,11.949,36-5.012,117.576-52.1,117.576-52.1A30.222,30.222,0,0,0,692.206,559.505Z"/><g id="man"><path class="cls-19" d="M1639.338,735.56s13.344,12.368,10.741,21.156-14.648,14.646-16.275,25.388-8.136,16.6-14,16.6h-27.931s-4.313-7.559,6.1-9.837,14.343-14.9,13.691-26.617.977-27.34.977-27.34l22.132-5.208Z"/><path class="cls-19" d="M1473.019,797.24c-1.352.68-6.112,1.148-12.64,1.462h-63.164c.212-1.879,1.683-8.576,12.011-10.242,11.67-1.9,31.884-8.679,36.389-23.605.152-.475.28-.969.39-1.461,3.579-15.947,29.615,4.878,29.615,4.878s.076.638.187,1.726C1476.419,775.862,1477.957,794.775,1473.019,797.24Z"/><path class="cls-24" d="M1412.32,370.667s3.955,49.34,8.6,108.648c6.319,80.567,13.915,179.53,14.667,198.277,1.3,32.554,6.512,84.628,6.512,84.628s12.362,12.372,37.106,7.157c0,0,22.047-74.336,28.345-152.988.1-1.289.2-2.587.293-3.886,5.86-80.069,14.969-248.67,14.969-248.67Z"/><path class="cls-19" d="M1412.32,370.667s3.955,49.34,8.6,108.648l86.63,137.074c.1-1.289.2-2.587.293-3.886,5.86-80.069,14.969-248.67,14.969-248.67Z"/><path class="cls-24" d="M1430.38,376.527s71.28,178.689,118.149,262.661,61.516,107.41,61.516,107.41,26.852-10.742,29.293-18.065c0,0-17.922-162.116-49.311-201.634-17.735-22.331-38.568-89.344-39.545-112.78s-6.348-69.815-6.348-69.815Z"/><path class="cls-25" d="M1210.523,279.612s-19.334-4.421-22.589-4.2-14.638,4.985-14.788,5.908.388,1.673,2.354,1.806,8.441-.7,8.031.085-19.059,4.449-19.264,8.2,10.011,10.728,18.643,11.195,25.6-9.561,27.058-9.688C1222.308,291.845,1210.523,279.612,1210.523,279.612Z"/><path class="cls-26" d="M1202.246,284.522c-2.772-8.832-2.123-10.238-2.123-10.238s78.373-42.378,85.549-46.676,88.169-90.489,88.169-90.489l82.959,22.834s-128.379,97.795-146.776,108.325c-30.4,17.4-100.812,27.252-100.812,27.252A25.766,25.766,0,0,1,1202.246,284.522Z"/><path class="cls-25" d="M1398.979,95.218s-29.083,51.172-57.511,57.851c0,0,1.184-17.186,8.106-28.947-2.835-3.343-5.323-6.414-7.479-9.163a171.552,171.552,0,0,1-10.558-14.782l9.648-25.938,6.546-17.6a84.62,84.62,0,0,0,10.23,14.739C1376.591,92.8,1398.979,95.218,1398.979,95.218Z"/><path class="cls-27" d="M1357.961,71.381s3.469,25.643-15.866,43.578a171.552,171.552,0,0,1-10.558-14.782l9.648-25.938C1351.529,71.087,1357.961,71.381,1357.961,71.381Z"/><path class="cls-25" d="M1323.873,103.958s43.455-16.941,32.488-43.839-12.744-47.2-40.951-37.522-29.381,22.127-27.9,31.995S1312.287,107.671,1323.873,103.958Z"/><path class="cls-28" d="M1548.349,357.811c-17.533,25.2-148.592,58.876-147.038,41.43a189.414,189.414,0,0,0-.017-34.408q-.494-5.607-1.394-11.888c-3.329-22.921-11.239-52.395-28.879-86.51-1.323-2.558-2.7-5.132-4.128-7.742a266.612,266.612,0,0,1-18.172-40.828c-9.082-26.241-12.739-51.347-8.159-67.761.019-.081.045-.151.072-.231,27.4-12.668,38.012-61.8,38.012-61.8s93.469,16.779,145.822,141.365C1524.468,229.441,1563.6,335.874,1548.349,357.811Z"/><path class="cls-26" d="M1401.294,364.833q-.494-5.607-1.394-11.888c-3.329-22.921-11.239-52.395-28.879-86.51,3.027-18.36,7.209-33.628,11.8-40.5,18.642-27.938,29.5-32.305,29.5-32.305S1440.275,311.523,1401.294,364.833Z"/><path class="cls-25" d="M1253.959,336.783s-25.856,1.358-29.864,2.8-16.6,11.49-16.459,12.7,1.086,1.961,3.6,1.426,10.348-3.9,10.113-2.763-22.339,12.4-21.257,17.183,16.4,9.893,27.41,7.4,28.732-21.155,30.514-21.835C1273.128,347.933,1253.959,336.783,1253.959,336.783Z"/><path class="cls-26" d="M1249.083,346.589c-5.181-8.368-1.447-12.186-1.447-12.186s79.874-62.538,86.135-68.856,35.263-106.918,35.263-106.918,9.981-40.713,33.356-45.2c20.313-3.9,34.352,6.148,43.537,17.929a43.316,43.316,0,0,1,2.936,48.714c-20.395,34.365-61.534,102.577-73.547,114.231-26.737,25.936-116.2,62.183-116.2,62.183A30.975,30.975,0,0,1,1249.083,346.589Z"/><path class="cls-29" d="M1362.6,10.152c.305-.6,1.189-1.244,3.347-1.9a9.042,9.042,0,0,0-4.375-.163c-1.219-2.977-4.185-8.046-9.748-8.085a6.855,6.855,0,0,1,4.367,4.024c-7.623-4.832-21.751-6.234-57.021,5.514-46.485,15.483-23.26,42.467-16.216,44.63s20.015-11.72,31.68-13.616,17.976,14.354,22.423,15.7,1.919-2.35,6.575-6.053,7.332,5.008,7.231,11.127,8.979,11.918,8.979,11.918l5.326-9.769c5.325-9.768,3.877-45.232-1.212-51.615C1363.505,11.3,1363.057,10.726,1362.6,10.152Z"/></g><path class="cls-30" d="M3.114,1245.128H1683.767a3.113,3.113,0,0,1,3.113,3.113v5.646a3.113,3.113,0,0,1-3.113,3.113H3.114A3.114,3.114,0,0,1,0,1253.886v-5.644A3.114,3.114,0,0,1,3.114,1245.128Z"/><rect class="cls-31" x="1281.708" y="798.7" width="411.818" height="446.425"/><rect class="cls-16" x="1154.724" y="798.703" width="411.825" height="446.425"/><polygon class="cls-32" points="1693.526 798.703 1693.526 879.586 1566.551 798.703 1693.526 798.703"/></svg>