<svg id="Layer_1" data-name="Layer 1" xmlns="http://www.w3.org/2000/svg" xmlns:xlink="http://www.w3.org/1999/xlink" width="1885.304" height="1139.152" viewBox="0 0 1885.304 1139.152"><defs><style>.cls-1,.cls-24,.cls-29,.cls-32{fill:none;}.cls-2{fill:#0e2e35;}.cls-3{fill:#13375b;}.cls-4{fill:#0071bc;}.cls-5{fill:#ed6a19;}.cls-6{fill:#f48c7f;}.cls-7{fill:#f7a491;}.cls-8{fill:#f47458;}.cls-9{fill:#fff;}.cls-10{fill:#f7bb4f;}.cls-11{fill:#225e30;}.cls-12{fill:#92c13e;}.cls-13{fill:#184655;}.cls-14{fill:#88513a;}.cls-15{fill:#f6dd15;}.cls-16{fill:#6b402e;}.cls-17{fill:#32d9b1;}.cls-18{fill:#ad411a;}.cls-19{fill:#f15a24;}.cls-20{fill:#c28155;}.cls-21{fill:#966442;}.cls-22{fill:#5090f2;}.cls-23{clip-path:url(#clip-path);}.cls-24,.cls-29,.cls-32{stroke:#83c210;stroke-miterlimit:10;}.cls-24{stroke-width:7.654px;}.cls-25{clip-path:url(#clip-path-3);}.cls-26{fill:#93c13e;fill-rule:evenodd;}.cls-27{fill:#00602a;}.cls-28{clip-path:url(#clip-path-5);}.cls-29{stroke-width:6.949px;}.cls-30{clip-path:url(#clip-path-7);}.cls-31{clip-path:url(#clip-path-9);}.cls-32{stroke-width:7.426px;}.cls-33{clip-path:url(#clip-path-11);}</style><clipPath id="clip-path"><rect class="cls-1" x="136.304" y="74.135" width="177" height="177" transform="translate(-32.47 58.726) rotate(-13.891)"/></clipPath><clipPath id="clip-path-3"><rect class="cls-1" x="159.433" y="97.561" width="126.136" height="126.136" transform="translate(-27.467 47.385) rotate(-11.454)"/></clipPath><clipPath id="clip-path-5"><rect class="cls-1" x="832.304" y="109.135" width="156" height="156"/></clipPath><clipPath id="clip-path-7"><rect class="cls-1" x="853.173" y="129.346" width="111.171" height="111.171" transform="translate(685.362 1085.006) rotate(-87.564)"/></clipPath><clipPath id="clip-path-9"><rect class="cls-1" x="1527.304" y="157.135" width="174" height="174" transform="translate(-2.207 473.205) rotate(-16.665)"/></clipPath><clipPath id="clip-path-11"><rect class="cls-1" x="1549.948" y="180.276" width="123.998" height="123.998" transform="translate(-10.098 403.642) rotate(-14.229)"/></clipPath></defs><rect class="cls-2" x="194.343" y="1124.135" width="1690.961" height="15.017"/><path class="cls-3" d="M1095.606,1125l26.6-163.862L966.2,920s-7.264,73.459-7.264,74.555c0,36.058-2.163,82.548-5.05,130.441Z"/><polygon class="cls-4" points="1198.846 1124.999 1190.856 1054.603 1178.834 984.978 988.811 930.485 984.512 1012.225 1022.049 1124.999 1198.846 1124.999"/><path class="cls-5" d="M1143.7,554.594s79.478,8.414,100.551,30.64L1203.7,790.408a216.069,216.069,0,0,0-4.041,47.18c1.046,42.88,2.712,131.985-.632,160.966-9.26,80.252-217.618,3.181-248.479-7.439,0,0,46.33-357.271,78.032-412.26,10.564-18.325,58.726-19.071,58.726-19.071Z"/><path class="cls-6" d="M767.927,438.276c2.931-6.206,29.063,12.16,34.855,8.664s-23.408-32.934-20.43-38.078c5.487-9.48,33.963,30.272,36.764,26.071s-24.543-46.641-14.779-48.976,23.764,46.965,28.775,43.8-17.143-44.675-7.691-53.138c5.051-4.523,28.87,75.735,37.508,79.07s18.368-31.708,26.5-30.329-26.666,64.446-24.961,69.37c1.7,4.907,33.568,107.88,52.377,138.979,11.32-5.412,22.344-10.855,32.855-16.162,4.226,23.882,13.971,44.744,19.521,68.184-36.5,16.037-78.343,31.952-88.943,28.049C848,701.892,832.084,545.219,826.9,515.987c-5.189-29.259-18.984-35-26.844-50.358S765,444.481,767.927,438.276Z"/><path class="cls-5" d="M1041.691,568.4l46.291,56.3s-67.251,45.335-127.782,71.932c-5.55-23.44-19.235-60.186-23.461-84.069C986.746,587.319,1041.691,568.4,1041.691,568.4Z"/><path class="cls-6" d="M1475.612,432.506c-2.93-6.206-29.063,12.161-34.854,8.665s23.408-32.934,20.429-38.079c-5.487-9.479-33.962,30.273-36.764,26.072s24.543-46.641,14.779-48.976-23.763,46.965-28.774,43.794,17.143-44.675,7.691-53.138c-5.052-4.522-28.87,75.736-37.508,79.071s-18.368-31.708-26.5-30.33,26.667,64.447,24.962,69.371c-1.7,4.907-33.568,107.879-52.377,138.979-11.32-5.412-22.344-10.855-32.855-16.162-4.226,23.883-15.546,46.5-21.1,69.942,36.5,16.039,79.918,30.194,90.518,26.29,32.274-11.882,48.194-168.555,53.379-197.788,5.189-29.258,18.984-35,26.844-50.357S1478.543,438.712,1475.612,432.506Z"/><path class="cls-5" d="M1194.715,563.572l-8.484,127.25s32.731-26.553,93.262.045c5.549-23.441,19.234-60.187,23.461-84.069C1252.947,581.549,1194.715,563.572,1194.715,563.572Z"/><path class="cls-7" d="M1144.923,481.164,1156.2,556.34s-41.166,89.511-65.741,81.748c-20.62-6.513-7.934-85.714-7.934-85.714s11.239-42.534,7.869-63.818S1144.923,481.164,1144.923,481.164Z"/><path class="cls-8" d="M1090.389,488.556c-3.37-21.284,54.534-7.392,54.534-7.392l.934,6.234a34.7,34.7,0,0,1-6.278,10.479c-12.935,14.083-33.151,22.544-50.632,23.183C1090.7,509.584,1091.771,497.284,1090.389,488.556Z"/><path class="cls-7" d="M1154.424,374.81c1.636-.6,13.118,85.62-8.671,109.344s-64.24,31.489-79.467,12.8c-16.843-20.667-16-113.336,17.879-137.741S1154.424,374.81,1154.424,374.81Z"/><path class="cls-3" d="M1097.061,313.094c26.184,5.4,43.145,21.594,49.376,28.493,11.888,1.421,28.048,8.07,44.735,36.026,20.518,34.374,5.366,72.458-18.519,91.142s-23.614,40.377-23.614,40.377l-3.714-11.271a63.1,63.1,0,0,1-2.992-26.3,51.89,51.89,0,0,1,3.864-15.81c5.744-12.478-12.341-20.769-17.411-31.151-3.9-7.994-4.094-26.282-10.245-39.5l-7.348-10.087s-16.948-13.346-33.531-9.58S1063.466,306.163,1097.061,313.094Z"/><path class="cls-7" d="M1129.9,439.948c-.173,10.519,4.553,19.132,10.556,19.235s11.009-8.34,11.182-18.859-4.553-19.132-10.555-19.236S1130.073,429.428,1129.9,439.948Z"/><path class="cls-9" d="M1067.33,467.483l28.452,5.9s-2.895,10.67-15.482,8.44C1064.952,479.1,1067.33,467.483,1067.33,467.483Z"/><ellipse class="cls-10" cx="901.784" cy="186.344" rx="176.875" ry="126.217"/><polygon class="cls-10" points="1021.095 340.609 955.403 266.752 1004.394 251.535 1021.095 340.609"/><path class="cls-11" d="M1287.829,1125h97.224l-63.54-213.527-29.1,19.817s-22.313,78.543-12.171,134.4C1281.885,1074.733,1284.539,1095.919,1287.829,1125Z"/><path class="cls-12" d="M1350.713,1125H1500.24c.7-43.734,1.234-83.168-2.948-104.424-10.143-51.565-52.74-113.873-52.74-113.873l-152.138-19.336,25.253,143.943Z"/><path class="cls-13" d="M1349.979,426.129c38.519-45.748,106.281-54.2,139.064-.609,7.373,12.054,15.086,32.092,16.691,46.134,4.341,37.96-9.924,72.877-4.467,110.491a239.521,239.521,0,0,1-38.507.71l-2.4-25.061-8.653,24.169c-41.393-4.2-94.355-19.14-156.018-57.244C1309.3,484.918,1329.432,450.532,1349.979,426.129Z"/><path class="cls-14" d="M1536.589,704.364s93.824,116.847,115.578,144.345,116,112.969,119.768,116.171,66.141-10.6,65.509-2.623-32.271,5.406-31.369,14.5,63.2,57.615,58.281,60.792c-9.207,5.948-39.253-28.244-43.028-24.657s34.634,32.812,30.516,41.071-33.809-31.041-37.962-29.838,23.025,40.662,13.838,42.607c-4.989,1.056-23.325-35.667-27.545-31.465s5.477,34.432-.392,35.094-4.743-26.4-15.939-38.742-12.984-26.992-36.466-41.452-126.537-62.4-163.3-105.709S1479.7,754.87,1479.7,754.87Z"/><path class="cls-14" d="M1326.182,576.714s-66.968-134.057-82.864-165.31S1189.14,258.817,1187.8,254.056s37.26-55.665,29.75-58.423-18.393,27.062-26.274,22.445-25.944-81.49-30.887-78.348c-9.249,5.88,9.264,47.463,4.428,49.394s-15.343-45.173-24.567-44.882,14.079,43.684,11.251,46.955-27.325-37.906-32.931-30.371c-3.043,4.091,22.661,36.091,17.081,38.171s-28.995-19.361-32.049-14.306,22.007,15.339,28.542,30.667,19.1,23.072,22.427,50.448,3.836,141.036,27.825,192.527S1256.53,607.3,1256.53,607.3Z"/><path class="cls-15" d="M1283.092,686.51s-33.323-79.816-38.66-93.077c0,0,46.539-41.788,74.317-38.53,0,0,36,57.008,57.218,59.064s95.871,5.259,108.956,13.111,68.609,92.161,68.609,92.161-49.894,50.39-69.968,50.286c0,0-13.64-34.031-18.305-27.829s.688,174.1-8.629,184.171c-8.621,9.319-148.565,20.854-167.643,3.135,0,0-1.415-7.167-12.194-168.259C1274.523,726.825,1283.092,686.51,1283.092,686.51Z"/><path class="cls-14" d="M1417,543.963s-8.045,41.616-6.436,58.031-6.134,69.319-40.88,69.493-6.6-67.262-3.325-83.348,4.048-65.88,4.048-65.88Z"/><path class="cls-16" d="M1369.689,547.243c.541-13.622.718-24.984.718-24.984l46.593,21.7s-1.645,8.51-3.3,19.352C1393.307,567.414,1378.526,559.865,1369.689,547.243Z"/><path class="cls-14" d="M1437.435,424.39s21.688,7.077,26.946,29.68-4.5,80.561-49.442,93.879-62.065-32.967-51.319-68.775S1391.268,401.729,1437.435,424.39Z"/><path class="cls-13" d="M1437.662,417.819s5.008,61.673,23.653,72.974,9.27,38.547,9.27,38.547,20.523-63.277,6.35-83.8S1437.662,417.819,1437.662,417.819Z"/><path class="cls-14" d="M1450.5,500.747c-5.6,7.974-6.045,17.439-1,21.14s13.68.237,19.277-7.738,6.045-17.439,1-21.14S1456.1,492.773,1450.5,500.747Z"/><path class="cls-9" d="M1380.984,506.874l32.369,12.874s-5.64,12-20.039,6.755C1375.759,520.1,1380.984,506.874,1380.984,506.874Z"/><ellipse class="cls-17" cx="1618.281" cy="247.541" rx="180.618" ry="128.888"/><polygon class="cls-17" points="1561.564 326.877 1519.996 402.589 1597.193 346.176 1561.564 326.877"/><path class="cls-2" d="M524.189,308.9a159.209,159.209,0,0,1-19.807-.923c-7.432-.859-16.931-1.588-22.422-.582-11.558,2.116-30.012,9.792-36.5,24.7-8.081,18.568-35.122,15.046-4.894,87.1,34.215,81.557,77.4,56.3,78.033,54.5s22.82-67.706,22.82-67.706,24.75,25.88,24.358,24.751C565.4,429.647,603.676,308.151,524.189,308.9Z"/><path class="cls-18" d="M657.507,1128c-4.019-60.448-7.538-122.892-7.538-168.352,0-1.069-7.092-72.78-7.092-72.78L490.584,927.022,523.213,1128Z"/><polygon class="cls-19" points="574.707 1127.999 625.002 976.893 620.806 897.099 435.308 950.296 423.572 1018.262 411.116 1127.999 574.707 1127.999"/><path class="cls-3" d="M795.488,690.528l3.939,3.538a4.836,4.836,0,0,0,6.811-.171l69.911-77.115a4.784,4.784,0,0,0-.526-6.762l-3.939-3.539a4.836,4.836,0,0,0-6.811.171l-69.911,77.115A4.785,4.785,0,0,0,795.488,690.528Z"/><path class="cls-20" d="M558.47,627.878c9.344-7.624,81.606,24.193,80.69,35.269s50.424,118.446,50.424,118.446l88.722-70.983.036.022c.785-2.567,9.2-30.174,9.605-35.113.429-5.181,15.421-14.245,22.384-12.911s-5.955,10.1-6.8,11.708c-2.308,4.379,6.618,6.023,6.618,6.023s25.634-14.118,26.179-22.42,5.837-25.7,11.375-22.063c2.858,1.879,2.831,14.225,1.939,20.082,1.646-6.648,3.979-14.158,6.248-14.9,4.148-1.36,6.21,3.933,5.457,6.532s-7.45,30.833-9.485,34.01c-1.988,3.1-43.387,36.571-49.351,43.836,0,0-114.759,131.634-122.93,135.079-7.168,3.021-32.731-42.343-56.883-72.459S529.27,651.7,558.47,627.878Z"/><path class="cls-3" d="M667.543,716.124l-85.762,8.785s-3.933-70.547-3.933-104.2c0-40.827,3.465-93.414,8.379-92.282,13.791,3.176,32.363,10.816,43.421,26.061C667.909,607.239,667.543,716.124,667.543,716.124Z"/><path class="cls-4" d="M625.411,613.509c1.8,12.448,34.764,350.857,34.764,350.857-156.153,75.675-242.319,13.48-242.319,13.48s5.11-237.636-1.014-269.98c-4.052-21.4-9.1-163.6,4.717-167.582,17.735-5.111,38.07-10.538,60.235-12.846,18.92-1.971,92.416-3.113,105.566,1.318C587.36,528.756,617.857,561.163,625.411,613.509Z"/><path class="cls-20" d="M679.578,860.493a20.384,20.384,0,0,0,2.356-1.756c-2.777-33.154-2.276-65.28,8.094-76.142-.248-.52-2.516-5.355-4.882-10.368-12.019,9.327-17.729,34.106-15.488,74.327.154,2.767.947,4.878,1.585,8.33C674.724,858.725,677.886,861.206,679.578,860.493Z"/><path class="cls-20" d="M263.2,967.951a9.462,9.462,0,0,1-.038-2.18c2.3-23.436,21.693-220.229,24.959-228.595,2.948-7.552,89.922-132.368,89.922-132.368l42.748,58.439L337.146,775.2c-1.876,7.115-32.054,139.96-32.054,139.96s-6.185,24.214-8.956,38.72c1.263,3.494,2.5,6.794,3.6,9.5a87.5,87.5,0,0,0,9.012,14.534c3.739,5.028,9.92,16.013,10.682,18.953.886,3.418,2.482,10.52,3.386,14.807s2.143,9.279,2.35,11.605c.127,1.415,1.583,4.239,2.7,6.234a3.741,3.741,0,0,1-4.405,5.4c-3.039-1.013-5.4-4.959-6.863-7.419-4.116-6.943-6.311-19.618-7.334-18.948s-4.63,22.177-5.2,24.608-4.9,27.4-7.338,31.969-5.672,3.8-6.53.942c-.737-2.46,2.7-37.4,2.7-37.4s.428-4.458-1.517-3.065-5.125,33.11-6.479,37.752-4.436,7.1-7.054,3.371c-3.183-4.537,2.291-38.181,2.291-38.181s.613-4.228-1.188-3.835-4.055,27.426-5.457,29.764-4.938,3.177-6.624-.72c-1.987-4.591,3.158-34.584,3.158-34.584s-.253-2.386-1.376-1.593-4.687,23.7-7.01,25.819a2.46,2.46,0,0,1-3.577.053c-4.262-2.918,2.273-24.707,2.208-35.542S265.216,984.9,263.723,972C263.628,971.187,263.366,969.2,263.2,967.951Z"/><path class="cls-4" d="M310.093,683.859l74.294,50.051s41.873-62.523,64.35-84.781c28.158-27.884-10.256-113.3-28.4-108.47C379.76,551.468,310.093,683.859,310.093,683.859Z"/><path class="cls-20" d="M487.254,454.276l-11.112,73.492s40.582,87.506,64.808,79.917c20.328-6.368,7.822-83.795,7.822-83.795s-11.08-41.58-7.757-62.387S487.254,454.276,487.254,454.276Z"/><path class="cls-21" d="M541.015,461.5c3.323-20.808-53.761-7.227-53.761-7.227l-.921,6.095a33.856,33.856,0,0,0,6.19,10.243c12.751,13.769,32.681,22.039,49.913,22.665C540.712,482.06,539.653,470.035,541.015,461.5Z"/><path class="cls-9" d="M536.946,437.747l32.376-1.682s-.11,12.377-14.326,13.529C537.661,451,536.946,437.747,536.946,437.747Z"/><ellipse class="cls-22" cx="229.366" cy="163.673" rx="229.366" ry="163.674"/><polygon class="cls-22" points="378.058 269.009 432.169 309.834 398.842 229.668 378.058 269.009"/><path class="cls-20" d="M494.959,343.79c23.071-12.436,51.82-.394,59.708,24.285a319.532,319.532,0,0,1,9.926,39.377c6.632,36.239-6.314,74.674-22.769,77.358s-65.8-13.423-75.924-64.754C459.648,388.365,470.749,356.839,494.959,343.79Z"/><path class="cls-20" d="M478.7,422.158c1.318,8.017-2.914,15.383-9.45,16.449s-12.9-4.568-14.222-12.586,2.914-15.382,9.45-16.449S477.377,414.14,478.7,422.158Z"/><path class="cls-2" d="M464.473,409.572s20.379-1.855,23.149-16.338,18.621-49.167,54.015-49.363-36.964-16.576-39.495-15.7-32.984,11.22-32.984,11.22-16.726,27.4-16.835,29.806,1.155,27.828,1.155,27.828Z"/><path class="cls-9" d="M516.279,447.992l36.4-5.33s1.209,13.989-14.73,16.8C518.516,462.883,516.279,447.992,516.279,447.992Z"/><g class="cls-23"><g class="cls-23"><path class="cls-9" d="M307.675,145.843a84.556,84.556,0,1,1-99.664-66.08,84.557,84.557,0,0,1,99.664,66.08"/><path class="cls-24" d="M307.675,145.843a84.556,84.556,0,1,1-99.664-66.08A84.557,84.557,0,0,1,307.675,145.843Z"/></g><g class="cls-25"><path class="cls-26" d="M198.1,129.609c.459.027.4.326.372.7-.331.007-.316-.389-.372-.7"/><path class="cls-26" d="M207.385,153.649c.374.038.662-.075.677.575-.189,0-.209.146-.408.14a1.715,1.715,0,0,1-.269-.715"/><path class="cls-26" d="M260.06,174c.226-.182.178-.235.062-.531.214-.06.283.049.426.071-.014.248-.133.406-.047.738-.325.118-.236-.253-.441-.278"/><path class="cls-26" d="M203.344,213.206a.574.574,0,0,0-.071.426l-.313.025c-.028-.12.008-.187.088-.216-.075-.1-.248-.088-.234-.3.225-.275.207.14.53.062"/><path class="cls-26" d="M204.046,214.1l-.419.034c-.118-.09-.061-.382-.336-.29.031-.165.319-.114.176-.432.1-.005.088.121.12.2.119.2.473.128.459.488"/><path class="cls-26" d="M202.243,215.184c-.027-.088.033-.1.095-.112s.139-.01.211-.017c-.209.361.252.444.058.73-.53.159-.2-.608-.364-.6"/><path class="cls-26" d="M197.917,128.573c.162-.81-1.969-1.411-.6-2.261-1.193-3.159-3.337-12.6.99-13.838a5.75,5.75,0,0,1,5.274,1.573c1.485,2.421,3.054,6.148,2.256,9.794.348,1.529-.609,2.7-1.28,3.675.343.737,1,.739.969,1.6-.016.342-.443.545-.559.883-.336.975-.015,2.054-.209,2.644-.224.4-.221-.416-.451-.384-.216.189.065.56-.392.347.452.728.007,1.56.593,2.156-.394.43-.332.655-.308,1.392-.22.065-.213-.135-.235-.3-.321.651.331,1.405.384,2.174-.377.486-.906.933-1.4.847-.173.507-1.269.965-1.657,1.6-.316.03-.424-.187-.65-.263-.069-.67.372-1.32-.334-1.548.276-.731-.24-1.678-.4-2.278a.29.29,0,0,1,.3-.235c-1.443-1.56-1.744-3.539-1.825-5.733"/><path class="cls-26" d="M240.782,132.694c.464.122.141,1.178-.134.956-.276.118.293.173.145.514-.207-.063-.275.63-.236.964a.49.49,0,0,0-.322-.079c.682.486-.72,1.009-.18,1.695-.323.014-.271.35-.713.268.342.177.326,1,.206,1.243a1.3,1.3,0,0,1,.132,1.669,5.292,5.292,0,0,1-.276,5.695c.213,1.02-.576,1.952-1.042,2.708.192.367.135-.257.406-.139.291.374-.264.86-.187,1.59-.255-.019-.21.211-.511.148.035.518-.3.716-.214,1.279-.434-.363-.55.1-.721.162-.245-.173-.7-.09-.676-.577-.228-.031-.188.165-.186.332a9.324,9.324,0,0,1-1.448-1.041c-.322-.079-.166.248-.174.434a.863.863,0,0,1-.758-.254c-.277-.01-.249.239-.279.441-.225-.363-.14-.208-.529-.062.092-.626-.4.066-.347-.391-.176.11-.162.381-.27.547a4.693,4.693,0,0,1,.35-3.494c-.292,0-.073-.092-.157-.618a.5.5,0,0,0,.324.079c-.528-.542.2-.387.116-1.164-.228.034-.2.281-.166.539a2.034,2.034,0,0,1-.351-1.759c.1-.879.6-1.031.039-2.1.025.046.147-.077.1-.115-.064-.314.366-.209.384-.452a5.6,5.6,0,0,1-.469-3.218c.857-.245,1.014-1.081,1.1-1.978.308-.161.578-.352.907-.493-.26-.192-.555-.337-.686-.679,0-.326.189-.489.256-.757a27.973,27.973,0,0,1-.033-9.554,1.957,1.957,0,0,0-.362-.6,18.414,18.414,0,0,1,1.031-10.689c1.089-2.257,1.874-4.3,5.212-4.41,1.916-.059,3.913,2.393,4.48,4.785.772,3.236.726,7.886-.56,10.024-.133.221-.571.4-.785.691a7.665,7.665,0,0,1-1.649,1.709c1.033,1.444.72,4.611-.383,5.7a.286.286,0,0,1,.036.418c-.194.19-.134,0-.418.033"/><path class="cls-26" d="M197.743,199.689c.364-.37-.514-1.094-.126-1.565-.465-.146-.115-1.408-.638-1.421.19-.292.337-1.183-.2-1.139a3.086,3.086,0,0,0-1.182-2.95c-.074-.229.188-.167.185-.331-.329-.32-.376-.518-.868-.348a.285.285,0,0,1,.3-.235c-.453-.189-1.115-.493-.832-1.193-1.117-.94-.787-2.665-1.17-4.108-.26-.991-1-1.538-.939-2.552.218-3.411-1.807-7.76-1.532-11.219a12.472,12.472,0,0,1,.34-2.338c.251-.869,1.055-1.475,1.38-2.421s.093-2.035.93-2.8a.857.857,0,0,1-.06-.729c-.166-.2-.406.195-.345-.394l-.626.05c.1-.529,0-1.342-.711-.991.109-.47-.155-.5-.658-.369.007-.121-.04-.185-.124-.2-.093-.274.2-.218.29-.337-.433.137-.48-.484-.988-.551-.012-.271.4-.183.381-.451-.165-.462-.288.206-.529-.062.134-.424-.572-.823-.075-.94a.521.521,0,0,0-.339-.286c-.478,0,.31.7-.254.753.229-.331-.362-1-.108-1.354-.222-.16-.131.019-.418.03.172-.871-1.038-.6-.519-1.218-.115-.3-.136.256-.408.139a10.8,10.8,0,0,0-1.306-1.892c-.058-.372.283-.405.253-.754-.1-.269-.507-.167-.658-.368.265-.327-.14-.51-.268-.714-.2-3.764-2.5-5.8-2.056-9.917a5.23,5.23,0,0,0-.555-.374c-.743-2.738-2.779-6.593-1.6-9.43-.257-.393.043-1.032-.135-1.668.684-1.468,1.6-2.526,4.031-2.11a4.424,4.424,0,0,1,3.348,2.46c.257.6.719,1.153,1.1,1.909-.157.569-.161,1.6.351,1.757a.282.282,0,0,1-.182.329c.046.266.166-.158.416-.032a17.339,17.339,0,0,1,.293,3.652c-.636.412-.712,1.843-1.372,2.525a.875.875,0,0,0,.572.585c.16-.059.064-.335.4-.242.981.484.7,2.238,1.092,3.166-.023.15-.183.024-.215-.088-.293.245.183.541.074.941-.166.044-.187-.083-.32-.08-.133.8.424,1.4.351,1.757.115.3.137-.254.41-.137.278.9-.592,2,.321,2.7a3.448,3.448,0,0,1,2.927,3.755c-.062.194-.187.032-.313.025.521,2.148-1.362,3.3-.45,4.867-.357.193-.09-.348-.337-.286-.032.193.248.593-.142.851.242-.19.7.08,1.076.333-.037.544.245.78.093,1.148a13.194,13.194,0,0,0,3.176,1.637c.656.158.85-.422,1.316-.633,1.068-.481,2.283-.346,3.721-.718a1.557,1.557,0,0,1,.4,1.018c.384-.243.4-.2.738.047-.3-.376.163-.386.4-.244-.078-.18.27-.457-.045-.521-.151.058.053.131.028.314-.206-.029-.117-.4-.443-.282-.153.059.052.131.024.315a.673.673,0,0,0-.529-.063c.135-.21.518-.5.705-.372-.448-.567-.154-.016.054-.633a1.726,1.726,0,0,1,.886.558,4.529,4.529,0,0,1,.365-.661c.1-.347-.344-.051-.241-.4a4.675,4.675,0,0,1,1.384-1.059c.221.085.258.383.269.716.407.121-.018-.471.393-.348.086.485.125.691.691.785.065-.343-.186-.313-.347-.393.319-.229-.043-.532.472-.667-.095-.231.123-.829-.265-.713.243-.441.555-.107.945.03-.054-.242-.105-.486-.45-.386-.02-.287.473-.289.619-.153a2.111,2.111,0,0,0,1.029-1.553c1.617-.824,1.246-3.076,3.853-3.041.676.008,1.46.222,2.062-.481-.131-1.279-.23-2.529.713-2.892.087.778.267.744.622,1.21-.08.33-.191-.213-.329-.185a2.032,2.032,0,0,0,.261,1.976c-.227-.4.1-.979-.091-1.148-.07-.092.618-.132.538.165.439-.18.355-.426.828-.172.027.187-.111.231-.071.427a5.694,5.694,0,0,1,3.714,1.8,2.634,2.634,0,0,1,1.056-1.239c1.183.3,1.381-1.175,2.958-1.078.556.035,1.112.54,1.73.594,1.012.094,2.175-.638,3.122-.355.853.675,1.617,1.717,2.741,1.46.111.29-.124.284-.059.53.329.026.413-.164.494-.353.221.01.066.455.251.5.528-.422,1.242.388,1.64.817-.118.42-.329,1.1.2,1.139.435,2.552.848,4.276.075,6.191.792,1.353-.437,3.228-.595,4.351-.462.222-.494.811-.969,1.026a2.457,2.457,0,0,1-1.3,2.1,10.22,10.22,0,0,1-1.241,2.831c.817.664,3.053-.064,3.088,1.853.528.557,1.483.619,2.083,1.092a11.128,11.128,0,0,1,7.839,3.467c.126.4-.223.392-.261.65.06.2.245.246.249.5-1.266,2.072.838,2,1.729,3.223.215.362.9.16.9.77a6.274,6.274,0,0,1,3.132,2.375c1.161-.187,1.164.994,1.987,1.2a4.116,4.116,0,0,0-.085,1.585c.561.487,1.256.6,1.474,1.352.337,1.143-.541,2.115-.694,3.1-.341.032-.376.328-.819.276.423.182.248.524.405,1.122-.451.264-.672.723-1.185.936.018.245.205.293.155.617-.506,1.156-1.265,2.1-1.732,3.291-.733.156-.956.79-.675,2.049-1.024,2.012-1.6,4.411-3.653,5.542-.537,1.778-1.834,2.91-2.8,4.322-.262.006-.31.189-.506.251-1.078.8-1.973,2.377-3.758,2.926-2.5.772-4.7,1.909-7.577,2.395a23.455,23.455,0,0,1-4.9.5,13.456,13.456,0,0,1-4.467-.693c-3.062.113-5.288,1.709-7.8,2.2-.877.174-1.673-.073-2.141.8-1.292-.008-2.569.382-3.469-.035-.026-.011.129-.175.088-.216-.428-.433-1.4-.778-2.1-1.3a12.459,12.459,0,0,1-3.534-3.5.532.532,0,0,1,.289-.34c-.312-.445-1.773-.938-.64-1.418-.261.341.291.414.467.592-.236-.3-.138-.286-.169-.825-.213.078-.7-.076-.724.161a1.253,1.253,0,0,1-.05-.625,1.7,1.7,0,0,1-.911-.873c-.11.232-.369.337-.368.662-.572-.525-1.837-1.269-1.244-2.42.725.1.892.856,1.456,1.14a5.339,5.339,0,0,0-.936-1.185c.063-.279.487-.672-.057-.729.041-.524.8.168.7-.476-.14-.049-.5.009-.129-.305-.086-.105-.315.012-.539-.166.047-.229.634-.15.73-.058-.212-.411-.646-.24-.948-.031.281-.177-.256-.449.177-.435-.158-.35-.319-.166-.546-.269.056-.113.229-.128.182-.331-.875-.038-.662-1.672-1.045-2.542.106-.008.21-.016.314-.026-.027-.12-.2-.072-.321-.077.011-.186.162-.253.4-.242-.331-.03-.345-.434-.571-.585a.561.561,0,0,1,.381-.449c-.277.254-1.006-.956-.3-1.132a5.048,5.048,0,0,1-1.782-3.851M192.311,162.1a.49.49,0,0,1,.08-.319c-.145-.022-.21-.134-.427-.071-.007.274.075.446.347.39M218.8,180.669c-.061,1.5-1.292,2.012-1.851,3.089-.639.365-1.269.736-1.118,1.77.976-.188.342.967,1.022.968a.541.541,0,0,0-.592.468c.46.316.829.7,1.606.4a1.525,1.525,0,0,1-.163,1.9c.341.234.119.42.277.819.328.053.178-.3.506-.252.33.209-.147.7.265.716.382-.885,1.175-2.613,2.485-1.775a2.528,2.528,0,0,1,.908-1.754c-.78-1.549.611-1.912,1.124-3.031.141-.309,0-.69.132-.955.1-.2.384-.254.487-.459.14-.278.057-.63.247-.861.419-.512,1.214-.614,1.265-1.256-1.758-1.345-4.642.414-6.6.214m-2.5,9.442c.164.111.194.383.354.5a4.982,4.982,0,0,0,.518-1.408c-.264-.258-.256.3-.522.042-.241-.472.383-.7.03-.946-.437.529-.206,1.044-.38,1.815m6.945,11.942c-.2-.358-.145-.746-.285-.924-.15.235-.048.9.285.924m-10.293,19.624c-.18.045-.545-.253-.626.05.245.107.484.265.626-.05"/><path class="cls-26" d="M217.714,144.944c.058.15.131-.052.314-.026-.163.8.082,1.1-.05,2-.185-.263-.242-.674-.468-.594-.217.049.176.268-.071.428-.166-.025.077-.193-.12-.2-.258.138.106.805-.133.958.339.064.312-.187.39-.347.289.507.344,2.316-.311,2.652a1.047,1.047,0,0,1,.09-1.48c-.819-1.384-.457-3.5-.765-5.609a15.561,15.561,0,0,1-.247,2.119,3.041,3.041,0,0,1-.307-2.5c-.322.145.024-.574-.381-.808.466-2.067-.611-4.577.43-6.443,1.691-.206,2.185-1.4,4.4-1.405.153.274.425.229.26.61,1.457.216,2.826.987,3.034,2.489a19.623,19.623,0,0,0,0,2.625,2.711,2.711,0,0,0-.581,1.938,9.093,9.093,0,0,0-1.584,3.8c-.362.044-.21-.513-.565-.477-.087.069-.176.137-.208.015-.337.115,0,.594-.237.965-.444.029-.273-.673-.588-.794-.429.334-.671,1.175-1.508.855.033.38.569.168.764.361a4.588,4.588,0,0,1-.17,1.8c-1.119-.914-.5-2.783-1.355-3.776-.259.157-.2.524.242.4-.091.147-.067.4-.279.442"/><path class="cls-26" d="M206.166,151.542c.3.075.4.02.137.409.1.2.416-.222.609-.26-.135-.181-.559-.028-.457-.489.3.428.194-.072.514-.145a1.768,1.768,0,0,0,.612,1.107c.086.479-.586.317-.591.467-.155-.133-.267-.5-.158-.618-.289-.054-.189.226-.4.241.027.121.2.074.322.079-.164.216-.2.549-.359.766-.4-.112-.457.143-.923.284a3.794,3.794,0,0,0-.36-1.863.288.288,0,0,0-.182.331c-1.181-1.622-2.521-3.055-3.828-4.524-.477-1.17-1.678-3.159-.667-4.357.052-.327-.3-.178-.249-.5.294-.542.827-.774.838-1.329a1.194,1.194,0,0,0,1.313-.632c.326-.115.337.141.539.169a.938.938,0,0,0,.384-.451c1.55-.208,1.954.391,2.927,1.128,1.182.9,2.144,1.536,2,4.043a8.789,8.789,0,0,0-.634,2.571c-.518.433-.6,1.234-1.127,1.664.127.4.355-.375.417-.033-.329.672-.044.845,0,1.367-.109-.062-.126-.233-.328-.187-.459.109-.035.754-.36.766"/><path class="cls-26" d="M261.426,162.229c.009-.12.1-.066.105-.007.128-.33.27-1.227-.013-1.471.4-2.5,3.042-2.747,4.708-4.158,1.24-1.051,2.41-2.277,4.207-2.544,2.039-.3,4.561,1.07,4.946,2.753.869,3.827-1.989,6.3-3.279,8.876a18.6,18.6,0,0,1-5.31,8.41c-.175.012-.35.026-.523.041-.45,2.263-3.84,2.2-5.621,1.921-.121.224-.322.67-.706.373.212-.674-.591-1.494.356-2.13.356.263-.307.364.047.627.2-.059-.027-.479.393-.348-.24-.45.026-.749.211-1.277.023-.332-.283-.273-.449-.383.189-.165.148-.522.254-.757a6.68,6.68,0,0,1-.567-4.469c.162.075.176.325.249.506.453-.15.091-.482.256-.759-.1-.318-.292-.113-.531-.061-.021-.244-.039-.487-.06-.73.184-.212.262-.032.521-.041a.453.453,0,0,0-.434-.177c-.063-.248.175-.241.063-.531.425-.064.074.214.139.411l.314-.025a1.3,1.3,0,0,0,.134-.957.476.476,0,0,0,.319.079c.008-.178-.2-.255-.025-.311-.335.328-.574-.96-.164-.723-.109-.213-.341-.284-.361-.6.458.033.2-.545.7-.477-.484-.478.668-.853.124-1.06"/><path class="cls-26" d="M222.888,119.113c1.82,1.284.787,4.625.422,6.583a.583.583,0,0,1-.406.136c.074.1.247.091.232.3a1.967,1.967,0,0,0-.909,1.754c-.292.176-.648.291-.683.684-.275.1.036-.5-.239-.4a3.7,3.7,0,0,1-.23,1.068c-1.889.265-2.7-.847-4.2-1.343.1.519.842.8.631,1.316-.267.309-.112-.148-.33-.185-.31.631.272,1.422-.388,1.711a8.894,8.894,0,0,1-.259-3.236c.2,0,.1.341.337.29a12.342,12.342,0,0,1-.492-3.532c-.1-.143-.116-.4-.442-.278a30.782,30.782,0,0,1,.038-4.729,4.395,4.395,0,0,0-.067-.835c-.352-2.789-1.313-5.745-1.121-8.734.219-3.367,1.073-7.61,4.544-7.5a6.248,6.248,0,0,1,5.7,4.269,17.853,17.853,0,0,1-.948,11.732,5.8,5.8,0,0,0-1.185.936"/></g><g class="cls-23"><path class="cls-27" d="M237.9,180.49l.5,5.337a2.854,2.854,0,0,1-2.333,3.22l-11.912,1.1,1.1,11.851a2.81,2.81,0,0,1-2.737,2.882l-5.334.493a2.812,2.812,0,0,1-3.222-2.328l-1.1-11.85-11.911,1.1a2.855,2.855,0,0,1-2.883-2.737l-.5-5.337a2.873,2.873,0,0,1,2.325-3.281l11.912-1.105-1.1-11.85a2.812,2.812,0,0,1,2.737-2.883l5.336-.494A2.809,2.809,0,0,1,222,166.945l1.1,11.851,11.914-1.1a2.871,2.871,0,0,1,2.889,2.8"/></g></g><g class="cls-28"><g class="cls-28"><path class="cls-9" d="M984.76,190.3a74.523,74.523,0,1,1-71.289-77.625A74.524,74.524,0,0,1,984.76,190.3"/><path class="cls-29" d="M984.76,190.3a74.523,74.523,0,1,1-71.289-77.625A74.524,74.524,0,0,1,984.76,190.3Z"/></g><g class="cls-30"><path class="cls-26" d="M894.448,153.229c.387.121.276.364.169.682-.284-.064-.188-.4-.169-.682"/><path class="cls-26" d="M897.3,175.761c.312.112.582.076.458.636-.163-.037-.21.08-.38.033a1.523,1.523,0,0,1-.078-.669"/><path class="cls-26" d="M938.064,204.316c.232-.108.2-.163.165-.441.2-.007.232.1.35.151-.064.209-.2.319-.2.622-.3.032-.149-.267-.319-.332"/><path class="cls-26" d="M881.243,225.862a.5.5,0,0,0-.151.35c-.09-.016-.183-.031-.273-.045,0-.109.046-.159.121-.167-.043-.1-.194-.128-.137-.3.251-.188.147.164.44.165"/><path class="cls-26" d="M881.655,226.771l-.365-.06c-.082-.1.028-.339-.227-.319.062-.134.3-.029.242-.332.089.017.05.122.061.2.06.2.378.21.289.515"/><path class="cls-26" d="M879.882,227.322c0-.081.05-.081.105-.076l.185.029c-.255.266.121.434-.105.637-.487.025-.044-.562-.185-.59"/><path class="cls-26" d="M894.507,152.3c.31-.658-1.386-1.623-.037-2.062-.352-2.955-.19-11.485,3.775-11.63a5.066,5.066,0,0,1,4.179,2.462c.758,2.386,1.312,5.906-.142,8.857-.026,1.381-1.092,2.181-1.873,2.873.138.7.7.845.49,1.578-.086.289-.5.372-.665.636-.493.764-.447,1.755-.738,2.219-.277.3-.1-.4-.3-.425-.224.117-.063.494-.409.214.233.719-.324,1.337.051,1.971-.428.285-.423.49-.557,1.125-.2.009-.154-.16-.139-.3-.412.489-.014,1.272-.132,1.941a1.51,1.51,0,0,1-1.377.428c-.255.4-1.291.557-1.757,1.021-.277-.041-.323-.25-.5-.362.083-.588.6-1.051.042-1.4.391-.566.15-1.486.144-2.032a.256.256,0,0,1,.3-.139c-.9-1.64-.744-3.4-.349-5.291"/><path class="cls-26" d="M930.309,164.9c.372.2-.128,1.038-.316.789-.262.043.214.211.015.471-.164-.1-.369.48-.406.775a.436.436,0,0,0-.259-.136c.481.56-.829.711-.512,1.412-.28-.056-.307.243-.667.079.255.224.068.92-.087,1.107a1.15,1.15,0,0,1-.239,1.455,4.668,4.668,0,0,1-1.442,4.815c-.033.917-.906,1.548-1.465,2.1.087.355.171-.191.377-.033.17.382-.408.68-.5,1.321-.214-.07-.224.136-.469.018-.079.451-.407.55-.454,1.05-.294-.4-.49-.035-.651-.015-.173-.2-.583-.225-.456-.636-.188-.075-.2.1-.229.244a8.192,8.192,0,0,1-1.019-1.2c-.259-.135-.195.177-.241.335a.759.759,0,0,1-.594-.378c-.235-.067-.264.152-.332.319-.116-.359-.076-.208-.44-.165.212-.517-.357-.029-.214-.408-.174.057-.219.291-.347.41a4.144,4.144,0,0,1,1.039-2.915c-.25-.062-.043-.094,0-.561a.442.442,0,0,0,.26.135c-.337-.575.253-.289.346-.971-.2-.019-.233.2-.256.426a1.793,1.793,0,0,1,.072-1.579c.273-.731.733-.755.478-1.789.011.045.142-.035.106-.078.012-.282.358-.1.424-.3a4.945,4.945,0,0,1,.28-2.853c.785-.028,1.1-.71,1.362-1.459.3-.072.569-.178.88-.23a1.42,1.42,0,0,1-.443-.726c.069-.278.265-.378.379-.594a24.65,24.65,0,0,1,1.993-8.18,1.705,1.705,0,0,0-.182-.591,16.236,16.236,0,0,1,3.143-8.928c1.41-1.7,2.514-3.287,5.393-2.67,1.651.355,2.842,2.875,2.82,5.042-.024,2.932-1.047,6.9-2.6,8.458-.16.161-.573.22-.818.425a6.779,6.779,0,0,1-1.772,1.114,4.806,4.806,0,0,1-1.534,4.8.253.253,0,0,1-.057.365c-.207.122-.116-.027-.366-.06"/><path class="cls-26" d="M879.311,213.112c.39-.24-.209-1.044.223-1.366-.366-.223.2-1.229-.245-1.351.224-.209.538-.94.072-1.016a2.722,2.722,0,0,0-.387-2.774c-.015-.212.2-.1.228-.244-.214-.343-.213-.523-.669-.482a.252.252,0,0,1,.3-.138c-.348-.258-.85-.657-.459-1.2-.757-1.04-.11-2.446-.132-3.762-.013-.9-.533-1.528-.264-2.382.908-2.872.1-7.021,1.063-9.923a11.026,11.026,0,0,1,.786-1.928c.4-.691,1.215-1.039,1.693-1.78s.51-1.721,1.389-2.2a.753.753,0,0,1,.1-.636c-.1-.205-.388.08-.211-.41l-.546-.09c.2-.432.287-1.147-.4-1,.192-.38-.027-.462-.486-.455.032-.1,0-.167-.063-.2-.022-.254.218-.143.319-.227-.4.026-.309-.515-.729-.68.047-.235.377-.073.422-.305-.044-.431-.29.115-.44-.165.205-.335-.315-.826.135-.821a.46.46,0,0,0-.23-.316c-.41-.1.117.666-.376.591.266-.235-.1-.929.194-1.182-.156-.183-.116-.011-.364-.063.331-.708-.761-.735-.187-1.152-.034-.282-.17.191-.378.034a9.587,9.587,0,0,0-.717-1.9c.029-.33.328-.287.376-.592-.025-.25-.4-.25-.485-.453.3-.225-.012-.467-.078-.668.625-3.262-.913-5.492.339-8.92a4.424,4.424,0,0,0-.4-.437c-.056-2.5-.983-6.229.629-8.406-.137-.391.255-.874.237-1.456a2.843,2.843,0,0,1,3.9-.952,3.9,3.9,0,0,1,2.344,2.813c.093.565.371,1.139.537,1.866-.255.453-.477,1.336-.072,1.577a.249.249,0,0,1-.226.243c-.016.238.176-.1.363.061a15.262,15.262,0,0,1-.522,3.187c-.631.217-1,1.426-1.708,1.869a.769.769,0,0,0,.366.622c.149-.017.125-.273.394-.122.737.621.122,2.062.264,2.94-.051.123-.161-.018-.165-.121-.3.148.042.5-.136.82-.151,0-.142-.11-.256-.136-.285.66.065,1.29-.072,1.578.035.282.17-.188.379-.031.048.832-.93,1.589-.3,2.382a3.039,3.039,0,0,1,1.709,3.833c-.093.153-.166-.013-.272-.045-.009,1.948-1.864,2.534-1.415,4.069-.346.09,0-.317-.228-.317-.068.159.087.56-.3.7.247-.112.581.216.849.512-.146.458.045.719-.163,1a11.576,11.576,0,0,0,2.371,2.072c.528.275.816-.18,1.26-.262a23.653,23.653,0,0,1,3.335.173,1.369,1.369,0,0,1,.127.956c.381-.127.382-.089.622.2-.176-.385.221-.3.394-.125-.028-.17.328-.333.072-.454-.141.018.018.123-.042.274-.171-.068-.016-.367-.319-.335-.144.018.016.123-.046.275a.6.6,0,0,0-.44-.166c.16-.151.55-.321.682-.169-.263-.58-.128-.046.181-.53a1.522,1.522,0,0,1,.639.665,3.986,3.986,0,0,1,.452-.489c.16-.275-.283-.116-.121-.392a4.107,4.107,0,0,1,1.408-.612c.17.119.14.382.078.669.323.189.085-.407.41-.214-.029.433-.04.617.426.817.128-.279-.094-.307-.214-.41.321-.128.075-.464.544-.47-.032-.218.281-.683-.075-.666.3-.326.5.025.8.225,0-.218.013-.438-.3-.425.044-.25.466-.148.563,0a1.86,1.86,0,0,0,1.208-1.111c1.558-.363,1.717-2.368,3.94-1.787.577.15,1.2.5,1.866.025.159-1.122.338-2.212,1.223-2.324-.091.685.07.694.275,1.168-.138.265-.118-.223-.242-.228a1.79,1.79,0,0,0-.195,1.745c-.11-.386.294-.816.166-1-.041-.093.556.018.425.255.414-.061.393-.289.744.028-.016.166-.143.175-.151.35a5.011,5.011,0,0,1,2.8,2.329,2.328,2.328,0,0,1,1.166-.837c.95.5,1.431-.713,2.759-.3.468.147.837.7,1.355.874.846.3,2-.086,2.746.357.587.758,1.02,1.811,2.036,1.829.034.272-.166.216-.163.441.276.092.389-.053.5-.2.187.055-.04.4.109.483.54-.249.98.595,1.23,1.046-.19.335-.515.873-.072,1.016-.168,2.276-.179,3.838-1.246,5.313.391,1.325-1.057,2.669-1.43,3.6-.442.092-.594.59-1.045.673-.216.928-.881,1.23-1.559,1.52a9,9,0,0,1-1.66,2.159c.558.741,2.625.591,2.25,2.239.333.588,1.138.843,1.551,1.375a9.815,9.815,0,0,1,5.974,4.624c.023.367-.275.289-.362.5.01.181.158.263.107.485-1.521,1.5.293,1.889.8,3.123.107.355.738.328.61.849a5.544,5.544,0,0,1,2.177,2.695c1.033.086.785,1.1,1.445,1.449a3.628,3.628,0,0,0-.407,1.338c.376.536.947.779.975,1.469.046,1.049-.911,1.695-1.251,2.506-.3-.045-.391.2-.758.063.323.245.1.5.109,1.046-.443.13-.728.476-1.213.549-.036.214.114.295,0,.562-.678.881-1.526,1.526-2.179,2.449-.66-.022-.985.474-1.011,1.61-1.3,1.5-2.3,3.436-4.3,3.969-.835,1.407-2.184,2.1-3.311,3.105-.225-.05-.3.1-.486.108-1.091.454-2.191,1.615-3.834,1.708-2.3.132-4.428.638-6.99.446a20.717,20.717,0,0,1-4.294-.61,11.9,11.9,0,0,1-3.675-1.538c-2.644-.551-4.886.343-7.143.232-.787-.037-1.416-.417-2,.233-1.1-.281-2.279-.216-2.961-.764-.02-.015.148-.123.121-.166-.274-.462-1.03-.961-1.524-1.558a10.979,10.979,0,0,1-2.283-3.741.461.461,0,0,1,.319-.229c-.173-.448-1.319-1.178-.248-1.35-.3.237.162.417.275.606-.139-.306-.058-.274.029-.742-.2.022-.58-.212-.653-.015a1.123,1.123,0,0,1,.089-.546,1.49,1.49,0,0,1-.594-.939c-.144.175-.387.21-.455.488-.378-.57-1.3-1.474-.552-2.333.6.237.581.921,1,1.284a4.69,4.69,0,0,0-.55-1.213c.113-.225.559-.471.106-.635.146-.44.649.312.7-.26-.109-.072-.431-.1-.047-.289-.051-.107-.271-.056-.425-.256.088-.186.574.006.637.1-.1-.4-.5-.342-.8-.227.278-.092-.124-.438.244-.334-.062-.333-.239-.21-.41-.346.071-.085.223-.062.225-.245-.741-.218-.213-1.571-.356-2.4l.274.045c0-.109-.154-.1-.259-.135.049-.156.192-.182.395-.122-.277-.1-.2-.444-.365-.621a.5.5,0,0,1,.421-.3c-.291.159-.658-1.03-.015-1.031a4.448,4.448,0,0,1-.71-3.672m3.774-33.881a.439.439,0,0,1,.136-.256c-.119-.05-.152-.159-.35-.152-.064.234-.031.4.214.408m18.732,21.487c-.37,1.273-1.531,1.448-2.237,2.252-.624.177-1.242.361-1.332,1.277.875.046.089.9.67,1.045a.478.478,0,0,0-.606.275c.327.368.561.775,1.291.681a1.345,1.345,0,0,1-.542,1.591c.242.273.012.385.064.76.269.114.216-.222.485-.109.239.249-.274.572.076.669.514-.677,1.558-1.987,2.5-.993.289-.566.578-1.134,1.148-1.308-.339-1.491.928-1.507,1.6-2.356.185-.234.144-.59.315-.789.127-.149.382-.136.514-.29.178-.209.182-.526.393-.684.466-.35,1.169-.269,1.348-.807-1.22-1.523-4.059-.628-5.692-1.214m-4.134,7.55c.117.13.085.369.2.5a4.346,4.346,0,0,0,.741-1.094c-.17-.277-.282.2-.455-.074-.106-.455.476-.519.226-.8-.486.36-.4.85-.709,1.472m3.415,11.687c-.092-.347.033-.669-.049-.851-.178.169-.232.763.049.851M887.67,235.142c-.163,0-.413-.331-.546-.089.187.143.357.329.546.089"/><path class="cls-26" d="M907.981,170.5c.018.141.123-.016.275.045-.309.65-.163.958-.467,1.7-.1-.264-.064-.628-.274-.608-.2,0,.094.267-.151.352-.137-.057.106-.149-.06-.2-.25.063-.08.711-.317.791.277.126.306-.094.408-.214.139.494-.2,2.054-.828,2.2-.324-.392.041-1.121.391-1.246-.409-1.358.349-3.093.531-4.961-.275.509-.324,1.338-.66,1.761a2.684,2.684,0,0,1,.266-2.2c-.307.056.142-.486-.155-.772.836-1.67.446-4.045,1.731-5.422,1.49.182,2.166-.735,4.063-.27.073.266.316.286.094.577a2.825,2.825,0,0,1,2.069,2.771,17.144,17.144,0,0,0-.553,2.247,2.382,2.382,0,0,0-.907,1.535,8,8,0,0,0-2.16,2.916c-.319-.038-.071-.483-.383-.528-.088.041-.179.081-.18-.03-.313.027-.13.507-.408.775-.386-.069-.091-.633-.334-.8-.439.194-.823.863-1.472.412-.052.332.452.264.577.47a4.039,4.039,0,0,1-.525,1.5c-.764-1.018.16-2.487-.36-3.517-.255.079-.282.406.121.394-.109.107-.141.326-.332.319"/><path class="cls-26" d="M896.705,173.7c.242.128.336.1.031.38.045.193.4-.1.575-.094-.077-.183-.471-.142-.287-.515.171.43.181-.021.47-.015a1.556,1.556,0,0,0,.29,1.076c-.028.428-.569.147-.605.274-.1-.146-.123-.48,0-.561-.235-.108-.21.152-.392.122,0,.109.154.105.259.135-.186.15-.283.428-.469.58-.319-.181-.422.025-.85.047a3.343,3.343,0,0,0,.086-1.67.254.254,0,0,0-.225.245c-.668-1.638-1.511-3.147-2.318-4.681-.161-1.1-.768-3.057.351-3.869.114-.269-.221-.216-.107-.484.367-.4.872-.487,1-.96a1.051,1.051,0,0,0,1.257-.263c.3-.029.259.193.425.259a.818.818,0,0,0,.424-.3c1.37.15,1.589.749,2.266,1.586a3.413,3.413,0,0,1,.86,3.882,7.806,7.806,0,0,0-1.087,2.066c-.534.261-.778.928-1.316,1.185.024.368.383-.246.364.061-.424.5-.217.713-.286,1.169-.08-.075-.059-.225-.241-.229-.416,0-.189.638-.47.579"/><path class="cls-26" d="M941.723,194.537c.034-.1.1-.036.091.015.18-.255.491-.991.3-1.261.875-2.054,3.184-1.706,4.908-2.561,1.284-.637,2.544-1.438,4.138-1.287,1.808.176,3.676,1.881,3.649,3.4-.066,3.458-3.035,4.972-4.683,6.9a16.394,16.394,0,0,1-6.323,6.072c-.153-.027-.3-.052-.456-.076-.864,1.841-3.751,1.069-5.216.455-.151.165-.417.5-.683.169.325-.532-.189-1.4.755-1.747.25.3-.339.246-.092.546.183-.007.078-.415.41-.214-.11-.435.181-.635.451-1.048.09-.279-.185-.293-.3-.423.2-.1.237-.415.378-.593a5.891,5.891,0,0,1,.46-3.944c.123.1.082.315.107.485.419-.032.179-.393.379-.594-.017-.294-.226-.159-.441-.166.033-.212.069-.424.1-.636.2-.143.23.028.455.075-.039-.133-.164-.2-.335-.243,0-.226.2-.169.167-.441.376.034.018.2.032.38l.274.045c.24-.337.217-.223.316-.79a.422.422,0,0,0,.257.135c.045-.151-.116-.26.045-.271-.357.21-.289-.943.012-.654-.048-.205-.231-.315-.182-.59.385.125.285-.425.7-.261-.313-.511.752-.588.33-.88"/><path class="cls-26" d="M917.873,149.493c1.286,1.484-.305,4.124-1.031,5.722a.514.514,0,0,1-.377.03c.042.1.192.13.136.3-.575.036-1.235,1.093-1.148,1.308-.287.089-.617.112-.729.441-.257.024.135-.419-.121-.392a3.222,3.222,0,0,1-.423.865c-1.672-.173-2.132-1.3-3.312-2.039-.021.466.552.859.261,1.26-.293.207-.064-.15-.243-.228-.4.474-.068,1.273-.694,1.381a7.85,7.85,0,0,1,.463-2.823c.17.038.014.313.227.319a10.856,10.856,0,0,1,.327-3.125c-.058-.145-.016-.364-.319-.332a27.018,27.018,0,0,1,1.032-4.038,3.9,3.9,0,0,0,.12-.729c.289-2.461.092-5.193.889-7.709.9-2.835,2.528-6.285,5.475-5.459a5.506,5.506,0,0,1,3.973,4.858,15.735,15.735,0,0,1-3.293,9.837,5.14,5.14,0,0,0-1.213.55"/></g><g class="cls-28"><path class="cls-27" d="M917.733,205.183l-.706,4.671a2.517,2.517,0,0,1-2.677,2.262l-10.426-1.577-1.567,10.372a2.477,2.477,0,0,1-2.951,1.887l-4.669-.706a2.48,2.48,0,0,1-2.264-2.675l1.567-10.37-10.424-1.577a2.515,2.515,0,0,1-1.888-2.951l.706-4.671a2.531,2.531,0,0,1,2.683-2.315l10.426,1.575,1.567-10.371a2.481,2.481,0,0,1,2.953-1.888l4.67.706a2.477,2.477,0,0,1,2.261,2.675L905.426,200.6l10.427,1.576a2.532,2.532,0,0,1,1.88,3"/></g></g><g class="cls-31"><g class="cls-31"><path class="cls-9" d="M1694.876,223.7a83.122,83.122,0,1,1-101-60.141,83.122,83.122,0,0,1,101,60.141"/><path class="cls-32" d="M1694.876,223.7a83.122,83.122,0,1,1-101-60.141A83.122,83.122,0,0,1,1694.876,223.7Z"/></g><g class="cls-33"><path class="cls-26" d="M1586.516,212.977c.452,0,.411.3.4.675-.325.022-.329-.367-.4-.675"/><path class="cls-26" d="M1596.773,236.14c.368.02.646-.1.692.533-.186.013-.2.154-.394.157a1.682,1.682,0,0,1-.3-.69"/><path class="cls-26" d="M1649.462,253.613c.213-.189.164-.238.036-.523.207-.07.28.034.422.049,0,.244-.112.405-.011.727-.314.131-.244-.237-.447-.253"/><path class="cls-26" d="M1595.639,294.811a.568.568,0,0,0-.05.423c-.1.012-.2.025-.306.039-.033-.117,0-.184.076-.216-.078-.1-.248-.076-.244-.281.209-.28.21.128.524.035"/><path class="cls-26" d="M1596.37,295.652l-.409.052c-.12-.082-.079-.372-.345-.268.023-.164.309-.127.153-.432.1-.011.092.114.127.19.127.19.471.1.474.458"/><path class="cls-26" d="M1594.651,296.807c-.029-.085.028-.1.089-.115l.206-.027c-.187.365.269.424.092.714-.513.182-.227-.587-.387-.572"/><path class="cls-26" d="M1586.283,211.969c.12-.8-2-1.291-.7-2.191-1.322-3.045-3.877-12.212.313-13.635a5.652,5.652,0,0,1,5.253,1.293c1.574,2.307,3.291,5.892,2.681,9.51.414,1.485-.469,2.68-1.082,3.669.372.708,1.02.678,1.028,1.529,0,.337-.409.557-.507.893-.283.974.083,2.018-.079,2.607-.2.4-.237-.4-.462-.356-.2.2.091.547-.368.359.479.694.081,1.532.685,2.09-.366.441-.3.658-.235,1.38-.214.075-.216-.122-.245-.28-.285.655.392,1.364.48,2.117-.348.5-.846.959-1.336.9-.145.506-1.2,1.008-1.55,1.653-.309.045-.425-.164-.652-.227-.1-.655.3-1.314-.4-1.5.237-.73-.315-1.636-.5-2.217a.283.283,0,0,1,.28-.245c-1.492-1.464-1.881-3.393-2.065-5.543"/><path class="cls-26" d="M1628.568,213.976c.462.1.195,1.15-.086.945-.266.128.3.156.167.5-.206-.051-.241.632-.186.959a.486.486,0,0,0-.32-.063c.692.445-.659,1.025-.1,1.673-.317.029-.25.357-.687.3.344.158.367.961.261,1.211a1.282,1.282,0,0,1,.209,1.632,5.2,5.2,0,0,1,0,5.6c.258.991-.473,1.944-.894,2.709.206.351.121-.259.391-.156.305.353-.217.857-.107,1.57-.251-.007-.2.217-.5.169.059.508-.26.718-.149,1.267-.444-.336-.536.12-.7.193-.249-.158-.7-.054-.692-.535-.225-.019-.177.171-.166.335a9.094,9.094,0,0,1-1.472-.953c-.32-.062-.151.252-.15.435a.846.846,0,0,1-.756-.214c-.272,0-.234.247-.253.447-.238-.346-.147-.2-.523-.036.061-.619-.391.084-.359-.367-.168.116-.141.381-.239.549a4.615,4.615,0,0,1,.177-3.447c-.286.014-.076-.086-.183-.6a.489.489,0,0,0,.321.062c-.544-.507.177-.39.059-1.148-.222.044-.186.285-.138.536a2.005,2.005,0,0,1-.428-1.71c.058-.867.542-1.041-.061-2.064.026.044.141-.082.088-.118-.078-.3.35-.222.356-.461a5.512,5.512,0,0,1-.614-3.137c.83-.282.945-1.11.989-2,.294-.172.551-.372.867-.526-.264-.176-.561-.305-.706-.635-.015-.319.162-.489.215-.755a27.5,27.5,0,0,1-.487-9.379,1.893,1.893,0,0,0-.384-.573,18.1,18.1,0,0,1,.5-10.545c.963-2.268,1.636-4.317,4.908-4.579,1.879-.149,3.957,2.164,4.627,4.486.912,3.141,1.088,7.709-.073,9.869-.12.224-.542.419-.738.716a7.569,7.569,0,0,1-1.537,1.757,5.361,5.361,0,0,1-.105,5.616.281.281,0,0,1,.055.408c-.181.2-.132.009-.409.053"/><path class="cls-26" d="M1589.5,281.806c.34-.381-.557-1.049-.2-1.531-.463-.121-.179-1.377-.693-1.365.173-.3.274-1.177-.249-1.109a3.036,3.036,0,0,0-1.3-2.84c-.085-.222.176-.173.165-.334-.338-.3-.394-.49-.868-.3a.278.278,0,0,1,.278-.244c-.453-.164-1.118-.431-.873-1.132-1.142-.87-.9-2.579-1.344-3.978-.3-.96-1.058-1.462-1.044-2.461.052-3.359-2.143-7.533-2.038-10.943a12.248,12.248,0,0,1,.223-2.312c.2-.865.966-1.5,1.239-2.443s0-2,.78-2.8a.848.848,0,0,1-.094-.713c-.172-.187-.389.21-.357-.371-.205.028-.409.053-.612.079.072-.524-.06-1.317-.745-.939.084-.467-.176-.484-.664-.331,0-.12-.048-.179-.131-.192-.1-.264.187-.223.268-.344-.419.155-.494-.452-1-.494-.025-.266.379-.2.353-.461-.185-.446-.273.216-.523-.036.112-.423-.6-.781-.119-.919a.51.51,0,0,0-.346-.265c-.469.027.338.675-.213.752.209-.336-.4-.962-.17-1.325-.226-.146-.129.025-.409.049.126-.863-1.049-.542-.569-1.171-.127-.29-.121.259-.393.157a10.584,10.584,0,0,0-1.373-1.8c-.074-.363.259-.412.213-.753-.107-.259-.506-.14-.664-.33.245-.334-.161-.494-.3-.688-.375-3.686-2.732-5.577-2.49-9.64a5.1,5.1,0,0,0-.563-.34c-.86-2.654-3.043-6.342-2.017-9.184-.271-.374-.007-1.015-.212-1.631.6-1.474,1.453-2.557,3.858-2.264a4.351,4.351,0,0,1,3.4,2.256c.281.574.761,1.1,1.171,1.822-.128.566-.082,1.581.427,1.709a.277.277,0,0,1-.163.332c.058.259.156-.163.407-.052a16.98,16.98,0,0,1,.462,3.572c-.605.435-.612,1.844-1.227,2.545a.858.858,0,0,0,.589.547c.155-.066.047-.332.383-.256.986.428.789,2.164,1.222,3.056-.015.148-.178.033-.215-.076-.276.255.2.522.117.92-.161.051-.187-.072-.317-.063-.093.8.482,1.357.428,1.709.127.29.122-.256.395-.155.317.874-.486,2,.445,2.641a3.389,3.389,0,0,1,3.052,3.549c-.051.192-.182.039-.306.039.614,2.084-1.18,3.3-.21,4.8-.341.206-.105-.337-.345-.265-.022.191.272.57-.1.842.228-.2.691.046,1.071.276-.009.536.278.754.147,1.123a12.954,12.954,0,0,0,3.2,1.456c.652.124.814-.454,1.262-.684,1.026-.523,2.226-.448,3.619-.882a1.528,1.528,0,0,1,.442.981c.366-.257.38-.217.727.011-.311-.355.142-.388.382-.259-.085-.174.244-.461-.069-.51-.145.065.058.126.042.307-.2-.018-.133-.387-.448-.255-.147.065.057.126.039.308a.663.663,0,0,0-.523-.037c.123-.212.485-.519.675-.4-.467-.537-.152-.009.023-.625a1.691,1.691,0,0,1,.9.506,4.38,4.38,0,0,1,.327-.666c.083-.346-.34-.034-.255-.38a4.581,4.581,0,0,1,1.308-1.105c.221.073.272.363.3.689.406.1-.04-.461.37-.359.107.472.155.672.716.737.047-.339-.2-.3-.36-.37.3-.239-.068-.519.431-.676-.1-.223.082-.82-.293-.688.217-.444.539-.132.929-.016-.064-.234-.127-.472-.461-.357-.033-.281.452-.307.6-.18a2.072,2.072,0,0,0,.936-1.574c1.549-.886,1.078-3.079,3.639-3.169.664-.024,1.444.148,2-.571-.189-1.249-.346-2.471.563-2.873.122.76.3.718.668,1.159-.063.328-.2-.2-.332-.166a2,2,0,0,0,.35,1.927c-.241-.377.053-.966-.143-1.122-.074-.087.6-.159.536.136.422-.2.327-.435.8-.208.035.182-.1.232-.049.422a5.591,5.591,0,0,1,3.732,1.594,2.594,2.594,0,0,1,.978-1.267c1.176.234,1.3-1.219,2.854-1.2.547.008,1.117.477,1.727.5,1,.045,2.1-.73,3.048-.5.87.622,1.669,1.609,2.761,1.3.123.279-.109.284-.033.523.324.01.4-.181.468-.37.218,0,.087.444.271.481.5-.44,1.238.322,1.649.724-.1.418-.271,1.1.249,1.109.548,2.485,1.036,4.158.368,6.075.842,1.291-.276,3.191-.377,4.3-.443.24-.447.82-.9,1.053a2.419,2.419,0,0,1-1.178,2.123,10.09,10.09,0,0,1-1.084,2.838c.834.613,2.994-.208,3.12,1.673.544.522,1.486.537,2.1.973a10.941,10.941,0,0,1,7.863,3.031c.141.384-.2.4-.226.651.068.189.252.23.268.483-1.144,2.094.918,1.925,1.851,3.082.228.345.894.115.923.713a6.17,6.17,0,0,1,3.189,2.183c1.131-.239,1.19.921,2.008,1.086a4.055,4.055,0,0,0-.008,1.56c.574.452,1.262.53,1.512,1.257.385,1.107-.431,2.1-.534,3.079-.334.047-.354.34-.791.309.423.159.268.5.451,1.083-.431.281-.625.742-1.12.975.031.24.217.279.183.6-.443,1.159-1.143,2.119-1.545,3.313-.712.188-.9.822-.565,2.045-.91,2.024-1.357,4.406-3.323,5.615-.443,1.771-1.662,2.945-2.545,4.377-.257.019-.3.2-.484.271-1.022.835-1.825,2.427-3.551,3.051-2.417.878-4.528,2.1-7.327,2.713a23.078,23.078,0,0,1-4.783.722,13.245,13.245,0,0,1-4.419-.468c-3,.257-5.111,1.93-7.558,2.533-.853.212-1.646.008-2.064.889-1.269.053-2.5.5-3.408.131-.026-.01.119-.179.076-.217-.441-.4-1.408-.7-2.127-1.177a12.231,12.231,0,0,1-3.636-3.267.517.517,0,0,1,.267-.347c-.327-.422-1.785-.837-.695-1.363-.241.348.305.394.486.56-.245-.283-.149-.274-.2-.8-.206.087-.689-.042-.7.193a1.255,1.255,0,0,1-.078-.612,1.661,1.661,0,0,1-.936-.814c-.1.234-.346.349-.33.667-.586-.488-1.864-1.157-1.337-2.316.717.061.917.8,1.485,1.05a5.249,5.249,0,0,0-.976-1.119c.049-.277.447-.683-.091-.713.016-.516.795.126.662-.5-.139-.042-.492.032-.142-.293-.089-.1-.308.026-.536-.138.035-.227.615-.177.714-.091-.228-.393-.646-.2-.932.015.267-.188-.273-.429.153-.436-.173-.336-.322-.148-.549-.238.05-.114.219-.137.163-.334-.861,0-.73-1.611-1.148-2.446l.308-.04c-.032-.117-.2-.062-.32-.061,0-.183.147-.256.383-.257-.326-.014-.36-.409-.589-.547a.551.551,0,0,1,.353-.459c-.26.263-1.033-.89-.346-1.1a4.961,4.961,0,0,1-1.933-3.695m-6.805-37.411a.489.489,0,0,1,.063-.317c-.143-.015-.212-.122-.422-.05.006.27.094.435.359.367m26.889,16.968c.011,1.478-1.173,2.037-1.671,3.122-.61.388-1.211.783-1.014,1.791.95-.231.383.933,1.051.9a.533.533,0,0,0-.56.489c.467.288.848.648,1.6.314a1.5,1.5,0,0,1-.07,1.874c.346.214.137.407.312.791.324.036.16-.306.484-.271.334.189-.11.7.295.69.332-.887,1.029-2.622,2.355-1.861a2.487,2.487,0,0,1,.808-1.765c-.839-1.484.51-1.907.96-3.03.123-.31-.034-.677.084-.944.088-.2.365-.268.457-.474.123-.28.026-.621.2-.857.387-.523,1.163-.661,1.182-1.294-1.79-1.236-4.538.628-6.47.524m-2,9.39c.166.1.208.367.37.471a4.874,4.874,0,0,0,.442-1.406c-.271-.241-.237.306-.51.066-.259-.452.342-.707-.016-.931-.4.54-.153,1.035-.286,1.8m7.387,11.4c-.21-.341-.178-.725-.324-.893-.136.238,0,.889.324.893m-9.173,19.759c-.174.053-.547-.222-.612.079.246.094.487.238.612-.079"/><path class="cls-26" d="M1606.5,227.1c.064.145.126-.057.307-.04-.122.793.132,1.075.046,1.967-.194-.25-.27-.651-.488-.562-.21.059.185.255-.049.424-.165-.017.066-.193-.128-.193-.247.147.143.785-.085.946.336.047.3-.2.367-.359.307.484.447,2.258-.18,2.618a1.028,1.028,0,0,1,.019-1.457c-.871-1.319-.616-3.416-1.019-5.47a15.016,15.016,0,0,1-.142,2.092,3,3,0,0,1-.42-2.436c-.309.158,0-.564-.413-.775.36-2.051-.817-4.465.116-6.347,1.651-.282,2.079-1.478,4.255-1.588.164.261.429.2.285.586,1.441.143,2.822.835,3.1,2.3a19.113,19.113,0,0,0,.127,2.577,2.665,2.665,0,0,0-.478,1.931,8.924,8.924,0,0,0-1.375,3.807c-.353.061-.231-.494-.578-.442-.081.072-.166.144-.2.025-.325.129.024.584-.187.959-.435.049-.3-.647-.615-.752-.406.349-.6,1.186-1.44.912.05.371.567.138.767.318a4.515,4.515,0,0,1-.081,1.773c-1.142-.845-.625-2.709-1.51-3.644-.247.167-.171.524.256.383-.082.149-.046.393-.252.447"/><path class="cls-26" d="M1595.476,234.129c.3.06.391,0,.154.4.11.192.4-.238.585-.284-.141-.171-.55,0-.472-.459.32.406.187-.08.5-.167a1.73,1.73,0,0,0,.654,1.058c.106.466-.561.339-.559.486-.158-.123-.285-.474-.184-.6-.286-.04-.175.23-.38.255.032.118.2.063.32.063-.15.219-.165.548-.316.769-.4-.091-.442.162-.892.322a3.743,3.743,0,0,0-.443-1.812.283.283,0,0,0-.162.334c-1.237-1.536-2.621-2.88-3.975-4.26-.523-1.127-1.8-3.022-.862-4.246.036-.324-.305-.161-.268-.484.263-.546.775-.8.759-1.345a1.171,1.171,0,0,0,1.259-.683c.315-.128.338.123.538.141a.922.922,0,0,0,.355-.462c1.512-.278,1.938.292,2.928.969,1.2.826,2.179,1.406,2.161,3.874a8.652,8.652,0,0,0-.5,2.555c-.488.45-.535,1.24-1.027,1.688.143.385.33-.386.408-.053-.292.676,0,.832.069,1.342-.111-.055-.135-.222-.331-.168-.446.129,0,.743-.317.769"/><path class="cls-26" d="M1650.244,241.994c0-.119.1-.07.1-.013.11-.329.207-1.216-.083-1.443.278-2.475,2.857-2.842,4.425-4.307,1.169-1.091,2.258-2.35,4.01-2.7,1.988-.391,4.53.834,4.988,2.468,1.035,3.717-1.653,6.284-2.8,8.872a18.291,18.291,0,0,1-4.814,8.51c-.172.02-.343.042-.512.065-.334,2.244-3.666,2.341-5.427,2.154-.109.225-.285.673-.676.4.176-.672-.651-1.438.248-2.108.363.241-.284.372.076.613.193-.067-.049-.468.37-.36-.258-.43-.011-.736.146-1.264.007-.327-.291-.254-.46-.355.179-.171.121-.519.215-.754a6.562,6.562,0,0,1-.77-4.362c.163.066.188.31.269.485.437-.169.065-.478.215-.757-.112-.308-.292-.1-.524-.036-.033-.238-.062-.475-.094-.713.17-.217.255-.044.51-.065a.448.448,0,0,0-.435-.153c-.074-.24.16-.245.037-.524.413-.084.082.206.156.4.1-.014.2-.026.307-.039a1.276,1.276,0,0,0,.085-.947.466.466,0,0,0,.317.064c0-.176-.206-.241-.038-.305-.314.338-.61-.916-.2-.7-.117-.2-.349-.263-.383-.573.451.011.168-.545.661-.5-.5-.447.616-.87.072-1.047"/><path class="cls-26" d="M1610.352,201.492c1.848,1.174.993,4.5.727,6.444a.572.572,0,0,1-.392.153c.078.1.247.077.242.28a1.929,1.929,0,0,0-.809,1.765c-.278.186-.623.316-.638.7-.266.108.011-.491-.254-.38a3.592,3.592,0,0,1-.175,1.059c-1.842.35-2.693-.7-4.192-1.119.127.5.865.741.682,1.263-.247.315-.116-.14-.333-.166-.274.634.335,1.383-.3,1.7a8.73,8.73,0,0,1-.408-3.165c.194-.013.115.33.344.269a12.162,12.162,0,0,1-.65-3.445c-.108-.136-.133-.383-.448-.252a30.293,30.293,0,0,1-.188-4.645,4.29,4.29,0,0,0-.105-.817c-.478-2.722-1.563-5.578-1.516-8.522.054-3.317.691-7.524,4.105-7.585a6.141,6.141,0,0,1,5.8,3.92,17.557,17.557,0,0,1-.372,11.566,5.7,5.7,0,0,0-1.119.975"/></g><g class="cls-31"><path class="cls-27" d="M1628.015,261.044l.739,5.216a2.8,2.8,0,0,1-2.137,3.273l-11.644,1.651,1.643,11.584a2.763,2.763,0,0,1-2.55,2.96l-5.214.739a2.766,2.766,0,0,1-3.275-2.134l-1.643-11.583-11.643,1.651a2.805,2.805,0,0,1-2.961-2.55l-.739-5.217a2.822,2.822,0,0,1,2.126-3.332l11.644-1.652-1.642-11.583a2.764,2.764,0,0,1,2.551-2.961l5.215-.74a2.763,2.763,0,0,1,3.272,2.135l1.642,11.584,11.646-1.651a2.824,2.824,0,0,1,2.97,2.61"/></g></g></svg>