<svg xmlns="http://www.w3.org/2000/svg" xmlns:xlink="http://www.w3.org/1999/xlink" viewBox="0 0 500 300"><defs><style>.cls-1,.cls-14{fill:none;}.cls-2{fill:#ebebeb;}.cls-3,.cls-4{fill:#fff;}.cls-4{fill-rule:evenodd;}.cls-5{fill:#263238;}.cls-6{fill:#ffc727;}.cls-7{fill:#dbdbdb;}.cls-8{fill:#c7c7c7;}.cls-9{fill:#455a64;}.cls-10{clip-path:url(#clip-path);}.cls-11{fill:#ad6359;}.cls-12{opacity:0.1;}.cls-13{opacity:0.2;}.cls-14{stroke:#f4a69d;stroke-linecap:round;stroke-linejoin:round;stroke-width:0;}.cls-15{fill:#f392b9;}</style><clipPath id="clip-path"><path class="cls-1" d="M327.431,202.938c.04,4.191-1.11,11.634-3.445,13.138a6.807,6.807,0,0,1-4.617.851s-2.248,3.6-4.709,3.492a7.687,7.687,0,0,1-4.191-1.676s-.12.266-.339.652v35.867a11.045,11.045,0,0,1-6.439,10.251,9.463,9.463,0,0,1-3.752.772h-100.6c-5.641,0-10.2-4.929-10.2-11.023V94.192L157,99.973l-.372.066a3.081,3.081,0,0,1-.925-.02c-2.86-.505-4.67-5.109-5.175-11.88-1.324.266-2.648.505-3.978.738-1.63.279-3.26.552-4.9.778l-2.461.333c-.818.086-1.643.193-2.468.259.8-.212,1.61-.385,2.415-.585l2.428-.512c1.616-.346,3.246-.632,4.876-.925,1.35-.226,2.694-.459,4.051-.652a61.713,61.713,0,0,1-.007-6.851l-2.8.139c-2.428.114-4.856.173-7.284.24-2.435.04-4.863.086-7.3.08s-4.863-.007-7.3-.093c2.428-.187,4.856-.306,7.291-.413s4.856-.179,7.284-.239,4.862-.093,7.3-.087l2.827.007a81.947,81.947,0,0,1,1.151-9.825l.02-.1c-1.39-.219-2.781-.452-4.171-.685-2.807-.472-5.607-1-8.408-1.49-2.794-.552-5.594-1.071-8.381-1.65l-4.184-.871c-1.384-.319-2.781-.612-4.165-.951,1.411.193,2.821.419,4.224.625l4.218.7c2.807.466,5.607,1,8.408,1.49,2.794.553,5.594,1.071,8.381,1.65,1.377.286,2.754.572,4.131.872a81.364,81.364,0,0,1,2.767-11l-2.155-1.483c-2.035-1.4-4.038-2.834-6.04-4.271s-3.984-2.907-5.947-4.4-3.924-2.986-5.84-4.543c2.075,1.33,4.111,2.727,6.14,4.131s4.037,2.834,6.04,4.271,3.984,2.9,5.946,4.4l1.983,1.51a54.219,54.219,0,0,1,2.368-5.92c-.938-.831-1.856-1.7-2.767-2.561-1.058-1.018-2.109-2.035-3.127-3.093s-2.042-2.109-3.006-3.22c1.15.912,2.261,1.883,3.359,2.854s2.168,1.976,3.233,2.98c.858.825,1.716,1.657,2.561,2.508,2.64-5.388,5.654-8.541,8.3-8.075a2.982,2.982,0,0,1,.878.3V44.5l.04.027,22.677,13.2V39.7c0-12.412,4.563-13.018,10.2-13.018H219.49c1.171,0,2.129,1.331,2.129,2.98v.712c0,3.865,2.115,3.878,4.709,3.878h46.6c2.621,0,4.723-.013,4.723-3.878v-.712c0-1.649.945-2.98,2.135-2.98h20.149c5.628,0,10.191,1.65,10.191,13.018v95.509a40.545,40.545,0,0,1,3.991,6.931c3.525,8.588,10.024,40.364,10.024,40.364l-1.43.113c.147,1.038.26,1.989.34,2.847v.007C324.079,189.075,327.4,199.14,327.431,202.938Z"/></clipPath></defs><g id="Background_Complete" data-name="Background Complete"><path class="cls-2" d="M123.508,129.817a19.284,19.284,0,1,1,24.8,11.357A19.284,19.284,0,0,1,123.508,129.817Z"/><path class="cls-3" d="M151.639,124.348c-2.212,6.174-8.691,10.442-8.691,10.442s-7.289-2.658-10.86-8.157c-2.979-4.586-2.067-10.026,1.6-11.62,5.261-2.286,7.77,7.046,7.77,7.046s.289-9.659,5.94-8.648C151.338,114.115,153.48,119.2,151.639,124.348Z"/><path class="cls-2" d="M361.63,183.1a19.281,19.281,0,0,1-20.206-1.745A19.283,19.283,0,1,1,361.63,183.1Z"/><path class="cls-3" d="M358.966,164.2a5.868,5.868,0,1,1-5.344-6.349A5.867,5.867,0,0,1,358.966,164.2Z"/><path class="cls-3" d="M361.837,180.69l-.207,2.412a19.281,19.281,0,0,1-20.206-1.745l.207-2.4a10.14,10.14,0,1,1,20.206,1.736Z"/><circle class="cls-2" cx="343.999" cy="30.307" r="21.184" transform="translate(15.641 137.24) rotate(-23.073)"/><g id="xsrjP0"><path class="cls-4" d="M341.111,38.735c-.56-.352-1.047-.863-1.8-.792-.288.028-.225-.21-.226-.366q-.006-4.236-.006-8.465c0-.2.012-.374.236-.487,2.155-1.087,3.09-3.225,4.41-5.052a8.435,8.435,0,0,0,1.563-6.4c-.09-.635.206-.92.779-1.05a1.415,1.415,0,0,1,1.61.507,11.392,11.392,0,0,1,1.231,3.7,13.306,13.306,0,0,1-.393,3.17c-.1.775-.279,1.541-.426,2.326.189.137.409.066.612.069q3.575,0,7.151,0c1,0,1.5.289,1.636.955a1.913,1.913,0,0,1-1.038,2.067c-.179.09-.5.009-.523.288s.311.255.475.37c.863.592.7,1.812-.3,2.518-.241.169-.706.091-.718.443,0,.281.43.278.628.476a1.613,1.613,0,0,1-.691,2.492,3.207,3.207,0,0,0-.418.162c-.119.08-.235.169-.005.331a1.4,1.4,0,0,1-.03,2.513l-.31.223a2.013,2.013,0,0,1-1.256.275q-5.607.01-11.214,0A1.328,1.328,0,0,1,341.111,38.735Z"/><path class="cls-4" d="M330.482,33.758c0-1.792.009-3.586-.006-5.378,0-.365.035-.544.482-.539q3.28.04,6.559,0c.429,0,.5.144.493.524q-.018,5.412,0,10.824c0,.459-.122.589-.583.581-2.121-.024-4.242-.029-6.362,0-.528.009-.6-.176-.6-.638C330.5,37.345,330.482,35.552,330.482,33.758Z"/></g><path class="cls-2" d="M158.725,229.319c1.095,7.1-2.914,14.6-2.914,14.6s-8.407,1.248-14.718-2.182c-5.264-2.86-7.228-8.574-4.527-12.025,3.871-4.95,11.162,2.726,11.162,2.726s-4.768-9.452,1.2-11.431C153.09,219.623,157.808,223.4,158.725,229.319Z"/><path class="cls-2" d="M173.4,211.844c-3.178,4.226-9.186,5.964-9.186,5.964s-4.977-3.788-6.414-8.875c-1.2-4.242.8-8.213,4.01-8.564,4.6-.5,4.3,7.281,4.3,7.281s2.53-7.369,6.64-5.24C175.612,203.893,176.047,208.318,173.4,211.844Z"/></g><g id="Shadow"><ellipse class="cls-2" cx="249.637" cy="278.423" rx="105.383" ry="14.111"/></g><g id="Device"><path class="cls-5" d="M305.856,19.338H193.405A11.48,11.48,0,0,0,182.03,30.925v231.5a11.489,11.489,0,0,0,11.375,11.588H305.856a11.5,11.5,0,0,0,11.388-11.588V30.925A11.487,11.487,0,0,0,305.856,19.338Zm4.277,235.924c0,6.094-4.563,11.023-10.191,11.023h-100.6c-5.641,0-10.2-4.929-10.2-11.023V39.7c0-12.412,4.563-13.018,10.2-13.018h20.149c1.171,0,2.129,1.331,2.129,2.98v.712c0,3.865,2.115,3.878,4.716,3.878h46.6c2.621,0,4.717-.013,4.717-3.878v-.712c0-1.649.944-2.98,2.135-2.98h20.155c5.628,0,10.191,1.65,10.191,13.018Z"/><path class="cls-3" d="M255.99,29.424H243.278a.785.785,0,0,1-.785-.785h0a.784.784,0,0,1,.785-.785H255.99a.784.784,0,0,1,.785.785h0A.785.785,0,0,1,255.99,29.424Z"/><path class="cls-3" d="M310.133,39.7V255.262c0,6.094-4.563,11.023-10.191,11.023h-100.6c-5.641,0-10.2-4.929-10.2-11.023V39.7c0-12.412,4.563-13.018,10.2-13.018h20.149c1.171,0,2.129,1.331,2.129,2.98v.712c0,3.865,2.115,3.878,4.716,3.878h46.6c2.621,0,4.717-.013,4.717-3.878v-.712c0-1.649.944-2.98,2.135-2.98h20.155C305.57,26.681,310.133,28.331,310.133,39.7Z"/><path class="cls-6" d="M310.13,39.7V55.784h-121V39.7c0-12.412,4.563-13.018,10.2-13.018H219.49c1.171,0,2.129,1.331,2.129,2.98v.712c0,3.865,2.115,3.878,4.709,3.878h46.6c2.621,0,4.723-.013,4.723-3.878v-.712c0-1.649.945-2.98,2.135-2.98h20.149C305.567,26.681,310.13,28.331,310.13,39.7Z"/><polygon class="cls-3" points="200.598 47.931 197.023 44.581 200.598 41.232 201.153 41.823 198.209 44.581 201.153 47.34 200.598 47.931"/><path class="cls-3" d="M299.152,48.164h-2.393v-.828a.2.2,0,0,0-.112-.178A2.945,2.945,0,0,1,296.38,47a.2.2,0,0,0-.211-.009l-.719.415-1.2-2.072.72-.414a.2.2,0,0,0,.1-.189c0-.049,0-.1,0-.152s0-.1,0-.154a.2.2,0,0,0-.1-.187l-.719-.415,1.2-2.071.718.414a.2.2,0,0,0,.211-.009,2.962,2.962,0,0,1,.268-.155.2.2,0,0,0,.112-.177V41h2.393v.829a.2.2,0,0,0,.112.177,2.962,2.962,0,0,1,.268.155.2.2,0,0,0,.211.009l.718-.414,1.2,2.071-.721.415a.2.2,0,0,0-.1.188c0,.052,0,.1,0,.153s0,.1,0,.149a.2.2,0,0,0,.094.19l.721.416-1.195,2.072-.719-.415a.2.2,0,0,0-.211.009,2.945,2.945,0,0,1-.267.155.2.2,0,0,0-.112.178Zm-1.894-.5h1.4v-.33a.7.7,0,0,1,.384-.623,2.114,2.114,0,0,0,.221-.128.7.7,0,0,1,.733-.023l.287.165.7-1.207-.29-.167a.7.7,0,0,1-.343-.645l0-.126,0-.129a.7.7,0,0,1,.345-.645l.288-.165-.7-1.207-.286.165a.7.7,0,0,1-.732-.023,2.417,2.417,0,0,0-.222-.128.7.7,0,0,1-.385-.622V41.5h-1.4v.33a.7.7,0,0,1-.385.622,2.417,2.417,0,0,0-.222.128.7.7,0,0,1-.732.023l-.286-.165-.7,1.207.287.166a.7.7,0,0,1,.345.646c0,.043,0,.085,0,.127s0,.084,0,.126a.7.7,0,0,1-.343.646l-.288.166.7,1.207.287-.165a.7.7,0,0,1,.733.024,2.079,2.079,0,0,0,.221.127.7.7,0,0,1,.384.623Zm.7-1.285a1.8,1.8,0,1,1,1.8-1.8A1.8,1.8,0,0,1,297.954,46.381Zm0-3.1a1.3,1.3,0,1,0,1.3,1.3A1.3,1.3,0,0,0,297.954,43.28Z"/><g id="u5Zjqx"><path class="cls-3" d="M216.01,31.523l-.195.193-.11.111a2.651,2.651,0,0,0-3.754,0l-.1-.11-.192-.193-.006,0v0l.014-.012c.082-.072.162-.148.246-.217a2.837,2.837,0,0,1,.57-.363,2.872,2.872,0,0,1,.755-.254c.124-.023.251-.035.377-.05.042,0,.321-.006.33-.006.085.007.171.01.257.02a2.9,2.9,0,0,1,.692.165,3.018,3.018,0,0,1,.468.219,2.961,2.961,0,0,1,.447.313c.071.06.138.123.206.185Z"/><path class="cls-3" d="M212.569,32.439l-.308-.3a2.173,2.173,0,0,1,1.252-.629,2.2,2.2,0,0,1,1.883.624l-.309.308a1.782,1.782,0,0,0-2.518,0Z"/><path class="cls-3" d="M214.78,32.746l-.307.306a.91.91,0,0,0-1.29,0l-.305-.306A1.337,1.337,0,0,1,214.78,32.746Z"/><path class="cls-3" d="M214.105,33.33a.277.277,0,1,1-.277-.276A.277.277,0,0,1,214.105,33.33Z"/></g><path class="cls-3" d="M197.023,32.111a.8.8,0,1,1,.8.8A.8.8,0,0,1,197.023,32.111Z"/><path class="cls-3" d="M199.549,32.111a.8.8,0,1,1,.8.8A.8.8,0,0,1,199.549,32.111Z"/><path class="cls-3" d="M202.075,32.111a.8.8,0,1,1,.8.8A.8.8,0,0,1,202.075,32.111Z"/><path class="cls-3" d="M204.6,32.111a.8.8,0,1,1,.8.8A.8.8,0,0,1,204.6,32.111Z"/><path class="cls-3" d="M207.126,32.111a.8.8,0,1,1,.8.8A.8.8,0,0,1,207.126,32.111Z"/><path class="cls-3" d="M301.055,33.862h-6.528V30.838h6.528Zm-6.195-.333h5.862V31.17H294.86Z"/><rect class="cls-3" x="295.069" y="31.351" width="4.208" height="1.997"/><rect class="cls-3" x="301.059" y="31.541" width="0.581" height="1.618"/><polygon class="cls-2" points="207.519 253.107 206.599 253.107 206.599 257.332 204.88 257.332 204.88 255.179 201.836 255.179 201.836 257.332 200.117 257.332 200.117 253.107 199.197 253.107 203.358 248.807 207.519 253.107"/><rect class="cls-2" x="290.048" y="248.807" width="10.029" height="1.433"/><rect class="cls-2" x="290.048" y="252.353" width="10.029" height="1.433"/><rect class="cls-2" x="290.048" y="255.898" width="10.029" height="1.433"/><path class="cls-7" d="M207.324,76.946a6.646,6.646,0,0,1-1.947.814,6.747,6.747,0,1,1,1.947-.814Z"/><path class="cls-3" d="M205.828,70.432a2.054,2.054,0,1,1-2.054-2.054A2.055,2.055,0,0,1,205.828,70.432Z"/><path class="cls-3" d="M207.324,76.1v.848a6.646,6.646,0,0,1-1.947.814,6.714,6.714,0,0,1-5.153-.817V76.1a3.55,3.55,0,0,1,7.1,0Z"/><rect class="cls-2" x="218.99" y="64.839" width="42.914" height="3.539"/><rect class="cls-2" x="218.99" y="70.739" width="37.457" height="2.344"/><rect class="cls-2" x="218.99" y="75.252" width="61.937" height="2.344"/><rect class="cls-2" x="189.134" y="83.546" width="120.979" height="84.72" transform="translate(499.247 251.813) rotate(180)"/><path class="cls-7" d="M203.272,107.629a10.023,10.023,0,1,0,10.022-10.022A10.022,10.022,0,0,0,203.272,107.629Z"/><polygon class="cls-8" points="242.853 149.836 310.13 149.836 276.491 104.24 242.853 149.836"/><polygon class="cls-7" points="216.481 150.054 272.025 150.054 244.253 120.363 216.481 150.054"/><rect class="cls-7" x="189.134" y="150.013" width="120.979" height="18.253"/><path class="cls-7" d="M207.324,212.939a6.749,6.749,0,0,1-7.1,0,6.75,6.75,0,1,1,7.1,0Z"/><path class="cls-3" d="M205.828,206.426a2.054,2.054,0,1,1-2.054-2.055A2.055,2.055,0,0,1,205.828,206.426Z"/><path class="cls-3" d="M207.324,212.092v.847a6.749,6.749,0,0,1-7.1,0v-.844a3.55,3.55,0,1,1,7.1,0Z"/><rect class="cls-2" x="218.99" y="200.833" width="55.191" height="3.539"/><rect class="cls-2" x="218.99" y="206.733" width="70.454" height="2.344"/><rect class="cls-2" x="218.99" y="211.246" width="24.001" height="2.344"/><rect class="cls-2" x="189.134" y="219.541" width="120.979" height="20.694"/><path class="cls-7" d="M222.726,240.236H203.861a10.024,10.024,0,0,1,18.865,0Z"/><circle class="cls-2" cx="201.153" cy="177.245" r="4.005"/><g id="xsrjP0-2" data-name="xsrjP0"><path class="cls-4" d="M200.607,178.838c-.106-.067-.2-.163-.34-.15-.055.006-.043-.039-.043-.069q0-.8,0-1.6c0-.039,0-.071.044-.092.408-.206.585-.61.834-.955a1.6,1.6,0,0,0,.3-1.211c-.017-.12.039-.173.147-.2a.265.265,0,0,1,.3.1,2.151,2.151,0,0,1,.233.7,2.545,2.545,0,0,1-.074.6c-.019.147-.053.291-.081.44.036.026.077.012.116.013.45,0,.9,0,1.352,0,.189,0,.282.055.309.181a.363.363,0,0,1-.2.391c-.034.017-.095,0-.1.054s.059.048.09.07c.163.112.133.343-.056.476-.046.032-.134.017-.136.084s.082.052.119.09a.305.305,0,0,1-.131.471.678.678,0,0,0-.079.03c-.022.015-.044.032,0,.063a.266.266,0,0,1,0,.475l-.059.042a.376.376,0,0,1-.237.052c-.707,0-1.414,0-2.12,0A.248.248,0,0,1,200.607,178.838Z"/><path class="cls-4" d="M198.6,177.9c0-.339,0-.678,0-1.017,0-.069.007-.1.091-.1q.621.007,1.24,0c.081,0,.094.027.093.1,0,.682,0,1.364,0,2.046,0,.087-.023.111-.11.11-.4,0-.8-.006-1.2,0-.1,0-.114-.034-.113-.121C198.6,178.575,198.6,178.236,198.6,177.9Z"/></g><path class="cls-6" d="M205.673,178.2a4,4,0,1,1,4.841,2.94A4.006,4.006,0,0,1,205.673,178.2Z"/><path class="cls-3" d="M211.608,177.745a5.138,5.138,0,0,1-2.045,1.944,5.126,5.126,0,0,1-2.043-1.944,1.618,1.618,0,0,1,.61-2.358c1.141-.345,1.433,1.64,1.433,1.64s.293-1.985,1.434-1.64A1.619,1.619,0,0,1,211.608,177.745Z"/><rect class="cls-2" x="219.653" y="176.721" width="56.838" height="2.313"/><polygon class="cls-2" points="189.134 190.527 204.256 190.405 219.379 190.362 249.624 190.278 279.868 190.361 294.991 190.405 310.113 190.527 294.991 190.649 279.868 190.693 249.624 190.776 219.379 190.692 204.256 190.648 189.134 190.527"/></g><g id="Icons"><rect class="cls-6" x="322.822" y="194.811" width="42.354" height="42.354" transform="translate(22.965 -32.856) rotate(5.657)"/><path class="cls-3" d="M360.35,208.959c.4-4.221-1.964-7.211-6.143-7.665q-8.672-.946-17.363-1.72c-4.1-.362-7.018,2.086-7.484,6.165-.326,2.884-.58,5.779-.866,8.666-.28,2.827-.578,5.654-.836,8.483-.391,4.317,1.966,7.335,6.232,7.8q8.578.944,17.178,1.7c4.191.368,7.145-2.121,7.58-6.287Q359.547,217.538,360.35,208.959Zm-4.472,16.921c-.293,2.665-1.876,4-4.548,3.752q-8.592-.8-17.174-1.7c-2.68-.28-3.985-1.9-3.737-4.554q.821-8.667,1.716-17.326c.273-2.644,1.9-4.018,4.547-3.774q8.593.791,17.175,1.7c2.647.281,3.97,1.939,3.737,4.58-.253,2.891-.565,5.776-.851,8.664S356.2,223,355.878,225.88Z"/><path class="cls-3" d="M344.823,207.852a8.143,8.143,0,1,0,7.238,9.019A8.131,8.131,0,0,0,344.823,207.852Zm-1.438,13.488a5.5,5.5,0,0,1-4.784-5.86,5.427,5.427,0,0,1,10.8,1.066A5.5,5.5,0,0,1,343.385,221.34Z"/><path class="cls-3" d="M355.355,208.7a1.865,1.865,0,0,1-3.661-.709,1.8,1.8,0,0,1,2.125-1.529A1.824,1.824,0,0,1,355.355,208.7Z"/><rect class="cls-9" x="325.675" y="98.747" width="31.498" height="31.498" transform="translate(58.142 -107.834) rotate(19.587)"/><path class="cls-3" d="M327.508,117.819a10.85,10.85,0,0,0,7.318.314c-2.434-1.8-3.224-3.019-3.069-4.711l1.862.561a5.336,5.336,0,0,1-1.934-5.911l1.706,1.169c-1.092-3.188-.805-5.257,1.014-6.637a14.442,14.442,0,0,0,7.952,8.28c.092-.314.157-.552.231-.787a4.721,4.721,0,0,1,4.183-3.552,4.779,4.779,0,0,1,4.919,2.449,1,1,0,0,0,.962.582c.833-.015,1.666-.018,2.581-.026a4.969,4.969,0,0,1-2.615,1.663c0,.051,0,.1,0,.152l2.468.224c.019.041.039.081.058.122-.794.38-1.573.8-2.386,1.127a1.28,1.28,0,0,0-.851.833,14.046,14.046,0,0,1-16.765,8.979,14.249,14.249,0,0,1-7.284-4.4C327.739,118.113,327.626,117.963,327.508,117.819Z"/></g><g id="Character"><g class="cls-10"><path class="cls-9" d="M213.114,398.307h47.6s-9.586-111.185-9.212-113.126c.476-2.488,3.287-13.741,7.028-28.443,1.173-4.6,2.437-9.535,3.751-14.652,3.549-13.832,7.462-28.948,10.87-42.1,5.116-19.707,9.11-35.016,9.11-35.016H241.921s-4.7,14.9-10.627,34.3c-9.657,31.517-22.559,74.9-23.833,85.441C205.4,301.733,213.114,398.307,213.114,398.307Z"/><path class="cls-5" d="M242.549,278.386c1.562-6.882,3.893-13.626,5.924-20.38q6.189-20.587,12.452-41.152,3.126-10.284,6.28-20.559,1.6-5.188,3.21-10.37c1.06-3.378,2.265-6.728,3.221-10.137.389-1.387.6-.625.1,1.136-1,3.55-1.995,7.1-3.03,10.646q-3.075,10.523-6.19,21.032-6.191,20.919-12.489,41.808-3.143,10.476-6.3,20.949a85.723,85.723,0,0,0-2.573,10.133,46.719,46.719,0,0,0-.421,10.842c.457,7.283,1.3,14.556,1.973,21.822L246.73,336q2.012,21.736,3.988,43.476c.165,1.838.326,3.674.467,5.514.048.615-.883.568-.947-.024-1.568-14.329-2.77-28.7-4.116-43.056q-2.009-21.42-4.012-42.842c-.335-3.585-.717-7.177-.72-10.781A44.544,44.544,0,0,1,242.549,278.386Z"/><path class="cls-5" d="M246.5,164.967c2.8,21.669,8.14,62.3,12.033,91.771,9.1-35.714,23.731-91.771,23.731-91.771Z"/><path class="cls-9" d="M243.225,164.967s.931,19.3,5.349,34.591c.354,1.264.738,2.508,1.153,3.7a71.7,71.7,0,0,1,11.628,5.976s.465,15.531.93,32.851c.516,19.364,1.052,40.961.941,45.542-.4,17.139,2.143,111.376,2.143,111.376l47.594.192s-8.605-105.238-8.544-111.518c.091-10.091-2.305-54.692-4.156-87.22-1.132-20.041-2.062-35.491-2.062-35.491Z"/><path class="cls-5" d="M294.2,171.864c.876,26.553,1.8,53.109,2.992,79.651,1.192,26.633,2.8,53.256,5.026,79.823,1.245,14.843,2.419,35.722,4.02,50.531.011.1-.141.135-.154.033-3.466-26.34-5.4-58.909-7.1-85.416s-2.858-53.051-3.762-79.592c-.511-15.014-.9-30.032-1.351-45.048C293.864,171.633,294.194,171.652,294.2,171.864Z"/><path class="cls-5" d="M247.748,202.109a88.4,88.4,0,0,1,13.607,7.126.158.158,0,0,1-.143.281c-4.592-2.231-9.279-4.379-13.742-6.86A.307.307,0,0,1,247.748,202.109Z"/><path class="cls-5" d="M244.9,180.756c.38,2.041.875,4.06,1.315,6.089.414,1.9.718,3.844,1.221,5.725a9.74,9.74,0,0,0,2.667,4.8c.746.694,1.569,1.308,2.365,1.944.429.342.892.671,1.338,1.018-.058-.269-.1-.543-.153-.821q-.2-1.159-.4-2.322-.432-2.577-.827-5.163c-.517-3.385-.994-6.807-1.7-10.159a.109.109,0,0,1,.211-.053c.843,3.322,1.775,6.608,2.509,9.958.36,1.643,1.646,9.754,1.7,10.328.059.593.108,1.188.129,1.783a7.07,7.07,0,0,1,0,1.821c-.035.148-.213.124-.276.024l-.008.006a7.116,7.116,0,0,1-.516-1.763c-.149-.578-.28-1.166-.384-1.754-.038-.213-.067-.43-.1-.647-.8-.486-1.543-1.128-2.29-1.669-.8-.582-1.625-1.15-2.386-1.791a9.146,9.146,0,0,1-2.913-4.552,33.167,33.167,0,0,1-.956-5.83c-.257-2.3-.446-4.622-.768-6.918C244.67,180.673,244.874,180.617,244.9,180.756Z"/><path class="cls-11" d="M252.181,111.347c-2.728,21.738-7.493,58.2-15.2,61.146-1.335.511-7.011,1.637-10.892-2.731C219.547,162.4,208.24,137.58,205.08,129.6c-1.4-3.54,21.678-15.091,23.655-11.533,2.767,4.984,5.673,12.486,6.224,12.236.919-.417,2.489-9.673,8.655-22.67C251.275,91.481,253.2,103.266,252.181,111.347Z"/><path class="cls-11" d="M198.38,121.014c2.273,4.881,10.824,13.045,13.645,14.221s17.183-12.9,16.818-16.015-9.29-18.955-14.213-21.393S196.026,115.957,198.38,121.014Z"/><path class="cls-11" d="M227.8,116.254a44.613,44.613,0,0,1,1.188-12.929c1.4-5,4.036-12.257,1.377-13.108-5.457-1.749-12.032,16.36-12.032,16.36s-1.618,8.456,3.636,10.667A5.659,5.659,0,0,0,227.8,116.254Z"/><polygon class="cls-6" points="213.177 122.031 205.08 120.604 209.213 97.156 219.46 98.962 213.177 122.031"/><polygon class="cls-6" points="219.458 98.962 217.064 107.762 213.174 122.034 205.077 120.607 209.21 97.155 219.458 98.962"/><polygon class="cls-12" points="219.458 98.962 217.064 107.762 207.634 106.1 209.21 97.155 219.458 98.962"/><rect class="cls-6" x="207.809" y="91.709" width="12.945" height="9.834" transform="translate(20.025 -35.728) rotate(9.996)"/><polygon class="cls-6" points="230.669 90.873 220.592 90.117 223.354 74.446 233.083 77.181 230.669 90.873"/><polygon class="cls-6" points="218.807 70.445 214.731 93.572 197.763 92.634 156.622 100.037 166.411 44.497 202.541 65.526 218.807 70.445"/><ellipse class="cls-6" cx="160.617" cy="72.11" rx="28.339" ry="9.109" transform="translate(61.722 217.772) rotate(-80.004)"/><ellipse class="cls-13" cx="160.237" cy="71.548" rx="25.157" ry="7.458" transform="translate(61.961 216.933) rotate(-80.004)"/><path class="cls-6" d="M166.385,72.634c-.322,1.822-.694,3.586-1.109,5.274a5.626,5.626,0,0,1-8.276-5.9l.462-2.62a5.621,5.621,0,0,1,9.756-2.749C167.026,68.575,166.746,70.584,166.385,72.634Z"/><polygon class="cls-6" points="223.469 96.433 203.98 94.971 209.322 64.665 228.136 69.954 223.469 96.433"/><polygon class="cls-13" points="223.469 96.433 203.98 94.971 209.322 64.665 228.136 69.954 223.469 96.433"/><path class="cls-13" d="M168.341,48.76a17.593,17.593,0,0,1,1.966,6.028,40.141,40.141,0,0,1,.5,6.356c.031,1.064-.037,2.126-.066,3.19-.088,1.059-.145,2.122-.258,3.178-.131,1.054-.224,2.115-.387,3.164s-.309,2.1-.5,3.148a69.784,69.784,0,0,1-3.3,12.3,36.294,36.294,0,0,1-2.767,5.747,15.112,15.112,0,0,1-4.224,4.718,15.6,15.6,0,0,0,3.967-4.87,36.226,36.226,0,0,0,2.585-5.759A73.9,73.9,0,0,0,169,73.716a75.838,75.838,0,0,0,1.34-12.574,40.322,40.322,0,0,0-.327-6.31A18.344,18.344,0,0,0,168.341,48.76Z"/><path class="cls-5" d="M148.079,43.937c1.156.913,2.261,1.879,3.359,2.852s2.169,1.975,3.236,2.981,2.111,2.036,3.13,3.092l1.527,1.585c.493.546,1,1.076,1.479,1.636-.582-.451-1.135-.934-1.7-1.4l-1.655-1.451c-1.1-.969-2.17-1.975-3.236-2.981s-2.11-2.037-3.129-3.093S149.045,45.048,148.079,43.937Z"/><path class="cls-5" d="M156.263,86.856c-1.606.418-3.224.764-4.844,1.1s-3.246.634-4.874.925c-1.631.275-3.262.549-4.9.772l-2.46.333c-.824.087-1.644.2-2.471.263.8-.215,1.61-.388,2.415-.584l2.428-.516c1.619-.342,3.247-.633,4.875-.923,1.631-.275,3.261-.549,4.9-.772S154.611,87,156.263,86.856Z"/><path class="cls-5" d="M125.8,81.09c2.428-.191,4.857-.31,7.286-.417s4.859-.178,7.289-.24,4.861-.092,7.293-.086l3.647.012c1.217.028,2.432.033,3.649.082-1.213.1-2.428.161-3.642.244l-3.643.174c-2.429.114-4.859.177-7.289.239-2.431.045-4.861.091-7.293.084S128.234,81.173,125.8,81.09Z"/><path class="cls-5" d="M134.5,44.421c2.078,1.335,4.113,2.728,6.141,4.13s4.036,2.834,6.038,4.272,3.985,2.9,5.947,4.4l2.941,2.243c.967.767,1.946,1.516,2.9,2.3-1.043-.662-2.061-1.358-3.092-2.036l-3.05-2.092c-2.033-1.4-4.035-2.835-6.037-4.274s-3.985-2.9-5.946-4.4S136.421,45.978,134.5,44.421Z"/><path class="cls-5" d="M155.939,71.066c-2.824-.389-5.634-.849-8.442-1.32s-5.606-1-8.41-1.493c-2.793-.549-5.592-1.07-8.381-1.645l-4.18-.876c-1.39-.316-2.783-.609-4.168-.945,1.413.187,2.818.417,4.227.625l4.215.693c2.808.471,5.606,1,8.409,1.495,2.794.55,5.593,1.069,8.381,1.646S153.165,70.407,155.939,71.066Z"/><path class="cls-11" d="M221.449,103.1c-.308,2.836-3.473.849-3.473.849s3.867,3.957,2.419,6.759c-1.4,2.695-5.142.161-5.413-.017.2.211,3.662,3.94,1.917,6.605-1.816,2.768-5.133-.42-5.346-.627.128.259,1.775,3.718-.011,5.441-3.071,2.96-7.524-5.77-10.85-6.7,0,0-2.214,5.458-2.312,5.6,0,0-4.407-8.219-2.906-12.636a2.978,2.978,0,0,1,3.117-2.05s-1.714-2.493-.406-4.635c.674-1.1,3.029-1,3.029-1a3.731,3.731,0,0,1-.007-3.885c1.019-1.466,3.223-1.135,3.223-1.135s-.323-2.546,1.2-3.7C208.708,89.628,222.1,97.025,221.449,103.1Z"/><path class="cls-5" d="M204.787,95.676a.04.04,0,0,1,.024-.076,26.543,26.543,0,0,1,13.347,8.436c.107.133-.062.366-.208.242A54.364,54.364,0,0,0,204.787,95.676Z"/><path class="cls-5" d="M201.162,100.634c-.054-.024-.014-.115.047-.1A24.853,24.853,0,0,1,215.2,110.645c.111.176.034.444-.109.251C212.689,107.655,205.681,102.647,201.162,100.634Z"/><path class="cls-5" d="M211.654,117.1c-3.278-4.789-7.761-8.045-12.847-10.728-.066-.035-.01-.125.054-.111,2.845.635,5.909,2.682,8.157,4.478a15.3,15.3,0,0,1,4.8,6.246C211.862,117.085,211.724,117.2,211.654,117.1Z"/><path class="cls-5" d="M218.073,103.942c.128.16-.247.172-.123.336.519.689,3.292,5.1,2.08,6.517-.973,1.128-3.165.6-3.928.072l-1.919-1.338,1.338,1.924a9.606,9.606,0,0,1,1.358,2.786,3.42,3.42,0,0,1-.208,2.791,1.955,1.955,0,0,1-2.281.923,5.913,5.913,0,0,1-2.5-1.6l-1.952-1.966,1.2,2.486a9.014,9.014,0,0,1,.727,2.176,3.7,3.7,0,0,1-.127,2.134,1.762,1.762,0,0,1-1.511,1.079,3.892,3.892,0,0,1-2.034-.78,30.657,30.657,0,0,1-3.633-3.143c-.59-.557-1.182-1.117-1.8-1.648a5.81,5.81,0,0,0-2.067-1.281,6.242,6.242,0,0,1,1.915,1.446c.57.571,1.114,1.17,1.66,1.77a26.066,26.066,0,0,0,3.544,3.405,4.554,4.554,0,0,0,2.41,1.013,2.5,2.5,0,0,0,2.29-1.5,4.534,4.534,0,0,0,.229-2.644,9.885,9.885,0,0,0-.773-2.436l-.756.519a6.794,6.794,0,0,0,2.929,1.918,2.831,2.831,0,0,0,1.915-.105,3.207,3.207,0,0,0,1.412-1.264,4.324,4.324,0,0,0,.264-3.534,10.385,10.385,0,0,0-1.542-3.041l-.582.586c.993.643,3.38,1.5,5.11-.064C222.667,109.1,218.831,104.7,218.073,103.942Z"/><path class="cls-5" d="M217.976,103.947a5.737,5.737,0,0,0,1.711.37,1.324,1.324,0,0,0,1.211-.579,2.7,2.7,0,0,0,.251-1.511c-.041-.573-.113-1.173-.213-1.791a4.572,4.572,0,0,1,.829,1.695,2.67,2.67,0,0,1-.192,2.033,1.9,1.9,0,0,1-.884.712,1.972,1.972,0,0,1-1.074.058A3.064,3.064,0,0,1,217.976,103.947Z"/><path class="cls-6" d="M203.272,137.431,228.5,117.14s6.118,12.638,6.476,12.587,4.363-16.821,11-27.268,8.239.889,6.829,9.516-8.051,56.4-14.018,60.776-11.576-1.1-13.989-3.428C221.472,166.115,203.272,137.431,203.272,137.431Z"/><path class="cls-5" d="M208.128,139.709c.791-.811,8.721-6.993,10.473-8.3s3.508-2.61,5.264-3.912c1.815-1.344,3.6-2.8,5.516-4a.079.079,0,0,1,.1.123c-1.659,1.531-3.536,2.864-5.312,4.257q-2.628,2.061-5.262,4.116c-1.758,1.367-9.736,7.308-10.7,7.839C208.124,139.881,208.075,139.764,208.128,139.709Z"/><path class="cls-5" d="M234.978,129.727c.7,1.49,1.306,3.017,1.889,4.552s1.115,3.09,1.615,4.655c.482,1.571.951,3.147,1.327,4.748a42.485,42.485,0,0,1,.914,4.847c-.245-.786-.446-1.579-.7-2.36-.22-.788-.466-1.569-.707-2.351l-1.468-4.684-1.462-4.69-.722-2.35C235.442,131.3,235.194,130.522,234.978,129.727Z"/><path class="cls-3" d="M235.1,181.772c1.092,1.082,68.172-2.467,68.5-2.9.879-1.183-23.111-72.576-38.837-83.872-3.382-2.429-12.465.825-14.8,3.165-1.463,1.468-4.65,10.748-6.734,18.422C239.053,131.948,234.147,180.821,235.1,181.772Z"/><path class="cls-6" d="M251.341,95.149c-2.657,1.972-4.7,12.178,1.382,13.56s11.724-8.225,12.554-11.329S257.092,90.879,251.341,95.149Z"/><path class="cls-11" d="M253.161,107.312c3.772.485,9.5-5.8,11.518-10.624.136-.331-.688-3.575-1.5-7.564-.485-2.423-.969-5.132-1.232-7.636l-15.3,5.463a40.174,40.174,0,0,1,2.526,9.455,5.628,5.628,0,0,1,0,1.039c0,.048-.008.106,0,.172C249.046,99.6,249.515,106.842,253.161,107.312Z"/><path class="cls-5" d="M261.219,81.747c-.161,3.178-1.366,14.63-10.439,15.789a11.027,11.027,0,0,1-1.619.085.655.655,0,0,1,.007-.177,5.779,5.779,0,0,0,0-1.036,40.323,40.323,0,0,0-2.533-9.457Z"/><path class="cls-11" d="M262.2,62.722c2.232,5.412.822,21.794-2.8,25.762-5.252,5.752-14.614,7.146-19.694.659-4.924-6.289-2.709-27.606,1.408-31.29C247.179,52.426,258.9,54.728,262.2,62.722Z"/><path class="cls-14" d="M259.784,88.289a0,0,0,1,0,0-.006"/><path class="cls-5" d="M247.737,74.038c.012-.041.083.06.077.105-.124,1.1-.081,2.383.888,2.83.03.014.022.069-.015.061C247.482,76.764,247.443,75.062,247.737,74.038Z"/><path class="cls-5" d="M248.817,72.966c1.786.009,1.636,3.581-.019,3.573C247.169,76.53,247.319,72.958,248.817,72.966Z"/><path class="cls-5" d="M241.542,73.812c-.006-.043-.089.048-.089.094-.011,1.108-.211,2.375-1.227,2.7-.032.01-.031.066.006.062C241.461,76.548,241.709,74.863,241.542,73.812Z"/><path class="cls-5" d="M240.6,72.615c-1.774-.21-2.063,3.353-.42,3.548C241.8,76.354,242.09,72.79,240.6,72.615Z"/><path class="cls-5" d="M250.3,71.392a13.733,13.733,0,0,1-1.363-.546,2.368,2.368,0,0,1-1.284-.821.756.756,0,0,1,.16-.909A1.875,1.875,0,0,1,249.7,69a2.752,2.752,0,0,1,1.535,1.257A.806.806,0,0,1,250.3,71.392Z"/><path class="cls-5" d="M239.3,70.758a13.776,13.776,0,0,0,1.435-.309,2.366,2.366,0,0,0,1.4-.594.755.755,0,0,0,0-.923,1.874,1.874,0,0,0-1.849-.431,2.754,2.754,0,0,0-1.725.982A.806.806,0,0,0,239.3,70.758Z"/><path class="cls-5" d="M249.154,84.4c-.276.248-.556.593-.959.61a2.9,2.9,0,0,1-1.177-.328.039.039,0,0,0-.051.055,1.493,1.493,0,0,0,1.38.66,1.182,1.182,0,0,0,.911-.943C249.278,84.389,249.194,84.362,249.154,84.4Z"/><path class="cls-5" d="M248.129,81.036a3.768,3.768,0,0,1-2.585,1.571,4.716,4.716,0,0,1-1.358,0,1.314,1.314,0,0,1-.257-.04c-.081-.014-.153-.026-.241-.048a.276.276,0,0,1-.212-.257v-.008a.487.487,0,0,1,.015-.113v-.008l.006-.1c.013-.853.15-2.145.15-2.145-.318.143-1.935.79-1.891.346A56.7,56.7,0,0,1,243.7,68.9a.1.1,0,0,1,.2.036c-.22,3.547-1.063,7.031-1.341,10.59a6.638,6.638,0,0,1,1.8-.465c.12.04-.309,2.493-.284,2.876a.15.15,0,0,0,0,.041,5.228,5.228,0,0,0,3.951-1.047C248.115,80.873,248.2,80.951,248.129,81.036Z"/><path class="cls-5" d="M244.821,82.4a4.44,4.44,0,0,0,1.836,1.294,2,2,0,0,0,1.214.02c.865-.27.851-1.075.658-1.755a4.777,4.777,0,0,0-.44-1.035A5.739,5.739,0,0,1,244.821,82.4Z"/><path class="cls-15" d="M246.657,83.694a2,2,0,0,0,1.214.02c.865-.27.851-1.075.658-1.755A2.061,2.061,0,0,0,246.657,83.694Z"/><path class="cls-5" d="M262.553,76.3c.4-1.431,4.093-16.849,3.686-18.53-.371-1.531-2.044-.905-2.069-.992s-.077-1.483-.941-2a2.337,2.337,0,0,0-1.87.034s-.263-1.471-1.189-1.869a1.866,1.866,0,0,0-1.807.39,2.46,2.46,0,0,0-1.478-1.754,1.6,1.6,0,0,0-1.785.679s-.393-1.4-1.358-1.674-1.8.766-1.8.766a2.118,2.118,0,0,0-1.7-1.294,1.848,1.848,0,0,0-1.627,1.264,2.521,2.521,0,0,0-1.8-1.267c-1.1-.032-1.481,1.34-1.481,1.34s-.45-1.224-1.485-1.144-1.281,1.53-1.281,1.53-.582-1.346-1.8-.951c-1.87.606-2.1,9.547-2.532,13.432,0,0,.523-1.857,1.317-1.926s1.389,1.2,2.868,1.522c2.109.467,5.619-2.008,8.526-1.386,2.825.6,4.919,3.571,5.937,8.008C258.036,75.479,261.6,79.7,262.553,76.3Z"/><path class="cls-6" d="M248.423,79.508a4.565,4.565,0,0,1-3.676-5.3h0a4.562,4.562,0,1,1,3.676,5.3Zm-3.076-5.188a3.949,3.949,0,1,0,4.588-3.185,3.912,3.912,0,0,0-.98-.053A3.955,3.955,0,0,0,245.347,74.32Z"/><path class="cls-6" d="M238.807,79.034c-1.869-.087-3.295-2.2-3.179-4.711a5.441,5.441,0,0,1,1.11-3.139,2.839,2.839,0,0,1,4.856.225,5.435,5.435,0,0,1,.815,3.229c-.11,2.376-1.563,4.269-3.3,4.393A2.707,2.707,0,0,1,238.807,79.034Zm-1.593-7.47a4.841,4.841,0,0,0-.977,2.787c-.1,2.175,1.065,4,2.6,4.074s2.863-1.641,2.965-3.816a4.844,4.844,0,0,0-.715-2.865,2.433,2.433,0,0,0-1.885-1.209,1.979,1.979,0,0,0-.231,0A2.51,2.51,0,0,0,237.214,71.564Z"/><path class="cls-6" d="M244.875,74.745l.413-.448c-.663-.612-2.224-1.466-3.392-.327l.426.436C243.366,73.384,244.814,74.69,244.875,74.745Z"/><path class="cls-6" d="M265.112,76.858l.554-.255c-.119-.258-1.2-2.531-2.548-2.815-1.262-.261-9.458.125-9.806.142l.029.609c2.35-.114,8.677-.359,9.651-.154C263.883,74.572,264.824,76.234,265.112,76.858Z"/><path class="cls-11" d="M258.924,75.74s3.255-5.489,5.72-4.366.289,8.889-2.412,10.132a2.833,2.833,0,0,1-3.9-1.235Z"/><path class="cls-5" d="M263.965,73.584a.039.039,0,0,1,.02.074c-1.889.935-2.779,2.819-3.357,4.746a1.565,1.565,0,0,1,2.3-.6c.053.033.01.116-.046.108a1.744,1.744,0,0,0-1.867.75,8.382,8.382,0,0,0-.8,1.616c-.078.182-.4.112-.348-.094l.012-.046C259.647,77.656,261.317,74.035,263.965,73.584Z"/><path class="cls-11" d="M274.233,99.666c21.708,14.927,37.376,38.33,38.884,43.274,3.648,11.965,9.1,33.06,9.94,42.533.31,3.5-26.683,2.849-27.133-.884-1.407-11.69-6.435-37.125-6.564-37.563-.9-3.076-8.556-16.4-16.437-30.9S265.1,93.384,274.233,99.666Z"/><path class="cls-11" d="M298.075,221.506a4.191,4.191,0,0,0,4.545-1.49,6.216,6.216,0,0,0,3.627,2.168c2.534.368,4.222-3.443,4.222-3.443a7.657,7.657,0,0,0,4.191,1.676c2.46.109,4.712-3.493,4.712-3.493a6.8,6.8,0,0,0,4.613-.847c2.334-1.507,3.485-8.948,3.446-13.137s-4.075-16.036-4.616-18.372l-26.891.021s-5.168,18.837-4.423,23.757C292.13,212.49,294.98,220.449,298.075,221.506Z"/><path class="cls-5" d="M302.187,219.831c-1.725-4.246-2.1-8.77-2.732-13.265a.079.079,0,0,1,.156-.02c.576,4.477,2.034,8.783,2.787,13.228A.111.111,0,0,1,302.187,219.831Z"/><path class="cls-5" d="M310.117,218.656a11.932,11.932,0,0,1-.493-3.085q-.149-1.655-.242-3.313c-.125-2.213-.2-4.429-.211-6.646,0-.1.15-.123.156-.02.129,2.2.291,4.409.513,6.607q.167,1.65.36,3.3a14.277,14.277,0,0,1,.218,3.119A.159.159,0,0,1,310.117,218.656Z"/><path class="cls-5" d="M319.363,216.831a8.317,8.317,0,0,1-.3-2.8q-.055-1.515-.126-3.028c-.1-2.018-.191-4.035-.356-6.049-.008-.1.147-.121.156-.02.178,2.045.384,4.087.544,6.133q.118,1.507.22,3.016a7.8,7.8,0,0,1-.041,2.748A.056.056,0,0,1,319.363,216.831Z"/><path class="cls-6" d="M294.64,184.884l29.5-2.38s-6.5-31.778-10.023-40.367-21.081-29.774-39.386-42.328c-12.452-8.539-11.688-1.236-5.933,10.076s19.3,37.189,19.936,39.235S294.64,184.884,294.64,184.884Z"/><path class="cls-5" d="M295.158,178.8c1.1-.256,11.116-1.178,13.295-1.331s4.362-.3,6.543-.451c2.253-.152,4.542-.416,6.8-.388a.079.079,0,0,1,.015.157c-2.223.393-4.523.5-6.769.715q-3.325.317-6.652.625c-2.217.2-12.14.9-13.238.822C295.061,178.941,295.083,178.816,295.158,178.8Z"/></g></g></svg>